<?xml version="1.0" encoding="UTF-8" standalone="no"?>
<!-- Created with Inkscape (http://www.inkscape.org/) -->

<svg
   xmlns:dc="http://purl.org/dc/elements/1.1/"
   xmlns:cc="http://creativecommons.org/ns#"
   xmlns:rdf="http://www.w3.org/1999/02/22-rdf-syntax-ns#"
   xmlns:svg="http://www.w3.org/2000/svg"
   xmlns="http://www.w3.org/2000/svg"
   xmlns:sodipodi="http://sodipodi.sourceforge.net/DTD/sodipodi-0.dtd"
   xmlns:inkscape="http://www.inkscape.org/namespaces/inkscape"
   width="210mm"
   height="297mm"
   viewBox="0 0 210 297"
   version="1.1"
   id="svg8"
   sodipodi:docname="Panneau_tsv2.svg"
   inkscape:version="0.92.4 (5da689c313, 2019-01-14)">
  <defs
     id="defs2" />
  <sodipodi:namedview
     id="base"
     pagecolor="#ffffff"
     bordercolor="#666666"
     borderopacity="1.0"
     inkscape:pageopacity="0.0"
     inkscape:pageshadow="2"
     inkscape:zoom="0.98994949"
     inkscape:cx="544.65195"
     inkscape:cy="550.11575"
     inkscape:document-units="mm"
     inkscape:current-layer="layer1"
     showgrid="false"
     inkscape:window-width="1920"
     inkscape:window-height="1017"
     inkscape:window-x="-8"
     inkscape:window-y="-8"
     inkscape:window-maximized="1" />
  <metadata
     id="metadata5">
    <rdf:RDF>
      <cc:Work
         rdf:about="">
        <dc:format>image/svg+xml</dc:format>
        <dc:type
           rdf:resource="http://purl.org/dc/dcmitype/StillImage" />
        <dc:title></dc:title>
      </cc:Work>
    </rdf:RDF>
  </metadata>
  <g
     inkscape:label="Calque 1"
     inkscape:groupmode="layer"
     id="layer1">
    <g
       id="g860"
       transform="matrix(-1,0,0,1,290.76791,0)">
      <rect
         y="155.11876"
         x="145.76678"
         height="1.059412"
         width="15.615142"
         id="rect835-2"
         style="opacity:1;fill:#5779b6;fill-opacity:0.67346939;stroke:none;stroke-width:0.05968969;stroke-linejoin:bevel;stroke-miterlimit:4;stroke-dasharray:none;stroke-opacity:1;paint-order:markers fill stroke" />
      <path
         inkscape:connector-curvature="0"
         id="path6286"
         d="m 137.02789,230.31464 c -0.0266,0.0672 -0.0711,-0.0599 -0.0988,-0.28239 l -0.0504,-0.4045 0.22568,-4.17754 0.22568,-4.17754 v -33.44814 -33.44815 l 0.0802,-0.76856 0.0802,-0.76856 8.28085,-32.66035 8.28085,-32.660355 v 33.604715 33.60471 l 0.29833,2.32379 c 0.2215,1.7254 0.28878,2.39624 0.26128,2.60517 -0.0335,0.25433 -0.22303,0.93956 -0.24933,0.90133 -0.006,-0.009 -0.10967,-0.78126 -0.23054,-1.71695 l -0.21974,-1.70126 -8.16305,32.19574 -8.16306,32.19574 -0.22508,4.17956 c -0.1238,2.29875 -0.23853,4.24748 -0.25495,4.33049 -0.0164,0.083 -0.0516,0.20589 -0.0782,0.27305 z m 0.28599,-4.63366 c 0.11971,-2.20885 0.20249,-3.95433 0.18406,-3.88108 -0.0372,0.1477 -0.46722,7.97016 -0.44477,8.09056 0.008,0.0417 0.0207,0.0148 0.0286,-0.0597 0.008,-0.0745 0.11241,-1.94194 0.23206,-4.14976 z m 17.00375,-68.10664 c -0.13538,-1.06982 -0.25258,-1.88505 -0.26044,-1.81163 -0.008,0.0734 0.0974,0.99997 0.23396,2.05901 0.13653,1.05905 0.25373,1.87428 0.26043,1.81164 0.007,-0.0626 -0.0986,-0.9892 -0.23395,-2.05902 z m -0.59384,-0.25511 c 0,-0.10706 -2.73229,10.61517 -8.13713,31.93233 -5.40485,21.31716 -8.13714,32.14764 -8.13714,32.2547 0,0.10707 2.73229,-10.61516 8.13714,-31.93232 5.40484,-21.31716 8.13713,-32.14764 8.13713,-32.25471 z m -16.27427,30.08613 c 0,-22.18396 -0.0101,-33.39749 -0.0299,-33.31935 -0.0198,0.0781 -0.0299,11.40415 -0.0299,33.65452 0,22.31678 0.01,33.46401 0.0299,33.31935 0.0198,-0.1438 0.0299,-11.53698 0.0299,-33.65452 z m 16.31906,-30.90754 c 0.0123,-0.15577 -2.69655,10.47422 -8.10375,31.80065 -5.38259,21.22937 -8.12843,32.11355 -8.14066,32.2686 -0.0123,0.15577 2.69655,-10.47422 8.10375,-31.80065 5.38259,-21.22938 8.12843,-32.11355 8.14066,-32.2686 z m 0.0149,-0.42724 c 0,-0.0253 -0.1268,-1.03026 -0.28178,-2.2333 -0.26601,-2.06497 -0.27846,-2.20877 -0.22245,-2.57048 0.12606,-0.81412 0.21282,-0.77493 0.34562,0.15612 l 0.12506,0.87684 0.009,-31.10583 0.009,-31.105827 -8.07741,31.857967 -8.07741,31.85797 0.01,30.86986 c 0.008,25.53344 0.0163,30.7459 0.0484,30.1528 0.0213,-0.39438 0.0602,-1.07672 0.0864,-1.51632 0.0475,-0.79739 0.0479,-0.79951 0.13498,-0.89994 0.1695,-0.19539 0.16913,0.28831 -0.003,3.51427 -0.10608,1.99084 -0.16967,2.96852 -0.20561,3.16101 -0.0286,0.15327 -0.0593,0.40883 -0.0681,0.56791 -0.0137,0.24762 1.14811,-4.30236 8.07535,-31.62392 4.45027,-17.55224 8.0914,-31.93384 8.0914,-31.95913 z m 0.0896,-33.58329 c 0,-21.90262 -0.0101,-33.108596 -0.0299,-33.096588 -0.0199,0.01208 -0.0299,11.130658 -0.0299,33.232518 0,22.03545 0.0101,33.17473 0.0299,33.09659 0.0198,-0.0781 0.0299,-11.26348 0.0299,-33.23252 z m -0.25369,29.53172 c -0.075,-0.57629 -0.14453,-0.97111 -0.15456,-0.87737 -0.01,0.0937 0.0475,0.68333 0.12782,1.31021 0.0803,0.62688 0.14989,1.0217 0.15456,0.87738 0.005,-0.14433 -0.0528,-0.73392 -0.12782,-1.31022 z M 137.913,214.50975 c 0.0533,-1.07638 0.0388,-1.4782 -0.0169,-0.46908 -0.0429,0.77724 -0.0702,1.62907 -0.0496,1.54773 0.009,-0.0353 0.0389,-0.52067 0.0665,-1.07865 z m 15.48595,-62.62691 c -0.0352,-0.18793 -0.0437,-0.0498 -0.0149,0.24188 0.0102,0.10366 0.0249,0.12971 0.0326,0.0579 0.008,-0.0718 -2.8e-4,-0.20673 -0.0177,-0.29977 z m -15.48439,60.89459 c -0.0516,-0.0625 -0.0524,-0.055 -0.0182,0.17002 0.0197,0.12947 0.044,0.1589 0.054,0.0654 0.01,-0.0935 -0.006,-0.19944 -0.0358,-0.23541 z m 15.51061,-61.75848 c 0,-0.0348 -0.0209,-0.0243 -0.0463,0.0234 -0.0266,0.0498 -0.0386,0.12406 -0.0281,0.17417 0.0175,0.084 0.0744,-0.0671 0.0744,-0.19761 z m 0.37326,-62.015747 c 0.0123,-0.155764 -2.68718,10.437282 -8.07565,31.689827 -5.37616,21.20402 -8.0941,31.97793 -8.0941,32.085 0,0.22351 16.14416,-63.450382 16.16975,-63.774827 z"
         style="fill:#5779b6;fill-opacity:1;stroke-width:0.06937766" />
      <rect
         transform="matrix(0.24576795,-0.96932869,0,1,0,0)"
         y="696.56384"
         x="559.93372"
         height="66.041367"
         width="65.79277"
         id="rect6288"
         style="opacity:1;fill:#cd7330;fill-opacity:0.58039216;stroke:none;stroke-width:1.65289235;stroke-linejoin:bevel;stroke-miterlimit:4;stroke-dasharray:none;stroke-opacity:1"
         d="m 16.32,8.9599763 c 0,0 346.55999,0 346.55999,0 0,0 0,262.2175337 0,262.2175337 0,0 -346.55999,0 -346.55999,0 0,0 0,-262.2175337 0,-262.2175337 z" />
      <rect
         y="219.51183"
         x="129.38599"
         height="1.059412"
         width="15.615142"
         id="rect835"
         style="opacity:1;fill:#5779b6;fill-opacity:0.67346939;stroke:none;stroke-width:0.05968969;stroke-linejoin:bevel;stroke-miterlimit:4;stroke-dasharray:none;stroke-opacity:1;paint-order:markers fill stroke" />
    </g>
  </g>
</svg>
