<?xml version="1.0" encoding="UTF-8" standalone="no"?>
<!-- Created with Inkscape (http://www.inkscape.org/) -->

<svg
   xmlns:dc="http://purl.org/dc/elements/1.1/"
   xmlns:cc="http://creativecommons.org/ns#"
   xmlns:rdf="http://www.w3.org/1999/02/22-rdf-syntax-ns#"
   xmlns:svg="http://www.w3.org/2000/svg"
   xmlns="http://www.w3.org/2000/svg"
   xmlns:sodipodi="http://sodipodi.sourceforge.net/DTD/sodipodi-0.dtd"
   xmlns:inkscape="http://www.inkscape.org/namespaces/inkscape"
   width="210mm"
   height="297mm"
   viewBox="0 0 210 297"
   version="1.1"
   id="svg8"
   inkscape:version="0.92.4 (5da689c313, 2019-01-14)"
   sodipodi:docname="Panneau1.svg">
  <defs
     id="defs2" />
  <sodipodi:namedview
     id="base"
     pagecolor="#ffffff"
     bordercolor="#666666"
     borderopacity="1.0"
     inkscape:pageopacity="0.0"
     inkscape:pageshadow="2"
     inkscape:zoom="0.35"
     inkscape:cx="400"
     inkscape:cy="560"
     inkscape:document-units="mm"
     inkscape:current-layer="layer1"
     showgrid="false"
     inkscape:window-width="780"
     inkscape:window-height="846"
     inkscape:window-x="1027"
     inkscape:window-y="129"
     inkscape:window-maximized="0" />
  <metadata
     id="metadata5">
    <rdf:RDF>
      <cc:Work
         rdf:about="">
        <dc:format>image/svg+xml</dc:format>
        <dc:type
           rdf:resource="http://purl.org/dc/dcmitype/StillImage" />
        <dc:title></dc:title>
      </cc:Work>
    </rdf:RDF>
  </metadata>
  <g
     inkscape:label="Calque 1"
     inkscape:groupmode="layer"
     id="layer1">
    <g
       id="g6859"
       transform="translate(6.8035658,-58.242421)">
      <rect
         y="69.458336"
         x="18.520834"
         height="99.407738"
         width="177.64882"
         id="rect5998"
         style="fill:#a05a2c;fill-opacity:0;stroke:#a05a2c;stroke-width:24.10000038;stroke-miterlimit:4;stroke-dasharray:none;stroke-opacity:0" />
      <g
         id="g6054">
        <rect
           style="opacity:1;fill:#784421;fill-opacity:0;stroke:#a05a2c;stroke-width:3;stroke-linejoin:bevel;stroke-miterlimit:4;stroke-dasharray:none;stroke-opacity:1"
           id="rect6000"
           width="173.58267"
           height="82.868393"
           x="16.207174"
           y="102.29646" />
        <rect
           style="opacity:1;fill:#a05a2c;fill-opacity:1;stroke:#a05a2c;stroke-width:1.06255865;stroke-linejoin:bevel;stroke-miterlimit:4;stroke-dasharray:none;stroke-opacity:1"
           id="rect6034"
           width="8.0223436"
           height="4.1469364"
           x="12.192041"
           y="184.24353" />
        <rect
           style="opacity:1;fill:#a05a2c;fill-opacity:1;stroke:#a05a2c;stroke-width:1.06255865;stroke-linejoin:bevel;stroke-miterlimit:4;stroke-dasharray:none;stroke-opacity:1"
           id="rect6034-2"
           width="8.0223436"
           height="4.1469364"
           x="186.17744"
           y="184.22514" />
      </g>
      <g
         id="g6712">
        <path
           style="opacity:1;fill:#ff6600;fill-opacity:1;stroke:none;stroke-width:0.47978055;stroke-linejoin:bevel;stroke-miterlimit:4;stroke-dasharray:none;stroke-opacity:1"
           d="m 19.863869,149.09341 c -0.03003,-19.01831 -0.03085,-36.99001 -0.0017,-39.93712 l 0.05291,-5.35838 0.367563,-0.001 0.367567,-10e-4 0.01841,26.92424 c 0.01018,14.80833 0.03164,32.77995 0.04771,39.93697 l 0.02929,13.01278 -0.413569,10e-4 -0.413572,0.001 z"
           id="path6062"
           inkscape:connector-curvature="0" />
        <path
           style="opacity:1;fill:#ff6600;fill-opacity:1;stroke:none;stroke-width:0.47978055;stroke-linejoin:bevel;stroke-miterlimit:4;stroke-dasharray:none;stroke-opacity:1"
           d="m 21.792558,149.10244 c -0.03003,-19.01831 -0.03085,-36.99001 -0.0017,-39.93712 l 0.05291,-5.35838 0.367563,-10e-4 0.367567,-0.001 0.01841,26.92424 c 0.01018,14.80833 0.03164,32.77995 0.04771,39.93697 l 0.02929,13.01278 -0.413569,0.001 -0.413572,10e-4 z"
           id="path6062-9"
           inkscape:connector-curvature="0" />
        <path
           style="opacity:1;fill:#ff6600;fill-opacity:1;stroke:none;stroke-width:0.47978055;stroke-linejoin:bevel;stroke-miterlimit:4;stroke-dasharray:none;stroke-opacity:1"
           d="m 23.758544,149.04692 c -0.03003,-19.01831 -0.03085,-36.99001 -0.0017,-39.93712 l 0.05291,-5.35838 0.367563,-10e-4 0.367567,-0.001 0.01841,26.92424 c 0.01018,14.80833 0.03164,32.77995 0.04771,39.93697 l 0.02929,13.01278 -0.413569,0.001 -0.413572,10e-4 z"
           id="path6062-4"
           inkscape:connector-curvature="0" />
        <path
           style="opacity:1;fill:#ff6600;fill-opacity:1;stroke:none;stroke-width:0.47978055;stroke-linejoin:bevel;stroke-miterlimit:4;stroke-dasharray:none;stroke-opacity:1"
           d="m 25.760732,149.09579 c -0.03003,-19.0183 -0.03085,-36.99 -0.0017,-39.93711 l 0.05291,-5.35838 0.367563,-10e-4 0.367567,-0.001 0.01841,26.92424 c 0.01018,14.80832 0.03164,32.77994 0.04771,39.93696 l 0.02929,13.01278 -0.413569,0.001 -0.413572,0.001 z"
           id="path6062-44"
           inkscape:connector-curvature="0" />
        <path
           style="opacity:1;fill:#ff6600;fill-opacity:1;stroke:none;stroke-width:0.47978055;stroke-linejoin:bevel;stroke-miterlimit:4;stroke-dasharray:none;stroke-opacity:1"
           d="m 18.278293,149.0836 c -0.03003,-19.01831 -0.03085,-36.99001 -0.0017,-39.93712 l 0.05291,-5.35838 0.367563,-0.001 0.367567,-10e-4 0.01841,26.92424 c 0.01018,14.80833 0.03164,32.77995 0.04771,39.93697 l 0.02929,13.01278 -0.413569,0.001 -0.413572,0.001 z"
           id="path6062-8"
           inkscape:connector-curvature="0" />
        <path
           style="opacity:1;fill:#ff6600;fill-opacity:1;stroke:none;stroke-width:0.47978055;stroke-linejoin:bevel;stroke-miterlimit:4;stroke-dasharray:none;stroke-opacity:1"
           d="m 29.183925,149.0702 c -0.03003,-19.01831 -0.03085,-36.99001 -0.0017,-39.93712 l 0.05291,-5.35838 0.367563,-10e-4 0.367567,-0.001 0.01841,26.92424 c 0.01018,14.80833 0.03164,32.77995 0.04771,39.93697 l 0.02929,13.01278 -0.413569,0.001 -0.413572,10e-4 z"
           id="path6062-2"
           inkscape:connector-curvature="0" />
        <path
           style="opacity:1;fill:#ff6600;fill-opacity:1;stroke:none;stroke-width:0.47978055;stroke-linejoin:bevel;stroke-miterlimit:4;stroke-dasharray:none;stroke-opacity:1"
           d="m 31.112614,149.07923 c -0.03003,-19.01831 -0.03085,-36.99001 -0.0017,-39.93712 l 0.05291,-5.35838 0.367563,-0.001 0.367567,-0.001 0.01841,26.92424 c 0.01018,14.80833 0.03164,32.77995 0.04771,39.93697 l 0.02929,13.01278 -0.413569,0.001 -0.413572,0.001 z"
           id="path6062-9-4"
           inkscape:connector-curvature="0" />
        <path
           style="opacity:1;fill:#ff6600;fill-opacity:1;stroke:none;stroke-width:0.47978055;stroke-linejoin:bevel;stroke-miterlimit:4;stroke-dasharray:none;stroke-opacity:1"
           d="M 33.0786,149.02371 C 33.04857,130.0054 33.04775,112.0337 33.0769,109.08659 l 0.05291,-5.35838 0.367563,-0.001 0.367567,-0.001 0.01841,26.92424 c 0.01018,14.80833 0.03164,32.77995 0.04771,39.93697 l 0.02929,13.01278 -0.413569,0.001 -0.413572,0.001 z"
           id="path6062-4-6"
           inkscape:connector-curvature="0" />
        <path
           style="opacity:1;fill:#ff6600;fill-opacity:1;stroke:none;stroke-width:0.47978055;stroke-linejoin:bevel;stroke-miterlimit:4;stroke-dasharray:none;stroke-opacity:1"
           d="m 35.080788,149.07258 c -0.03003,-19.0183 -0.03085,-36.99 -0.0017,-39.93711 l 0.05291,-5.35838 0.367563,-0.001 0.367567,-10e-4 0.01841,26.92424 c 0.01018,14.80832 0.03164,32.77994 0.04771,39.93696 l 0.02929,13.01278 -0.413569,0.001 -0.413572,0.001 z"
           id="path6062-44-7"
           inkscape:connector-curvature="0" />
        <path
           style="opacity:1;fill:#ff6600;fill-opacity:1;stroke:none;stroke-width:0.47978055;stroke-linejoin:bevel;stroke-miterlimit:4;stroke-dasharray:none;stroke-opacity:1"
           d="m 27.598349,149.06039 c -0.03003,-19.01831 -0.03085,-36.99001 -0.0017,-39.93712 l 0.05291,-5.35838 0.367563,-10e-4 0.367567,-0.001 0.01841,26.92424 c 0.01018,14.80833 0.03164,32.77995 0.04771,39.93697 l 0.02929,13.01278 -0.413569,0.001 -0.413572,0.001 z"
           id="path6062-8-1"
           inkscape:connector-curvature="0" />
        <path
           style="opacity:1;fill:#ff6600;fill-opacity:1;stroke:none;stroke-width:0.47978055;stroke-linejoin:bevel;stroke-miterlimit:4;stroke-dasharray:none;stroke-opacity:1"
           d="m 38.564603,149.07894 c -0.03003,-19.01831 -0.03085,-36.99001 -0.0017,-39.93712 l 0.05291,-5.35838 0.367563,-0.001 0.367567,-10e-4 0.01841,26.92424 c 0.01018,14.80833 0.03164,32.77995 0.04771,39.93697 l 0.02929,13.01278 -0.413569,0.001 -0.413572,0.001 z"
           id="path6062-5"
           inkscape:connector-curvature="0" />
        <path
           style="opacity:1;fill:#ff6600;fill-opacity:1;stroke:none;stroke-width:0.47978055;stroke-linejoin:bevel;stroke-miterlimit:4;stroke-dasharray:none;stroke-opacity:1"
           d="m 40.493292,149.08797 c -0.03003,-19.01831 -0.03085,-36.99001 -0.0017,-39.93712 l 0.05291,-5.35838 0.367563,-10e-4 0.367567,-0.001 0.01841,26.92424 c 0.01018,14.80833 0.03164,32.77995 0.04771,39.93697 l 0.02929,13.01278 -0.413569,0.001 -0.413572,0.001 z"
           id="path6062-9-8"
           inkscape:connector-curvature="0" />
        <path
           style="opacity:1;fill:#ff6600;fill-opacity:1;stroke:none;stroke-width:0.47978055;stroke-linejoin:bevel;stroke-miterlimit:4;stroke-dasharray:none;stroke-opacity:1"
           d="m 42.459278,149.03245 c -0.03003,-19.01831 -0.03085,-36.99001 -0.0017,-39.93712 l 0.05291,-5.35838 0.367563,-10e-4 0.367567,-0.001 0.01841,26.92424 c 0.01018,14.80833 0.03164,32.77995 0.04771,39.93697 l 0.02929,13.01278 -0.413569,0.001 -0.413572,0.001 z"
           id="path6062-4-7"
           inkscape:connector-curvature="0" />
        <path
           style="opacity:1;fill:#ff6600;fill-opacity:1;stroke:none;stroke-width:0.47978055;stroke-linejoin:bevel;stroke-miterlimit:4;stroke-dasharray:none;stroke-opacity:1"
           d="m 44.461466,149.08132 c -0.03003,-19.0183 -0.03085,-36.99 -0.0017,-39.93711 l 0.05291,-5.35838 0.367563,-0.001 0.367567,-0.001 0.01841,26.92424 c 0.01018,14.80832 0.03164,32.77994 0.04771,39.93696 l 0.02929,13.01278 -0.413569,10e-4 -0.413572,0.001 z"
           id="path6062-44-6"
           inkscape:connector-curvature="0" />
        <path
           style="opacity:1;fill:#ff6600;fill-opacity:1;stroke:none;stroke-width:0.47978055;stroke-linejoin:bevel;stroke-miterlimit:4;stroke-dasharray:none;stroke-opacity:1"
           d="m 36.979027,149.06913 c -0.03003,-19.01831 -0.03085,-36.99001 -0.0017,-39.93712 l 0.05291,-5.35838 0.367563,-10e-4 0.367567,-0.001 0.01841,26.92424 c 0.01018,14.80833 0.03164,32.77995 0.04771,39.93697 l 0.02929,13.01278 -0.413569,0.001 -0.413572,10e-4 z"
           id="path6062-8-2"
           inkscape:connector-curvature="0" />
        <path
           style="opacity:1;fill:#ff6600;fill-opacity:1;stroke:none;stroke-width:0.47978055;stroke-linejoin:bevel;stroke-miterlimit:4;stroke-dasharray:none;stroke-opacity:1"
           d="m 47.884659,149.05573 c -0.03003,-19.01831 -0.03085,-36.99001 -0.0017,-39.93712 l 0.05291,-5.35838 0.367563,-0.001 0.367567,-0.001 0.01841,26.92424 c 0.01018,14.80833 0.03164,32.77995 0.04771,39.93697 l 0.02929,13.01278 -0.413569,0.001 -0.413572,0.001 z"
           id="path6062-2-0"
           inkscape:connector-curvature="0" />
        <path
           style="opacity:1;fill:#ff6600;fill-opacity:1;stroke:none;stroke-width:0.47978055;stroke-linejoin:bevel;stroke-miterlimit:4;stroke-dasharray:none;stroke-opacity:1"
           d="m 49.813348,149.06476 c -0.03003,-19.01831 -0.03085,-36.99001 -0.0017,-39.93712 l 0.05291,-5.35838 0.367563,-0.001 0.367567,-0.001 0.01841,26.92424 c 0.01018,14.80833 0.03164,32.77995 0.04771,39.93697 l 0.02929,13.01278 -0.41357,10e-4 -0.413572,0.001 z"
           id="path6062-9-4-0"
           inkscape:connector-curvature="0" />
        <path
           style="opacity:1;fill:#ff6600;fill-opacity:1;stroke:none;stroke-width:0.47978055;stroke-linejoin:bevel;stroke-miterlimit:4;stroke-dasharray:none;stroke-opacity:1"
           d="m 51.779334,149.00924 c -0.03003,-19.01831 -0.03085,-36.99001 -0.0017,-39.93712 l 0.05291,-5.35838 0.367563,-0.001 0.367567,-10e-4 0.01841,26.92424 c 0.01018,14.80833 0.03164,32.77995 0.04771,39.93697 l 0.02929,13.01278 -0.413568,10e-4 -0.413572,0.001 z"
           id="path6062-4-6-0"
           inkscape:connector-curvature="0" />
        <path
           style="opacity:1;fill:#ff6600;fill-opacity:1;stroke:none;stroke-width:0.47978055;stroke-linejoin:bevel;stroke-miterlimit:4;stroke-dasharray:none;stroke-opacity:1"
           d="m 53.781522,149.05811 c -0.03003,-19.0183 -0.03085,-36.99 -0.0017,-39.93711 l 0.05291,-5.35838 0.367563,-0.001 0.367567,-10e-4 0.01841,26.92424 c 0.01018,14.80832 0.03164,32.77994 0.04771,39.93696 l 0.02929,13.01278 -0.41357,0.001 -0.413571,10e-4 z"
           id="path6062-44-7-6"
           inkscape:connector-curvature="0" />
        <path
           style="opacity:1;fill:#ff6600;fill-opacity:1;stroke:none;stroke-width:0.47978055;stroke-linejoin:bevel;stroke-miterlimit:4;stroke-dasharray:none;stroke-opacity:1"
           d="m 46.299083,149.04592 c -0.03003,-19.01831 -0.03085,-36.99001 -0.0017,-39.93712 l 0.05291,-5.35838 0.367563,-0.001 0.367567,-0.001 0.01841,26.92424 c 0.01018,14.80833 0.03164,32.77995 0.04771,39.93697 l 0.02929,13.01278 -0.413569,0.001 -0.413572,0.001 z"
           id="path6062-8-1-6"
           inkscape:connector-curvature="0" />
        <path
           style="opacity:1;fill:#ff6600;fill-opacity:1;stroke:none;stroke-width:0.47978055;stroke-linejoin:bevel;stroke-miterlimit:4;stroke-dasharray:none;stroke-opacity:1"
           d="m 57.328022,149.0846 c -0.03003,-19.0183 -0.03085,-36.99 -0.0017,-39.93712 l 0.05291,-5.35838 0.367563,-0.001 0.367567,-0.001 0.01841,26.92425 c 0.01018,14.80832 0.03164,32.77994 0.04771,39.93696 l 0.02929,13.01278 -0.41357,0.001 -0.413571,0.001 z"
           id="path6062-7"
           inkscape:connector-curvature="0" />
        <path
           style="opacity:1;fill:#ff6600;fill-opacity:1;stroke:none;stroke-width:0.47978055;stroke-linejoin:bevel;stroke-miterlimit:4;stroke-dasharray:none;stroke-opacity:1"
           d="m 59.25671,149.09363 c -0.03003,-19.0183 -0.03085,-36.99 -0.0017,-39.93712 l 0.05291,-5.35838 0.367562,-0.001 0.367568,-10e-4 0.01841,26.92425 c 0.01018,14.80832 0.03164,32.77995 0.04771,39.93696 l 0.02929,13.01278 -0.413569,0.001 -0.413572,0.001 z"
           id="path6062-9-6"
           inkscape:connector-curvature="0" />
        <path
           style="opacity:1;fill:#ff6600;fill-opacity:1;stroke:none;stroke-width:0.47978055;stroke-linejoin:bevel;stroke-miterlimit:4;stroke-dasharray:none;stroke-opacity:1"
           d="m 61.222697,149.03811 c -0.03003,-19.0183 -0.03085,-36.99 -0.0017,-39.93712 l 0.05291,-5.35838 0.367564,-0.001 0.367566,-10e-4 0.01841,26.92425 c 0.01018,14.80832 0.03164,32.77995 0.04771,39.93696 l 0.02929,13.01278 -0.413569,0.001 -0.413572,0.001 z"
           id="path6062-4-1"
           inkscape:connector-curvature="0" />
        <path
           style="opacity:1;fill:#ff6600;fill-opacity:1;stroke:none;stroke-width:0.47978055;stroke-linejoin:bevel;stroke-miterlimit:4;stroke-dasharray:none;stroke-opacity:1"
           d="m 63.224884,149.08698 c -0.03003,-19.01829 -0.03085,-36.98999 -0.0017,-39.93711 l 0.05291,-5.35838 0.367563,-10e-4 0.367567,-0.001 0.01841,26.92424 c 0.01018,14.80832 0.03164,32.77994 0.04771,39.93697 l 0.02929,13.01277 -0.413569,0.001 -0.413572,0.001 z"
           id="path6062-44-3"
           inkscape:connector-curvature="0" />
        <path
           style="opacity:1;fill:#ff6600;fill-opacity:1;stroke:none;stroke-width:0.47978055;stroke-linejoin:bevel;stroke-miterlimit:4;stroke-dasharray:none;stroke-opacity:1"
           d="m 55.742445,149.07479 c -0.03003,-19.0183 -0.03085,-36.99 -0.0017,-39.93712 l 0.05291,-5.35838 0.367563,-0.001 0.367567,-0.001 0.01841,26.92424 c 0.01018,14.80834 0.03164,32.77995 0.04771,39.93697 l 0.02929,13.01279 -0.413569,0.001 -0.413572,0.001 z"
           id="path6062-8-21"
           inkscape:connector-curvature="0" />
        <path
           style="opacity:1;fill:#ff6600;fill-opacity:1;stroke:none;stroke-width:0.47978055;stroke-linejoin:bevel;stroke-miterlimit:4;stroke-dasharray:none;stroke-opacity:1"
           d="m 66.648078,149.06139 c -0.03003,-19.0183 -0.03085,-36.99 -0.0017,-39.93712 l 0.05291,-5.35838 0.367563,-0.001 0.367567,-10e-4 0.01841,26.92425 c 0.01018,14.80832 0.03164,32.77994 0.04771,39.93696 l 0.02929,13.01278 -0.413569,0.001 -0.413572,0.001 z"
           id="path6062-2-6"
           inkscape:connector-curvature="0" />
        <path
           style="opacity:1;fill:#ff6600;fill-opacity:1;stroke:none;stroke-width:0.47978055;stroke-linejoin:bevel;stroke-miterlimit:4;stroke-dasharray:none;stroke-opacity:1"
           d="m 68.576767,149.07042 c -0.03003,-19.0183 -0.03085,-36.99 -0.0017,-39.93712 l 0.05291,-5.35838 0.367563,-10e-4 0.367567,-0.001 0.01841,26.92425 c 0.01018,14.80832 0.03164,32.77994 0.04771,39.93696 l 0.02929,13.01278 -0.41357,0.001 -0.413572,0.001 z"
           id="path6062-9-4-4"
           inkscape:connector-curvature="0" />
        <path
           style="opacity:1;fill:#ff6600;fill-opacity:1;stroke:none;stroke-width:0.47978055;stroke-linejoin:bevel;stroke-miterlimit:4;stroke-dasharray:none;stroke-opacity:1"
           d="m 70.542753,149.0149 c -0.03003,-19.0183 -0.03085,-36.99 -0.0017,-39.93712 l 0.05291,-5.35838 0.367563,-10e-4 0.367567,-0.001 0.01841,26.92425 c 0.01018,14.80832 0.03164,32.77994 0.04771,39.93696 l 0.02929,13.01278 -0.413569,0.001 -0.413572,0.001 z"
           id="path6062-4-6-9"
           inkscape:connector-curvature="0" />
        <path
           style="opacity:1;fill:#ff6600;fill-opacity:1;stroke:none;stroke-width:0.47978055;stroke-linejoin:bevel;stroke-miterlimit:4;stroke-dasharray:none;stroke-opacity:1"
           d="m 72.544941,149.06377 c -0.03003,-19.01829 -0.03085,-36.98999 -0.0017,-39.93711 l 0.05291,-5.35838 0.367563,-0.001 0.367567,-0.001 0.01841,26.92425 c 0.01018,14.80832 0.03164,32.77993 0.04771,39.93695 l 0.02929,13.01279 -0.41357,0.001 -0.413571,0.001 z"
           id="path6062-44-7-9"
           inkscape:connector-curvature="0" />
        <path
           style="opacity:1;fill:#ff6600;fill-opacity:1;stroke:none;stroke-width:0.47978055;stroke-linejoin:bevel;stroke-miterlimit:4;stroke-dasharray:none;stroke-opacity:1"
           d="m 65.062502,149.05158 c -0.03003,-19.0183 -0.03085,-36.99 -0.0017,-39.93712 l 0.05291,-5.35838 0.367563,-10e-4 0.367567,-0.001 0.01841,26.92425 c 0.01018,14.80832 0.03164,32.77994 0.04771,39.93696 l 0.02929,13.01278 -0.413569,0.001 -0.413572,10e-4 z"
           id="path6062-8-1-0"
           inkscape:connector-curvature="0" />
        <path
           style="opacity:1;fill:#ff6600;fill-opacity:1;stroke:none;stroke-width:0.47978055;stroke-linejoin:bevel;stroke-miterlimit:4;stroke-dasharray:none;stroke-opacity:1"
           d="m 76.028756,149.07013 c -0.03003,-19.0183 -0.03085,-36.99 -0.0017,-39.93712 l 0.05291,-5.35838 0.367563,-0.001 0.367567,-10e-4 0.01841,26.92425 c 0.01018,14.80832 0.03164,32.77994 0.04771,39.93696 l 0.02929,13.01278 -0.41357,10e-4 -0.413571,0.001 z"
           id="path6062-5-5"
           inkscape:connector-curvature="0" />
        <path
           style="opacity:1;fill:#ff6600;fill-opacity:1;stroke:none;stroke-width:0.47978055;stroke-linejoin:bevel;stroke-miterlimit:4;stroke-dasharray:none;stroke-opacity:1"
           d="m 77.957445,149.07916 c -0.03003,-19.0183 -0.03085,-36.99 -0.0017,-39.93712 l 0.05291,-5.35838 0.367563,-10e-4 0.367567,-0.001 0.01841,26.92425 c 0.01018,14.80832 0.03164,32.77995 0.04771,39.93696 l 0.02929,13.01278 -0.413569,0.001 -0.413572,10e-4 z"
           id="path6062-9-8-9"
           inkscape:connector-curvature="0" />
        <path
           style="opacity:1;fill:#ff6600;fill-opacity:1;stroke:none;stroke-width:0.47978055;stroke-linejoin:bevel;stroke-miterlimit:4;stroke-dasharray:none;stroke-opacity:1"
           d="m 79.923431,149.02364 c -0.03003,-19.0183 -0.03085,-36.99 -0.0017,-39.93712 l 0.05291,-5.35838 0.367563,-10e-4 0.367567,-0.001 0.01841,26.92425 c 0.01018,14.80832 0.03164,32.77994 0.04771,39.93696 l 0.02929,13.01278 -0.413568,0.001 -0.413572,10e-4 z"
           id="path6062-4-7-5"
           inkscape:connector-curvature="0" />
        <path
           style="opacity:1;fill:#ff6600;fill-opacity:1;stroke:none;stroke-width:0.47978055;stroke-linejoin:bevel;stroke-miterlimit:4;stroke-dasharray:none;stroke-opacity:1"
           d="m 81.925619,149.07251 c -0.03003,-19.01829 -0.03085,-36.98999 -0.0017,-39.93711 l 0.05291,-5.35838 0.367564,-10e-4 0.367567,-0.001 0.01841,26.92424 c 0.01019,14.80832 0.03164,32.77994 0.04771,39.93697 l 0.02929,13.01277 -0.413568,0.001 -0.413573,0.001 z"
           id="path6062-44-6-4"
           inkscape:connector-curvature="0" />
        <path
           style="opacity:1;fill:#ff6600;fill-opacity:1;stroke:none;stroke-width:0.47978055;stroke-linejoin:bevel;stroke-miterlimit:4;stroke-dasharray:none;stroke-opacity:1"
           d="m 74.44318,149.06032 c -0.03003,-19.0183 -0.03085,-36.99 -0.0017,-39.93712 l 0.05291,-5.35838 0.367563,-0.001 0.367567,-10e-4 0.01841,26.92424 c 0.01018,14.80833 0.03164,32.77995 0.04771,39.93697 l 0.02929,13.01279 -0.41357,0.001 -0.413572,0.001 z"
           id="path6062-8-2-8"
           inkscape:connector-curvature="0" />
        <path
           style="opacity:1;fill:#ff6600;fill-opacity:1;stroke:none;stroke-width:0.47978055;stroke-linejoin:bevel;stroke-miterlimit:4;stroke-dasharray:none;stroke-opacity:1"
           d="m 85.348813,149.04692 c -0.03003,-19.0183 -0.03085,-36.99 -0.0016,-39.93712 l 0.05291,-5.35838 0.367565,-10e-4 0.367567,-0.001 0.01841,26.92425 c 0.01019,14.80832 0.03164,32.77994 0.04771,39.93696 l 0.02929,13.01278 -0.413568,0.001 -0.413572,10e-4 z"
           id="path6062-2-0-3"
           inkscape:connector-curvature="0" />
        <path
           style="opacity:1;fill:#ff6600;fill-opacity:1;stroke:none;stroke-width:0.47978055;stroke-linejoin:bevel;stroke-miterlimit:4;stroke-dasharray:none;stroke-opacity:1"
           d="m 87.277501,149.05595 c -0.03003,-19.0183 -0.03085,-36.99 -0.0016,-39.93712 l 0.05291,-5.35838 0.367562,-0.001 0.367567,-0.001 0.01842,26.92425 c 0.01019,14.80832 0.03164,32.77994 0.04771,39.93696 l 0.02929,13.01278 -0.41357,0.001 -0.413573,0.001 z"
           id="path6062-9-4-0-4"
           inkscape:connector-curvature="0" />
        <path
           style="opacity:1;fill:#ff6600;fill-opacity:1;stroke:none;stroke-width:0.47978055;stroke-linejoin:bevel;stroke-miterlimit:4;stroke-dasharray:none;stroke-opacity:1"
           d="m 89.243488,149.00043 c -0.03003,-19.0183 -0.03085,-36.99 -0.0016,-39.93712 l 0.0528,-5.35838 0.367562,-0.001 0.367567,-0.001 0.01841,26.92425 c 0.01019,14.80832 0.03164,32.77994 0.04771,39.93696 l 0.02929,13.01278 -0.41357,0.001 -0.41357,0.001 z"
           id="path6062-4-6-0-9"
           inkscape:connector-curvature="0" />
        <path
           style="opacity:1;fill:#ff6600;fill-opacity:1;stroke:none;stroke-width:0.47978055;stroke-linejoin:bevel;stroke-miterlimit:4;stroke-dasharray:none;stroke-opacity:1"
           d="m 91.245674,149.0493 c -0.03003,-19.01829 -0.03085,-36.98999 -0.0016,-39.93711 l 0.05291,-5.35838 0.367564,-0.001 0.367567,-10e-4 0.01842,26.92425 c 0.01019,14.80832 0.03164,32.77993 0.04771,39.93695 l 0.02929,13.01279 -0.41357,0.001 -0.41357,0.001 z"
           id="path6062-44-7-6-3"
           inkscape:connector-curvature="0" />
        <path
           style="opacity:1;fill:#ff6600;fill-opacity:1;stroke:none;stroke-width:0.47978055;stroke-linejoin:bevel;stroke-miterlimit:4;stroke-dasharray:none;stroke-opacity:1"
           d="m 83.763237,149.03711 c -0.03003,-19.0183 -0.03085,-36.99 -0.0016,-39.93712 l 0.05291,-5.35838 0.367561,-10e-4 0.367567,-0.001 0.01842,26.92425 c 0.01019,14.80832 0.03164,32.77994 0.04771,39.93696 l 0.02929,13.01278 -0.41357,0.001 -0.413573,0.001 z"
           id="path6062-8-1-6-9"
           inkscape:connector-curvature="0" />
        <path
           style="opacity:1;fill:#ff6600;fill-opacity:1;stroke:none;stroke-width:0.47978055;stroke-linejoin:bevel;stroke-miterlimit:4;stroke-dasharray:none;stroke-opacity:1"
           d="m 94.702043,149.09833 c -0.03003,-19.01831 -0.03085,-36.99001 -0.0017,-39.93712 l 0.05291,-5.35838 0.367563,-0.001 0.367567,-10e-4 0.01841,26.92424 c 0.01018,14.80833 0.03164,32.77996 0.04771,39.93697 l 0.02929,13.01278 -0.413569,10e-4 -0.413572,0.001 z"
           id="path6062-6"
           inkscape:connector-curvature="0" />
        <path
           style="opacity:1;fill:#ff6600;fill-opacity:1;stroke:none;stroke-width:0.47978055;stroke-linejoin:bevel;stroke-miterlimit:4;stroke-dasharray:none;stroke-opacity:1"
           d="m 96.630732,149.10736 c -0.03003,-19.01831 -0.03085,-36.99001 -0.0017,-39.93712 l 0.05291,-5.35838 0.367563,-10e-4 0.367567,-0.001 0.01841,26.92424 c 0.01018,14.80833 0.03164,32.77996 0.04771,39.93698 l 0.02929,13.01277 -0.41357,0.001 -0.413571,10e-4 z"
           id="path6062-9-9"
           inkscape:connector-curvature="0" />
        <path
           style="opacity:1;fill:#ff6600;fill-opacity:1;stroke:none;stroke-width:0.47978055;stroke-linejoin:bevel;stroke-miterlimit:4;stroke-dasharray:none;stroke-opacity:1"
           d="m 98.596718,149.05184 c -0.03003,-19.01831 -0.03085,-36.99001 -0.0017,-39.93712 l 0.05291,-5.35838 0.367563,-10e-4 0.367567,-0.001 0.01841,26.92424 c 0.01018,14.80833 0.03164,32.77996 0.04771,39.93697 l 0.02929,13.01278 -0.413569,0.001 -0.413572,10e-4 z"
           id="path6062-4-3"
           inkscape:connector-curvature="0" />
        <path
           style="opacity:1;fill:#ff6600;fill-opacity:1;stroke:none;stroke-width:0.47978055;stroke-linejoin:bevel;stroke-miterlimit:4;stroke-dasharray:none;stroke-opacity:1"
           d="m 100.59891,149.10072 c -0.03,-19.01831 -0.0309,-36.99001 -0.002,-39.93712 l 0.0529,-5.35838 0.36756,-0.001 0.36757,-0.001 0.0184,26.92424 c 0.0102,14.80833 0.0316,32.77994 0.0477,39.93697 l 0.0293,13.01278 -0.41357,0.001 -0.41357,0.001 z"
           id="path6062-44-63"
           inkscape:connector-curvature="0" />
        <path
           style="opacity:1;fill:#ff6600;fill-opacity:1;stroke:none;stroke-width:0.47978055;stroke-linejoin:bevel;stroke-miterlimit:4;stroke-dasharray:none;stroke-opacity:1"
           d="m 93.116467,149.08853 c -0.03003,-19.01832 -0.03085,-36.99002 -0.0017,-39.93713 l 0.05291,-5.35838 0.367563,-0.001 0.367567,-10e-4 0.01841,26.92424 c 0.01018,14.80834 0.03164,32.77996 0.04771,39.93697 l 0.02929,13.01279 -0.413569,0.001 -0.413572,0.001 z"
           id="path6062-8-5"
           inkscape:connector-curvature="0" />
        <path
           style="opacity:1;fill:#ff6600;fill-opacity:1;stroke:none;stroke-width:0.47978055;stroke-linejoin:bevel;stroke-miterlimit:4;stroke-dasharray:none;stroke-opacity:1"
           d="m 104.0221,149.07512 c -0.03,-19.01831 -0.0309,-36.99001 -0.002,-39.93712 l 0.0529,-5.35838 0.36757,-10e-4 0.36756,-0.001 0.0184,26.92425 c 0.0102,14.80832 0.0316,32.77994 0.0477,39.93697 l 0.0293,13.01278 -0.41357,0.001 -0.41357,10e-4 z"
           id="path6062-2-3"
           inkscape:connector-curvature="0" />
        <path
           style="opacity:1;fill:#ff6600;fill-opacity:1;stroke:none;stroke-width:0.47978055;stroke-linejoin:bevel;stroke-miterlimit:4;stroke-dasharray:none;stroke-opacity:1"
           d="m 105.95079,149.08415 c -0.03,-19.01831 -0.0309,-36.99001 -0.002,-39.93712 l 0.0529,-5.35838 0.36756,-0.001 0.36757,-0.001 0.0184,26.92425 c 0.0102,14.80833 0.0316,32.77994 0.0477,39.93697 l 0.0293,13.01278 -0.41357,0.001 -0.41357,0.001 z"
           id="path6062-9-4-04"
           inkscape:connector-curvature="0" />
        <path
           style="opacity:1;fill:#ff6600;fill-opacity:1;stroke:none;stroke-width:0.47978055;stroke-linejoin:bevel;stroke-miterlimit:4;stroke-dasharray:none;stroke-opacity:1"
           d="m 107.91678,149.02863 c -0.03,-19.01831 -0.0309,-36.99001 -0.002,-39.93712 l 0.0529,-5.35838 0.36756,-0.001 0.36757,-0.001 0.0184,26.92425 c 0.0102,14.80832 0.0316,32.77994 0.0477,39.93697 l 0.0293,13.01278 -0.41357,0.001 -0.41357,0.001 z"
           id="path6062-4-6-93"
           inkscape:connector-curvature="0" />
        <path
           style="opacity:1;fill:#ff6600;fill-opacity:1;stroke:none;stroke-width:0.47978055;stroke-linejoin:bevel;stroke-miterlimit:4;stroke-dasharray:none;stroke-opacity:1"
           d="m 109.91897,149.07751 c -0.03,-19.01831 -0.0309,-36.99001 -0.002,-39.93712 l 0.0529,-5.35838 0.36756,-0.001 0.36757,-10e-4 0.0184,26.92424 c 0.0102,14.80833 0.0316,32.77995 0.0477,39.93696 l 0.0293,13.01279 -0.41357,0.001 -0.41358,0.001 z"
           id="path6062-44-7-2"
           inkscape:connector-curvature="0" />
        <path
           style="opacity:1;fill:#ff6600;fill-opacity:1;stroke:none;stroke-width:0.47978055;stroke-linejoin:bevel;stroke-miterlimit:4;stroke-dasharray:none;stroke-opacity:1"
           d="m 102.43653,149.06531 c -0.03,-19.01831 -0.0309,-36.99001 -0.002,-39.93712 l 0.0529,-5.35838 0.36756,-0.001 0.36757,-0.001 0.0184,26.92424 c 0.0102,14.80833 0.0316,32.77996 0.0477,39.93697 l 0.0293,13.01278 -0.41357,0.001 -0.41357,0.001 z"
           id="path6062-8-1-05"
           inkscape:connector-curvature="0" />
        <path
           style="opacity:1;fill:#ff6600;fill-opacity:1;stroke:none;stroke-width:0.47978055;stroke-linejoin:bevel;stroke-miterlimit:4;stroke-dasharray:none;stroke-opacity:1"
           d="m 113.40278,149.08386 c -0.03,-19.01831 -0.0309,-36.99001 -0.002,-39.93712 l 0.0529,-5.35838 0.36756,-10e-4 0.36757,-0.001 0.0184,26.92424 c 0.0102,14.80833 0.0316,32.77996 0.0477,39.93697 l 0.0293,13.01278 -0.41357,0.001 -0.41357,0.001 z"
           id="path6062-5-3"
           inkscape:connector-curvature="0" />
        <path
           style="opacity:1;fill:#ff6600;fill-opacity:1;stroke:none;stroke-width:0.47978055;stroke-linejoin:bevel;stroke-miterlimit:4;stroke-dasharray:none;stroke-opacity:1"
           d="m 115.33147,149.09289 c -0.03,-19.01831 -0.0309,-36.99001 -0.002,-39.93712 l 0.0529,-5.35838 0.36756,-10e-4 0.36757,-0.001 0.0184,26.92424 c 0.0102,14.80833 0.0316,32.77996 0.0477,39.93698 l 0.0293,13.01277 -0.41357,0.001 -0.41357,0.001 z"
           id="path6062-9-8-8"
           inkscape:connector-curvature="0" />
        <path
           style="opacity:1;fill:#ff6600;fill-opacity:1;stroke:none;stroke-width:0.47978055;stroke-linejoin:bevel;stroke-miterlimit:4;stroke-dasharray:none;stroke-opacity:1"
           d="m 117.29746,149.03737 c -0.03,-19.01831 -0.0309,-36.99001 -0.002,-39.93712 l 0.0529,-5.35838 0.36756,-0.001 0.36757,-0.001 0.0184,26.92424 c 0.0102,14.80833 0.0316,32.77996 0.0477,39.93697 l 0.0293,13.01278 -0.41357,0.001 -0.41357,0.001 z"
           id="path6062-4-7-4"
           inkscape:connector-curvature="0" />
        <path
           style="opacity:1;fill:#ff6600;fill-opacity:1;stroke:none;stroke-width:0.47978055;stroke-linejoin:bevel;stroke-miterlimit:4;stroke-dasharray:none;stroke-opacity:1"
           d="m 119.29964,149.08625 c -0.03,-19.01831 -0.0308,-36.99001 -0.002,-39.93712 l 0.0529,-5.35838 0.36757,-0.001 0.36756,-0.001 0.0184,26.92424 c 0.0102,14.80833 0.0316,32.77994 0.0477,39.93697 l 0.0293,13.01278 -0.41356,10e-4 -0.41358,0.001 z"
           id="path6062-44-6-0"
           inkscape:connector-curvature="0" />
        <path
           style="opacity:1;fill:#ff6600;fill-opacity:1;stroke:none;stroke-width:0.47978055;stroke-linejoin:bevel;stroke-miterlimit:4;stroke-dasharray:none;stroke-opacity:1"
           d="m 111.8172,149.07406 c -0.03,-19.01832 -0.0309,-36.99002 -0.002,-39.93713 l 0.0529,-5.35838 0.36757,-10e-4 0.36756,-0.001 0.0184,26.92424 c 0.0102,14.80834 0.0316,32.77996 0.0477,39.93697 l 0.0293,13.01279 -0.41357,10e-4 -0.41357,0.001 z"
           id="path6062-8-2-0"
           inkscape:connector-curvature="0" />
        <path
           style="opacity:1;fill:#ff6600;fill-opacity:1;stroke:none;stroke-width:0.47978055;stroke-linejoin:bevel;stroke-miterlimit:4;stroke-dasharray:none;stroke-opacity:1"
           d="m 122.72284,149.06065 c -0.03,-19.01831 -0.0309,-36.99001 -0.002,-39.93712 l 0.0529,-5.35838 0.36756,-0.001 0.36757,-0.001 0.0184,26.92425 c 0.0102,14.80832 0.0316,32.77994 0.0477,39.93697 l 0.0293,13.01278 -0.41357,0.001 -0.41357,0.001 z"
           id="path6062-2-0-2"
           inkscape:connector-curvature="0" />
        <path
           style="opacity:1;fill:#ff6600;fill-opacity:1;stroke:none;stroke-width:0.47978055;stroke-linejoin:bevel;stroke-miterlimit:4;stroke-dasharray:none;stroke-opacity:1"
           d="m 124.65153,149.06968 c -0.03,-19.01831 -0.0309,-36.99001 -0.002,-39.93712 l 0.0529,-5.35838 0.36756,-0.001 0.36756,-10e-4 0.0184,26.92425 c 0.0102,14.80833 0.0316,32.77994 0.0477,39.93697 l 0.0293,13.01278 -0.41357,0.001 -0.41357,0.001 z"
           id="path6062-9-4-0-9"
           inkscape:connector-curvature="0" />
        <path
           style="opacity:1;fill:#ff6600;fill-opacity:1;stroke:none;stroke-width:0.47978055;stroke-linejoin:bevel;stroke-miterlimit:4;stroke-dasharray:none;stroke-opacity:1"
           d="m 126.61751,149.01416 c -0.03,-19.01831 -0.0309,-36.99001 -0.002,-39.93712 l 0.0528,-5.35838 0.36756,-0.001 0.36757,-10e-4 0.0184,26.92425 c 0.0102,14.80832 0.0316,32.77994 0.0477,39.93697 l 0.0293,13.01278 -0.41357,10e-4 -0.41357,0.001 z"
           id="path6062-4-6-0-99"
           inkscape:connector-curvature="0" />
        <path
           style="opacity:1;fill:#ff6600;fill-opacity:1;stroke:none;stroke-width:0.47978055;stroke-linejoin:bevel;stroke-miterlimit:4;stroke-dasharray:none;stroke-opacity:1"
           d="m 128.6197,149.06304 c -0.03,-19.01831 -0.0309,-36.99001 -0.002,-39.93712 l 0.0529,-5.35838 0.36756,-10e-4 0.36757,-0.001 0.0184,26.92424 c 0.0102,14.80833 0.0316,32.77995 0.0477,39.93696 l 0.0293,13.01279 -0.41357,0.001 -0.41357,10e-4 z"
           id="path6062-44-7-6-38"
           inkscape:connector-curvature="0" />
        <path
           style="opacity:1;fill:#ff6600;fill-opacity:1;stroke:none;stroke-width:0.47978055;stroke-linejoin:bevel;stroke-miterlimit:4;stroke-dasharray:none;stroke-opacity:1"
           d="m 121.13726,149.05084 c -0.03,-19.01831 -0.0309,-36.99001 -0.002,-39.93712 l 0.0529,-5.35838 0.36756,-0.001 0.36757,-0.001 0.0184,26.92424 c 0.0102,14.80833 0.0316,32.77996 0.0477,39.93697 l 0.0293,13.01278 -0.41357,0.001 -0.41357,0.001 z"
           id="path6062-8-1-6-3"
           inkscape:connector-curvature="0" />
        <path
           style="opacity:1;fill:#ff6600;fill-opacity:1;stroke:none;stroke-width:0.47978055;stroke-linejoin:bevel;stroke-miterlimit:4;stroke-dasharray:none;stroke-opacity:1"
           d="m 132.09812,149.06255 c -0.03,-19.01831 -0.0309,-36.99001 -0.002,-39.93712 l 0.0529,-5.35838 0.36757,-10e-4 0.36756,-0.001 0.0184,26.92424 c 0.0102,14.80833 0.0316,32.77995 0.0477,39.93697 l 0.0293,13.01278 -0.41357,0.001 -0.41357,0.001 z"
           id="path6062-86"
           inkscape:connector-curvature="0" />
        <path
           style="opacity:1;fill:#ff6600;fill-opacity:1;stroke:none;stroke-width:0.47978055;stroke-linejoin:bevel;stroke-miterlimit:4;stroke-dasharray:none;stroke-opacity:1"
           d="m 134.02681,149.07158 c -0.03,-19.01831 -0.0309,-36.99001 -0.002,-39.93712 l 0.0529,-5.35838 0.36756,-10e-4 0.36757,-0.001 0.0184,26.92424 c 0.0102,14.80833 0.0316,32.77995 0.0477,39.93697 l 0.0293,13.01278 -0.41357,0.001 -0.41357,0.001 z"
           id="path6062-9-7"
           inkscape:connector-curvature="0" />
        <path
           style="opacity:1;fill:#ff6600;fill-opacity:1;stroke:none;stroke-width:0.47978055;stroke-linejoin:bevel;stroke-miterlimit:4;stroke-dasharray:none;stroke-opacity:1"
           d="m 135.9928,149.01606 c -0.03,-19.01831 -0.0309,-36.99001 -0.002,-39.93712 l 0.0529,-5.35838 0.36756,-0.001 0.36757,-0.001 0.0184,26.92424 c 0.0102,14.80833 0.0316,32.77995 0.0477,39.93697 l 0.0293,13.01278 -0.41357,0.001 -0.41357,0.001 z"
           id="path6062-4-77"
           inkscape:connector-curvature="0" />
        <path
           style="opacity:1;fill:#ff6600;fill-opacity:1;stroke:none;stroke-width:0.47978055;stroke-linejoin:bevel;stroke-miterlimit:4;stroke-dasharray:none;stroke-opacity:1"
           d="m 137.99499,149.06493 c -0.03,-19.0183 -0.0308,-36.99 -0.002,-39.93711 l 0.0529,-5.35838 0.36756,-0.001 0.36757,-0.001 0.0184,26.92424 c 0.0102,14.80832 0.0316,32.77994 0.0477,39.93696 l 0.0293,13.01278 -0.41357,10e-4 -0.41358,0.001 z"
           id="path6062-44-5"
           inkscape:connector-curvature="0" />
        <path
           style="opacity:1;fill:#ff6600;fill-opacity:1;stroke:none;stroke-width:0.47978055;stroke-linejoin:bevel;stroke-miterlimit:4;stroke-dasharray:none;stroke-opacity:1"
           d="m 130.51255,149.05274 c -0.03,-19.01831 -0.0309,-36.99001 -0.002,-39.93712 l 0.0529,-5.35838 0.36756,-10e-4 0.36757,-0.001 0.0184,26.92424 c 0.0102,14.80833 0.0316,32.77995 0.0477,39.93697 l 0.0293,13.01278 -0.41357,0.001 -0.41357,10e-4 z"
           id="path6062-8-55"
           inkscape:connector-curvature="0" />
        <path
           style="opacity:1;fill:#ff6600;fill-opacity:1;stroke:none;stroke-width:0.47978055;stroke-linejoin:bevel;stroke-miterlimit:4;stroke-dasharray:none;stroke-opacity:1"
           d="m 141.41818,149.03934 c -0.03,-19.01831 -0.0309,-36.99001 -0.002,-39.93712 l 0.0529,-5.35838 0.36756,-0.001 0.36757,-0.001 0.0184,26.92424 c 0.0102,14.80833 0.0316,32.77995 0.0477,39.93697 l 0.0293,13.01278 -0.41357,0.001 -0.41357,0.001 z"
           id="path6062-2-5"
           inkscape:connector-curvature="0" />
        <path
           style="opacity:1;fill:#ff6600;fill-opacity:1;stroke:none;stroke-width:0.47978055;stroke-linejoin:bevel;stroke-miterlimit:4;stroke-dasharray:none;stroke-opacity:1"
           d="m 143.34687,149.04837 c -0.03,-19.01831 -0.0308,-36.99001 -0.002,-39.93712 l 0.0529,-5.35838 0.36756,-0.001 0.36757,-10e-4 0.0184,26.92424 c 0.0102,14.80833 0.0316,32.77995 0.0477,39.93697 l 0.0293,13.01278 -0.41357,10e-4 -0.41357,0.001 z"
           id="path6062-9-4-8"
           inkscape:connector-curvature="0" />
        <path
           style="opacity:1;fill:#ff6600;fill-opacity:1;stroke:none;stroke-width:0.47978055;stroke-linejoin:bevel;stroke-miterlimit:4;stroke-dasharray:none;stroke-opacity:1"
           d="m 145.31285,148.99285 c -0.03,-19.01831 -0.0308,-36.99001 -0.002,-39.93712 l 0.0529,-5.35838 0.36757,-0.001 0.36756,-10e-4 0.0184,26.92424 c 0.0102,14.80833 0.0316,32.77995 0.0477,39.93697 l 0.0293,13.01278 -0.41356,10e-4 -0.41358,0.001 z"
           id="path6062-4-6-6"
           inkscape:connector-curvature="0" />
        <path
           style="opacity:1;fill:#ff6600;fill-opacity:1;stroke:none;stroke-width:0.47978055;stroke-linejoin:bevel;stroke-miterlimit:4;stroke-dasharray:none;stroke-opacity:1"
           d="m 147.31504,149.04172 c -0.03,-19.0183 -0.0309,-36.99 -0.002,-39.93711 l 0.0529,-5.35838 0.36757,-10e-4 0.36756,-0.001 0.0184,26.92424 c 0.0102,14.80832 0.0316,32.77994 0.0477,39.93696 l 0.0293,13.01278 -0.41357,0.001 -0.41357,10e-4 z"
           id="path6062-44-7-3"
           inkscape:connector-curvature="0" />
        <path
           style="opacity:1;fill:#ff6600;fill-opacity:1;stroke:none;stroke-width:0.47978055;stroke-linejoin:bevel;stroke-miterlimit:4;stroke-dasharray:none;stroke-opacity:1"
           d="m 139.8326,149.02953 c -0.03,-19.01831 -0.0309,-36.99001 -0.002,-39.93712 l 0.0529,-5.35838 0.36757,-0.001 0.36756,-0.001 0.0184,26.92424 c 0.0102,14.80833 0.0316,32.77995 0.0477,39.93697 l 0.0293,13.01278 -0.41357,0.001 -0.41357,0.001 z"
           id="path6062-8-1-8"
           inkscape:connector-curvature="0" />
        <path
           style="opacity:1;fill:#ff6600;fill-opacity:1;stroke:none;stroke-width:0.47978055;stroke-linejoin:bevel;stroke-miterlimit:4;stroke-dasharray:none;stroke-opacity:1"
           d="m 150.79886,149.04808 c -0.03,-19.01831 -0.0308,-36.99001 -0.002,-39.93712 l 0.0529,-5.35838 0.36756,-10e-4 0.36757,-0.001 0.0184,26.92424 c 0.0102,14.80833 0.0316,32.77995 0.0477,39.93697 l 0.0293,13.01278 -0.41357,0.001 -0.41357,10e-4 z"
           id="path6062-5-2"
           inkscape:connector-curvature="0" />
        <path
           style="opacity:1;fill:#ff6600;fill-opacity:1;stroke:none;stroke-width:0.47978055;stroke-linejoin:bevel;stroke-miterlimit:4;stroke-dasharray:none;stroke-opacity:1"
           d="m 152.72755,149.05711 c -0.03,-19.01831 -0.0309,-36.99001 -0.002,-39.93712 l 0.0529,-5.35838 0.36756,-0.001 0.36757,-0.001 0.0184,26.92424 c 0.0102,14.80833 0.0316,32.77995 0.0477,39.93697 l 0.0293,13.01278 -0.41357,0.001 -0.41357,0.001 z"
           id="path6062-9-8-5"
           inkscape:connector-curvature="0" />
        <path
           style="opacity:1;fill:#ff6600;fill-opacity:1;stroke:none;stroke-width:0.47978055;stroke-linejoin:bevel;stroke-miterlimit:4;stroke-dasharray:none;stroke-opacity:1"
           d="m 154.69353,149.00159 c -0.03,-19.01831 -0.0309,-36.99001 -0.002,-39.93712 l 0.0529,-5.35838 0.36757,-0.001 0.36756,-0.001 0.0184,26.92424 c 0.0102,14.80833 0.0316,32.77995 0.0477,39.93697 l 0.0293,13.01278 -0.41357,0.001 -0.41357,0.001 z"
           id="path6062-4-7-3"
           inkscape:connector-curvature="0" />
        <path
           style="opacity:1;fill:#ff6600;fill-opacity:1;stroke:none;stroke-width:0.47978055;stroke-linejoin:bevel;stroke-miterlimit:4;stroke-dasharray:none;stroke-opacity:1"
           d="m 156.69572,149.05046 c -0.03,-19.0183 -0.0308,-36.99 -0.002,-39.93711 l 0.0529,-5.35838 0.36756,-0.001 0.36757,-10e-4 0.0184,26.92424 c 0.0102,14.80832 0.0316,32.77994 0.0477,39.93696 l 0.0293,13.01278 -0.41357,0.001 -0.41357,0.001 z"
           id="path6062-44-6-1"
           inkscape:connector-curvature="0" />
        <path
           style="opacity:1;fill:#ff6600;fill-opacity:1;stroke:none;stroke-width:0.47978055;stroke-linejoin:bevel;stroke-miterlimit:4;stroke-dasharray:none;stroke-opacity:1"
           d="m 149.21328,149.03827 c -0.03,-19.01831 -0.0308,-36.99001 -0.002,-39.93712 l 0.0529,-5.35838 0.36756,-10e-4 0.36757,-0.001 0.0184,26.92424 c 0.0102,14.80833 0.0316,32.77995 0.0477,39.93697 l 0.0293,13.01278 -0.41357,0.001 -0.41357,0.001 z"
           id="path6062-8-2-4"
           inkscape:connector-curvature="0" />
        <path
           style="opacity:1;fill:#ff6600;fill-opacity:1;stroke:none;stroke-width:0.47978055;stroke-linejoin:bevel;stroke-miterlimit:4;stroke-dasharray:none;stroke-opacity:1"
           d="m 160.11891,149.02487 c -0.03,-19.01831 -0.0308,-36.99001 -0.002,-39.93712 l 0.0529,-5.35838 0.36756,-0.001 0.36757,-0.001 0.0184,26.92424 c 0.0102,14.80833 0.0316,32.77995 0.0477,39.93697 l 0.0293,13.01278 -0.41357,0.001 -0.41357,0.001 z"
           id="path6062-2-0-8"
           inkscape:connector-curvature="0" />
        <path
           style="opacity:1;fill:#ff6600;fill-opacity:1;stroke:none;stroke-width:0.47978055;stroke-linejoin:bevel;stroke-miterlimit:4;stroke-dasharray:none;stroke-opacity:1"
           d="m 162.0476,149.0339 c -0.03,-19.01831 -0.0309,-36.99001 -0.002,-39.93712 l 0.0529,-5.35838 0.36756,-0.001 0.36756,-10e-4 0.0184,26.92424 c 0.0102,14.80833 0.0316,32.77995 0.0477,39.93697 l 0.0293,13.01278 -0.41357,0.001 -0.41357,0.001 z"
           id="path6062-9-4-0-6"
           inkscape:connector-curvature="0" />
        <path
           style="opacity:1;fill:#ff6600;fill-opacity:1;stroke:none;stroke-width:0.47978055;stroke-linejoin:bevel;stroke-miterlimit:4;stroke-dasharray:none;stroke-opacity:1"
           d="m 164.01359,148.97838 c -0.03,-19.01831 -0.0308,-36.99001 -0.002,-39.93712 l 0.0528,-5.35838 0.36756,-10e-4 0.36757,-0.001 0.0184,26.92424 c 0.0102,14.80833 0.0316,32.77995 0.0477,39.93697 l 0.0293,13.01278 -0.41357,0.001 -0.41357,0.001 z"
           id="path6062-4-6-0-94"
           inkscape:connector-curvature="0" />
        <path
           style="opacity:1;fill:#ff6600;fill-opacity:1;stroke:none;stroke-width:0.47978055;stroke-linejoin:bevel;stroke-miterlimit:4;stroke-dasharray:none;stroke-opacity:1"
           d="m 166.01578,149.02725 c -0.03,-19.0183 -0.0309,-36.99 -0.002,-39.93711 l 0.0529,-5.35838 0.36756,-10e-4 0.36757,-0.001 0.0184,26.92424 c 0.0102,14.80832 0.0316,32.77994 0.0477,39.93696 l 0.0293,13.01278 -0.41357,0.001 -0.41357,0.001 z"
           id="path6062-44-7-6-8"
           inkscape:connector-curvature="0" />
        <path
           style="opacity:1;fill:#ff6600;fill-opacity:1;stroke:none;stroke-width:0.47978055;stroke-linejoin:bevel;stroke-miterlimit:4;stroke-dasharray:none;stroke-opacity:1"
           d="m 158.53334,149.01506 c -0.03,-19.01831 -0.0309,-36.99001 -0.002,-39.93712 l 0.0529,-5.35838 0.36756,-0.001 0.36757,-10e-4 0.0184,26.92424 c 0.0102,14.80833 0.0316,32.77995 0.0477,39.93697 l 0.0293,13.01278 -0.41357,10e-4 -0.41357,0.001 z"
           id="path6062-8-1-6-5"
           inkscape:connector-curvature="0" />
        <path
           style="opacity:1;fill:#ff6600;fill-opacity:1;stroke:none;stroke-width:0.47978055;stroke-linejoin:bevel;stroke-miterlimit:4;stroke-dasharray:none;stroke-opacity:1"
           d="m 167.92021,149.05866 c -0.03,-19.0183 -0.0309,-36.99 -0.002,-39.93711 l 0.0529,-5.35838 0.36757,-0.001 0.36756,-10e-4 0.0184,26.92424 c 0.0102,14.80832 0.0316,32.77994 0.0477,39.93696 l 0.0293,13.01278 -0.41357,10e-4 -0.41357,0.001 z"
           id="path6062-44-7-3-0"
           inkscape:connector-curvature="0" />
        <path
           style="opacity:1;fill:#ff6600;fill-opacity:1;stroke:none;stroke-width:0.47978055;stroke-linejoin:bevel;stroke-miterlimit:4;stroke-dasharray:none;stroke-opacity:1"
           d="m 171.40403,149.06502 c -0.03,-19.01831 -0.0308,-36.99001 -0.002,-39.93712 l 0.0529,-5.35838 0.36756,-0.001 0.36757,-10e-4 0.0184,26.92424 c 0.0102,14.80833 0.0316,32.77995 0.0477,39.93697 l 0.0293,13.01278 -0.41357,10e-4 -0.41357,0.001 z"
           id="path6062-5-2-3"
           inkscape:connector-curvature="0" />
        <path
           style="opacity:1;fill:#ff6600;fill-opacity:1;stroke:none;stroke-width:0.47978055;stroke-linejoin:bevel;stroke-miterlimit:4;stroke-dasharray:none;stroke-opacity:1"
           d="m 173.33272,149.07405 c -0.03,-19.01831 -0.0309,-36.99001 -0.002,-39.93712 l 0.0529,-5.35838 0.36756,-10e-4 0.36757,-0.001 0.0184,26.92424 c 0.0102,14.80833 0.0316,32.77995 0.0477,39.93697 l 0.0293,13.01278 -0.41357,0.001 -0.41357,10e-4 z"
           id="path6062-9-8-5-4"
           inkscape:connector-curvature="0" />
        <path
           style="opacity:1;fill:#ff6600;fill-opacity:1;stroke:none;stroke-width:0.47978055;stroke-linejoin:bevel;stroke-miterlimit:4;stroke-dasharray:none;stroke-opacity:1"
           d="m 175.2987,149.01853 c -0.03,-19.01831 -0.0309,-36.99001 -0.002,-39.93712 l 0.0529,-5.35838 0.36757,-10e-4 0.36756,-0.001 0.0184,26.92424 c 0.0102,14.80833 0.0316,32.77995 0.0477,39.93697 l 0.0293,13.01278 -0.41357,0.001 -0.41357,10e-4 z"
           id="path6062-4-7-3-7"
           inkscape:connector-curvature="0" />
        <path
           style="opacity:1;fill:#ff6600;fill-opacity:1;stroke:none;stroke-width:0.47978055;stroke-linejoin:bevel;stroke-miterlimit:4;stroke-dasharray:none;stroke-opacity:1"
           d="m 177.30089,149.0674 c -0.03,-19.0183 -0.0308,-36.99 -0.002,-39.93711 l 0.0529,-5.35838 0.36756,-0.001 0.36757,-0.001 0.0184,26.92424 c 0.0102,14.80832 0.0316,32.77994 0.0477,39.93696 l 0.0293,13.01278 -0.41357,0.001 -0.41357,0.001 z"
           id="path6062-44-6-1-6"
           inkscape:connector-curvature="0" />
        <path
           style="opacity:1;fill:#ff6600;fill-opacity:1;stroke:none;stroke-width:0.47978055;stroke-linejoin:bevel;stroke-miterlimit:4;stroke-dasharray:none;stroke-opacity:1"
           d="m 169.81845,149.05521 c -0.03,-19.01831 -0.0308,-36.99001 -0.002,-39.93712 l 0.0529,-5.35838 0.36756,-0.001 0.36757,-10e-4 0.0184,26.92424 c 0.0102,14.80833 0.0316,32.77995 0.0477,39.93697 l 0.0293,13.01278 -0.41357,0.001 -0.41357,0.001 z"
           id="path6062-8-2-4-0"
           inkscape:connector-curvature="0" />
        <path
           style="opacity:1;fill:#ff6600;fill-opacity:1;stroke:none;stroke-width:0.47978055;stroke-linejoin:bevel;stroke-miterlimit:4;stroke-dasharray:none;stroke-opacity:1"
           d="m 180.72408,149.04181 c -0.03,-19.01831 -0.0308,-36.99001 -0.002,-39.93712 l 0.0529,-5.35838 0.36756,-10e-4 0.36757,-0.001 0.0184,26.92424 c 0.0102,14.80833 0.0316,32.77995 0.0477,39.93697 l 0.0293,13.01278 -0.41357,0.001 -0.41357,10e-4 z"
           id="path6062-2-0-8-8"
           inkscape:connector-curvature="0" />
        <path
           style="opacity:1;fill:#ff6600;fill-opacity:1;stroke:none;stroke-width:0.47978055;stroke-linejoin:bevel;stroke-miterlimit:4;stroke-dasharray:none;stroke-opacity:1"
           d="m 182.65277,149.05084 c -0.03,-19.01831 -0.0309,-36.99001 -0.002,-39.93712 l 0.0529,-5.35838 0.36756,-0.001 0.36756,-0.001 0.0184,26.92424 c 0.0102,14.80833 0.0316,32.77995 0.0477,39.93697 l 0.0293,13.01278 -0.41357,0.001 -0.41357,0.001 z"
           id="path6062-9-4-0-6-5"
           inkscape:connector-curvature="0" />
        <path
           style="opacity:1;fill:#ff6600;fill-opacity:1;stroke:none;stroke-width:0.47978055;stroke-linejoin:bevel;stroke-miterlimit:4;stroke-dasharray:none;stroke-opacity:1"
           d="m 184.61876,148.99532 c -0.03,-19.01831 -0.0308,-36.99001 -0.002,-39.93712 l 0.0528,-5.35838 0.36756,-0.001 0.36757,-0.001 0.0184,26.92424 c 0.0102,14.80833 0.0316,32.77995 0.0477,39.93697 l 0.0293,13.01278 -0.41357,0.001 -0.41357,0.001 z"
           id="path6062-4-6-0-94-2"
           inkscape:connector-curvature="0" />
        <path
           style="opacity:1;fill:#ff6600;fill-opacity:1;stroke:none;stroke-width:0.47978055;stroke-linejoin:bevel;stroke-miterlimit:4;stroke-dasharray:none;stroke-opacity:1"
           d="m 186.62095,149.04419 c -0.03,-19.0183 -0.0309,-36.99 -0.002,-39.93711 l 0.0529,-5.35838 0.36756,-0.001 0.36757,-10e-4 0.0184,26.92424 c 0.0102,14.80832 0.0316,32.77994 0.0477,39.93696 l 0.0293,13.01278 -0.41357,0.001 -0.41357,0.001 z"
           id="path6062-44-7-6-8-1"
           inkscape:connector-curvature="0" />
        <path
           style="opacity:1;fill:#ff6600;fill-opacity:1;stroke:none;stroke-width:0.47978055;stroke-linejoin:bevel;stroke-miterlimit:4;stroke-dasharray:none;stroke-opacity:1"
           d="m 179.13851,149.032 c -0.03,-19.01831 -0.0309,-36.99001 -0.002,-39.93712 l 0.0529,-5.35838 0.36756,-0.001 0.36757,-0.001 0.0184,26.92424 c 0.0102,14.80833 0.0316,32.77995 0.0477,39.93697 l 0.0293,13.01278 -0.41357,0.001 -0.41357,0.001 z"
           id="path6062-8-1-6-5-7"
           inkscape:connector-curvature="0" />
        <path
           style="opacity:1;fill:#ff6600;fill-opacity:1;stroke:none;stroke-width:0.70115483;stroke-linejoin:bevel;stroke-miterlimit:4;stroke-dasharray:none;stroke-opacity:1"
           d="m 114.43276,105.49703 c -40.617605,-0.0366 -78.999739,-0.0987 -85.293661,-0.13817 l -11.443487,-0.0717 6.15e-4,-0.36757 6.13e-4,-0.36757 57.502195,0.0759 c 31.626205,0.0417 70.008325,0.0832 85.293685,0.0922 l 27.79159,0.0163 -9.6e-4,0.41357 -9.5e-4,0.41357 z"
           id="path6062-8-6"
           inkscape:connector-curvature="0" />
        <path
           style="opacity:1;fill:#ff6600;fill-opacity:1;stroke:none;stroke-width:0.70115483;stroke-linejoin:bevel;stroke-miterlimit:4;stroke-dasharray:none;stroke-opacity:1"
           d="m 114.38881,107.20876 c -40.617602,-0.0366 -78.999736,-0.0987 -85.293658,-0.13817 l -11.443486,-0.0717 6.15e-4,-0.36757 6.13e-4,-0.36757 57.502193,0.0759 c 31.626213,0.0417 70.008333,0.0832 85.293693,0.0922 l 27.79158,0.0163 -0.001,0.41357 -0.001,0.41357 z"
           id="path6062-8-6-8"
           inkscape:connector-curvature="0" />
        <path
           style="opacity:1;fill:#ff6600;fill-opacity:1;stroke:none;stroke-width:0.70115483;stroke-linejoin:bevel;stroke-miterlimit:4;stroke-dasharray:none;stroke-opacity:1"
           d="m 114.41769,108.82912 c -40.617609,-0.0366 -78.999744,-0.0987 -85.293666,-0.13817 l -11.443486,-0.0717 6.15e-4,-0.36757 6.13e-4,-0.36757 57.502194,0.0759 c 31.62622,0.0417 70.00833,0.0832 85.2937,0.0922 l 27.79158,0.0163 -0.001,0.41357 -0.001,0.41357 z"
           id="path6062-8-6-8-1"
           inkscape:connector-curvature="0" />
        <path
           style="opacity:1;fill:#ff6600;fill-opacity:1;stroke:none;stroke-width:0.70115483;stroke-linejoin:bevel;stroke-miterlimit:4;stroke-dasharray:none;stroke-opacity:1"
           d="m 114.34517,110.51762 c -40.61761,-0.0366 -78.999745,-0.0987 -85.293667,-0.13817 l -11.443487,-0.0717 6.15e-4,-0.36757 6.13e-4,-0.36757 57.502195,0.0759 c 31.626201,0.0417 70.008331,0.0832 85.293691,0.0922 l 27.79158,0.0163 -0.001,0.41357 -0.001,0.41357 z"
           id="path6062-8-6-2"
           inkscape:connector-curvature="0" />
        <path
           style="opacity:1;fill:#ff6600;fill-opacity:1;stroke:none;stroke-width:0.70115483;stroke-linejoin:bevel;stroke-miterlimit:4;stroke-dasharray:none;stroke-opacity:1"
           d="m 114.30122,112.22935 c -40.617607,-0.0366 -78.999742,-0.0987 -85.293664,-0.13817 l -11.443486,-0.0717 6.15e-4,-0.36757 6.13e-4,-0.36757 57.502193,0.0759 c 31.626219,0.0417 70.008329,0.0832 85.293689,0.0922 l 27.79158,0.0163 -0.001,0.41357 -0.001,0.41357 z"
           id="path6062-8-6-8-4"
           inkscape:connector-curvature="0" />
        <path
           style="opacity:1;fill:#ff6600;fill-opacity:1;stroke:none;stroke-width:0.70115483;stroke-linejoin:bevel;stroke-miterlimit:4;stroke-dasharray:none;stroke-opacity:1"
           d="m 114.3301,113.84971 c -40.617616,-0.0366 -78.99975,-0.0987 -85.293672,-0.13817 l -11.443486,-0.0717 6.15e-4,-0.36757 6.13e-4,-0.36757 57.502193,0.0759 c 31.626217,0.0417 70.008337,0.0832 85.293707,0.0922 l 27.79157,0.0163 -10e-4,0.41357 -0.001,0.41357 z"
           id="path6062-8-6-8-1-9"
           inkscape:connector-curvature="0" />
        <path
           style="opacity:1;fill:#ff6600;fill-opacity:1;stroke:none;stroke-width:0.70115483;stroke-linejoin:bevel;stroke-miterlimit:4;stroke-dasharray:none;stroke-opacity:1"
           d="m 114.36227,115.45348 c -40.617603,-0.0366 -78.999738,-0.0987 -85.29366,-0.13817 l -11.443487,-0.0717 6.15e-4,-0.36757 6.13e-4,-0.36757 57.502195,0.0759 c 31.626204,0.0417 70.008324,0.0832 85.293684,0.0922 l 27.79159,0.0163 -0.001,0.41357 -0.001,0.41357 z"
           id="path6062-8-6-9"
           inkscape:connector-curvature="0" />
        <path
           style="opacity:1;fill:#ff6600;fill-opacity:1;stroke:none;stroke-width:0.70115483;stroke-linejoin:bevel;stroke-miterlimit:4;stroke-dasharray:none;stroke-opacity:1"
           d="m 114.31832,117.16521 c -40.6176,-0.0366 -78.999735,-0.0987 -85.293657,-0.13817 l -11.443486,-0.0717 6.15e-4,-0.36757 6.13e-4,-0.36757 57.502194,0.0759 c 31.626211,0.0417 70.008331,0.0832 85.293691,0.0922 l 27.79158,0.0163 -0.001,0.41357 -0.001,0.41357 z"
           id="path6062-8-6-8-7"
           inkscape:connector-curvature="0" />
        <path
           style="opacity:1;fill:#ff6600;fill-opacity:1;stroke:none;stroke-width:0.70115483;stroke-linejoin:bevel;stroke-miterlimit:4;stroke-dasharray:none;stroke-opacity:1"
           d="m 114.3472,118.78557 c -40.617606,-0.0366 -78.999743,-0.0987 -85.293665,-0.13817 l -11.443486,-0.0717 6.15e-4,-0.36757 6.13e-4,-0.36757 57.502193,0.0759 c 31.62622,0.0417 70.00833,0.0832 85.2937,0.0922 l 27.79158,0.0163 -10e-4,0.41357 -0.001,0.41357 z"
           id="path6062-8-6-8-1-1"
           inkscape:connector-curvature="0" />
        <path
           style="opacity:1;fill:#ff6600;fill-opacity:1;stroke:none;stroke-width:0.70115483;stroke-linejoin:bevel;stroke-miterlimit:4;stroke-dasharray:none;stroke-opacity:1"
           d="m 114.27468,120.47407 c -40.617609,-0.0366 -78.999744,-0.0987 -85.293666,-0.13817 l -11.443487,-0.0717 6.15e-4,-0.36757 6.13e-4,-0.36757 57.502196,0.0759 c 31.626199,0.0417 70.008329,0.0832 85.293689,0.0922 l 27.79158,0.0163 -10e-4,0.41357 -0.001,0.41357 z"
           id="path6062-8-6-2-3"
           inkscape:connector-curvature="0" />
        <path
           style="opacity:1;fill:#ff6600;fill-opacity:1;stroke:none;stroke-width:0.70115483;stroke-linejoin:bevel;stroke-miterlimit:4;stroke-dasharray:none;stroke-opacity:1"
           d="m 114.23073,122.1858 c -40.617606,-0.0366 -78.999741,-0.0987 -85.293663,-0.13817 l -11.443486,-0.0717 6.15e-4,-0.36757 6.13e-4,-0.36757 57.502194,0.0759 c 31.626217,0.0417 70.008327,0.0832 85.293687,0.0922 l 27.79158,0.0163 -0.001,0.41357 -10e-4,0.41357 z"
           id="path6062-8-6-8-4-1"
           inkscape:connector-curvature="0" />
        <path
           style="opacity:1;fill:#ff6600;fill-opacity:1;stroke:none;stroke-width:0.70115483;stroke-linejoin:bevel;stroke-miterlimit:4;stroke-dasharray:none;stroke-opacity:1"
           d="m 114.25961,123.80616 c -40.617615,-0.0366 -78.999749,-0.0987 -85.293671,-0.13817 l -11.443486,-0.0717 6.15e-4,-0.36757 6.13e-4,-0.36757 57.502194,0.0759 c 31.626215,0.0417 70.008335,0.0832 85.293705,0.0922 l 27.79157,0.0163 -0.001,0.41357 -0.001,0.41357 z"
           id="path6062-8-6-8-1-9-8"
           inkscape:connector-curvature="0" />
        <path
           style="opacity:1;fill:#ff6600;fill-opacity:1;stroke:none;stroke-width:0.70115483;stroke-linejoin:bevel;stroke-miterlimit:4;stroke-dasharray:none;stroke-opacity:1"
           d="m 114.44736,125.53349 c -40.617604,-0.0366 -78.999738,-0.0987 -85.29366,-0.13817 l -11.443487,-0.0717 6.15e-4,-0.36757 6.13e-4,-0.36757 57.502197,0.0759 c 31.626202,0.0417 70.008322,0.0832 85.293682,0.0922 l 27.79159,0.0163 -0.001,0.41357 -0.001,0.41357 z"
           id="path6062-8-6-3"
           inkscape:connector-curvature="0" />
        <path
           style="opacity:1;fill:#ff6600;fill-opacity:1;stroke:none;stroke-width:0.70115483;stroke-linejoin:bevel;stroke-miterlimit:4;stroke-dasharray:none;stroke-opacity:1"
           d="m 114.40341,127.24522 c -40.617602,-0.0366 -78.999735,-0.0987 -85.293657,-0.13817 l -11.443486,-0.0717 6.15e-4,-0.36757 6.13e-4,-0.36757 57.502193,0.0759 c 31.626212,0.0417 70.008332,0.0832 85.293692,0.0922 l 27.79158,0.0163 -0.001,0.41357 -0.001,0.41357 z"
           id="path6062-8-6-8-0"
           inkscape:connector-curvature="0" />
        <path
           style="opacity:1;fill:#ff6600;fill-opacity:1;stroke:none;stroke-width:0.70115483;stroke-linejoin:bevel;stroke-miterlimit:4;stroke-dasharray:none;stroke-opacity:1"
           d="m 114.43229,128.86558 c -40.617608,-0.0366 -78.999743,-0.0987 -85.293665,-0.13817 l -11.443486,-0.0717 6.15e-4,-0.36757 6.13e-4,-0.36757 57.502195,0.0759 c 31.626218,0.0417 70.008328,0.0832 85.293698,0.0922 l 27.79158,0.0163 -0.001,0.41357 -0.001,0.41357 z"
           id="path6062-8-6-8-1-7"
           inkscape:connector-curvature="0" />
        <path
           style="opacity:1;fill:#ff6600;fill-opacity:1;stroke:none;stroke-width:0.70115483;stroke-linejoin:bevel;stroke-miterlimit:4;stroke-dasharray:none;stroke-opacity:1"
           d="m 114.35977,130.55408 c -40.617607,-0.0366 -78.999744,-0.0987 -85.293666,-0.13817 l -11.443487,-0.0717 6.15e-4,-0.36757 6.13e-4,-0.36757 57.502194,0.0759 c 31.626201,0.0417 70.008331,0.0832 85.293691,0.0922 l 27.79158,0.0163 -0.001,0.41357 -0.001,0.41357 z"
           id="path6062-8-6-2-6"
           inkscape:connector-curvature="0" />
        <path
           style="opacity:1;fill:#ff6600;fill-opacity:1;stroke:none;stroke-width:0.70115483;stroke-linejoin:bevel;stroke-miterlimit:4;stroke-dasharray:none;stroke-opacity:1"
           d="m 114.31582,132.26581 c -40.617605,-0.0366 -78.999741,-0.0987 -85.293663,-0.13817 l -11.443486,-0.0717 6.15e-4,-0.36757 6.13e-4,-0.36757 57.502193,0.0759 c 31.626218,0.0417 70.008328,0.0832 85.293688,0.0922 l 27.79158,0.0163 -0.001,0.41357 -0.001,0.41357 z"
           id="path6062-8-6-8-4-6"
           inkscape:connector-curvature="0" />
        <path
           style="opacity:1;fill:#ff6600;fill-opacity:1;stroke:none;stroke-width:0.70115483;stroke-linejoin:bevel;stroke-miterlimit:4;stroke-dasharray:none;stroke-opacity:1"
           d="m 114.3447,133.88617 c -40.617613,-0.0366 -78.999749,-0.0987 -85.293671,-0.13817 l -11.443486,-0.0717 6.15e-4,-0.36757 6.13e-4,-0.36757 57.502192,0.0759 c 31.626217,0.0417 70.008337,0.0832 85.293707,0.0922 l 27.79157,0.0163 -10e-4,0.41357 -0.001,0.41357 z"
           id="path6062-8-6-8-1-9-87"
           inkscape:connector-curvature="0" />
        <path
           style="opacity:1;fill:#ff6600;fill-opacity:1;stroke:none;stroke-width:0.70115483;stroke-linejoin:bevel;stroke-miterlimit:4;stroke-dasharray:none;stroke-opacity:1"
           d="m 114.37687,135.48994 c -40.617602,-0.0366 -78.999737,-0.0987 -85.293659,-0.13817 l -11.443487,-0.0717 6.15e-4,-0.36757 6.13e-4,-0.36757 57.502195,0.0759 c 31.626203,0.0417 70.008323,0.0832 85.293683,0.0922 l 27.79159,0.0163 -0.001,0.41357 -0.001,0.41357 z"
           id="path6062-8-6-9-5"
           inkscape:connector-curvature="0" />
        <path
           style="opacity:1;fill:#ff6600;fill-opacity:1;stroke:none;stroke-width:0.70115483;stroke-linejoin:bevel;stroke-miterlimit:4;stroke-dasharray:none;stroke-opacity:1"
           d="m 114.33292,137.20167 c -40.617599,-0.0366 -78.999734,-0.0987 -85.293656,-0.13817 l -11.443486,-0.0717 6.15e-4,-0.36757 6.13e-4,-0.36757 57.502194,0.0759 c 31.62621,0.0417 70.00833,0.0832 85.29369,0.0922 l 27.79158,0.0163 -0.001,0.41357 -0.001,0.41357 z"
           id="path6062-8-6-8-7-2"
           inkscape:connector-curvature="0" />
        <path
           style="opacity:1;fill:#ff6600;fill-opacity:1;stroke:none;stroke-width:0.70115483;stroke-linejoin:bevel;stroke-miterlimit:4;stroke-dasharray:none;stroke-opacity:1"
           d="m 114.3618,138.82203 c -40.617605,-0.0366 -78.999742,-0.0987 -85.293664,-0.13817 l -11.443486,-0.0717 6.15e-4,-0.36757 6.13e-4,-0.36757 57.502193,0.0759 c 31.626219,0.0417 70.008329,0.0832 85.293699,0.0922 l 27.79158,0.0163 -0.001,0.41357 -10e-4,0.41357 z"
           id="path6062-8-6-8-1-1-2"
           inkscape:connector-curvature="0" />
        <path
           style="opacity:1;fill:#ff6600;fill-opacity:1;stroke:none;stroke-width:0.70115483;stroke-linejoin:bevel;stroke-miterlimit:4;stroke-dasharray:none;stroke-opacity:1"
           d="m 114.28928,140.51053 c -40.617608,-0.0366 -78.999743,-0.0987 -85.293665,-0.13817 l -11.443487,-0.0717 6.15e-4,-0.36757 6.13e-4,-0.36757 57.502196,0.0759 c 31.626198,0.0417 70.008328,0.0832 85.293688,0.0922 l 27.79158,0.0163 -0.001,0.41357 -10e-4,0.41357 z"
           id="path6062-8-6-2-3-4"
           inkscape:connector-curvature="0" />
        <path
           style="opacity:1;fill:#ff6600;fill-opacity:1;stroke:none;stroke-width:0.70115483;stroke-linejoin:bevel;stroke-miterlimit:4;stroke-dasharray:none;stroke-opacity:1"
           d="m 114.24533,142.22226 c -40.617605,-0.0366 -78.99974,-0.0987 -85.293662,-0.13817 l -11.443486,-0.0717 6.15e-4,-0.36757 6.13e-4,-0.36757 57.502194,0.0759 c 31.626216,0.0417 70.008326,0.0832 85.293686,0.0922 l 27.79158,0.0163 -0.001,0.41357 -0.001,0.41357 z"
           id="path6062-8-6-8-4-1-2"
           inkscape:connector-curvature="0" />
        <path
           style="opacity:1;fill:#ff6600;fill-opacity:1;stroke:none;stroke-width:0.70115483;stroke-linejoin:bevel;stroke-miterlimit:4;stroke-dasharray:none;stroke-opacity:1"
           d="m 114.27421,143.84262 c -40.617614,-0.0366 -78.999748,-0.0987 -85.29367,-0.13817 l -11.443486,-0.0717 6.15e-4,-0.36757 6.13e-4,-0.36757 57.502194,0.0759 c 31.626214,0.0417 70.008334,0.0832 85.293704,0.0922 l 27.79157,0.0163 -0.001,0.41357 -0.001,0.41357 z"
           id="path6062-8-6-8-1-9-8-7"
           inkscape:connector-curvature="0" />
        <path
           style="opacity:1;fill:#ff6600;fill-opacity:1;stroke:none;stroke-width:0.70115483;stroke-linejoin:bevel;stroke-miterlimit:4;stroke-dasharray:none;stroke-opacity:1"
           d="m 114.41631,145.41804 c -40.617611,-0.0366 -78.999745,-0.0987 -85.293667,-0.13817 l -11.443487,-0.0717 6.15e-4,-0.36757 6.13e-4,-0.36757 57.502197,0.0759 c 31.626209,0.0417 70.008329,0.0832 85.293689,0.0922 l 27.79159,0.0163 -0.001,0.41357 -0.001,0.41357 z"
           id="path6062-8-6-20"
           inkscape:connector-curvature="0" />
        <path
           style="opacity:1;fill:#ff6600;fill-opacity:1;stroke:none;stroke-width:0.70115483;stroke-linejoin:bevel;stroke-miterlimit:4;stroke-dasharray:none;stroke-opacity:1"
           d="m 114.37236,147.12977 c -40.617609,-0.0366 -78.999742,-0.0987 -85.293664,-0.13817 l -11.443486,-0.0717 6.15e-4,-0.36757 6.13e-4,-0.36757 57.502193,0.0759 c 31.626219,0.0417 70.008339,0.0832 85.293699,0.0922 l 27.79158,0.0163 -10e-4,0.41357 -0.001,0.41357 z"
           id="path6062-8-6-8-6"
           inkscape:connector-curvature="0" />
        <path
           style="opacity:1;fill:#ff6600;fill-opacity:1;stroke:none;stroke-width:0.70115483;stroke-linejoin:bevel;stroke-miterlimit:4;stroke-dasharray:none;stroke-opacity:1"
           d="m 114.40124,148.75013 c -40.617615,-0.0366 -78.99975,-0.0987 -85.293672,-0.13817 l -11.443486,-0.0717 6.15e-4,-0.36757 6.13e-4,-0.36757 57.502195,0.0759 c 31.626225,0.0417 70.008335,0.0832 85.293705,0.0922 l 27.79158,0.0163 -0.001,0.41357 -0.001,0.41357 z"
           id="path6062-8-6-8-1-10"
           inkscape:connector-curvature="0" />
        <path
           style="opacity:1;fill:#ff6600;fill-opacity:1;stroke:none;stroke-width:0.70115483;stroke-linejoin:bevel;stroke-miterlimit:4;stroke-dasharray:none;stroke-opacity:1"
           d="m 114.32872,150.43863 c -40.617614,-0.0366 -78.999751,-0.0987 -85.293673,-0.13817 l -11.443487,-0.0717 6.15e-4,-0.36757 6.13e-4,-0.36757 57.502194,0.0759 c 31.626208,0.0417 70.008338,0.0832 85.293698,0.0922 l 27.79158,0.0163 -0.001,0.41357 -0.001,0.41357 z"
           id="path6062-8-6-2-32"
           inkscape:connector-curvature="0" />
        <path
           style="opacity:1;fill:#ff6600;fill-opacity:1;stroke:none;stroke-width:0.70115483;stroke-linejoin:bevel;stroke-miterlimit:4;stroke-dasharray:none;stroke-opacity:1"
           d="m 114.28477,152.15036 c -40.617612,-0.0366 -78.999748,-0.0987 -85.29367,-0.13817 l -11.443486,-0.0717 6.15e-4,-0.36757 6.13e-4,-0.36757 57.502193,0.0759 c 31.626225,0.0417 70.008335,0.0832 85.293695,0.0922 l 27.79158,0.0163 -0.001,0.41357 -0.001,0.41357 z"
           id="path6062-8-6-8-4-66"
           inkscape:connector-curvature="0" />
        <path
           style="opacity:1;fill:#ff6600;fill-opacity:1;stroke:none;stroke-width:0.70115483;stroke-linejoin:bevel;stroke-miterlimit:4;stroke-dasharray:none;stroke-opacity:1"
           d="m 114.31365,153.77072 c -40.61762,-0.0366 -78.999756,-0.0987 -85.293678,-0.13817 l -11.443486,-0.0717 6.15e-4,-0.36757 6.13e-4,-0.36757 57.502192,0.0759 c 31.626224,0.0417 70.008344,0.0832 85.293714,0.0922 l 27.79157,0.0163 -0.001,0.41357 -0.001,0.41357 z"
           id="path6062-8-6-8-1-9-6"
           inkscape:connector-curvature="0" />
        <path
           style="opacity:1;fill:#ff6600;fill-opacity:1;stroke:none;stroke-width:0.70115483;stroke-linejoin:bevel;stroke-miterlimit:4;stroke-dasharray:none;stroke-opacity:1"
           d="m 114.34582,155.37449 c -40.617609,-0.0366 -78.999744,-0.0987 -85.293666,-0.13817 l -11.443487,-0.0717 6.15e-4,-0.36757 6.13e-4,-0.36757 57.502195,0.0759 c 31.62621,0.0417 70.00833,0.0832 85.29369,0.0922 l 27.79159,0.0163 -0.001,0.41357 -0.001,0.41357 z"
           id="path6062-8-6-9-4"
           inkscape:connector-curvature="0" />
        <path
           style="opacity:1;fill:#ff6600;fill-opacity:1;stroke:none;stroke-width:0.70115483;stroke-linejoin:bevel;stroke-miterlimit:4;stroke-dasharray:none;stroke-opacity:1"
           d="m 114.30187,157.08622 c -40.617606,-0.0366 -78.999741,-0.0987 -85.293663,-0.13817 l -11.443486,-0.0717 6.15e-4,-0.36757 6.13e-4,-0.36757 57.502194,0.0759 c 31.626217,0.0417 70.008337,0.0832 85.293697,0.0922 l 27.79158,0.0163 -0.001,0.41357 -0.001,0.41357 z"
           id="path6062-8-6-8-7-8"
           inkscape:connector-curvature="0" />
        <path
           style="opacity:1;fill:#ff6600;fill-opacity:1;stroke:none;stroke-width:0.70115483;stroke-linejoin:bevel;stroke-miterlimit:4;stroke-dasharray:none;stroke-opacity:1"
           d="m 114.33075,158.70658 c -40.617612,-0.0366 -78.999749,-0.0987 -85.293671,-0.13817 l -11.443486,-0.0717 6.15e-4,-0.36757 6.13e-4,-0.36757 57.502193,0.0759 c 31.626226,0.0417 70.008336,0.0832 85.293706,0.0922 l 27.79158,0.0163 -0.001,0.41357 -0.001,0.41357 z"
           id="path6062-8-6-8-1-1-5"
           inkscape:connector-curvature="0" />
        <path
           style="opacity:1;fill:#ff6600;fill-opacity:1;stroke:none;stroke-width:0.70115483;stroke-linejoin:bevel;stroke-miterlimit:4;stroke-dasharray:none;stroke-opacity:1"
           d="m 114.25823,160.39508 c -40.617615,-0.0366 -78.99975,-0.0987 -85.293672,-0.13817 l -11.443487,-0.0717 6.15e-4,-0.36757 6.13e-4,-0.36757 57.502196,0.0759 c 31.626205,0.0417 70.008335,0.0832 85.293695,0.0922 l 27.79158,0.0163 -0.001,0.41357 -0.001,0.41357 z"
           id="path6062-8-6-2-3-2"
           inkscape:connector-curvature="0" />
        <path
           style="opacity:1;fill:#ff6600;fill-opacity:1;stroke:none;stroke-width:0.70115483;stroke-linejoin:bevel;stroke-miterlimit:4;stroke-dasharray:none;stroke-opacity:1"
           d="m 114.21428,162.10681 c -40.617612,-0.0366 -78.999747,-0.0987 -85.293669,-0.13817 l -11.443486,-0.0717 6.15e-4,-0.36757 6.13e-4,-0.36757 57.502194,0.0759 c 31.626223,0.0417 70.008333,0.0832 85.293693,0.0922 l 27.79158,0.0163 -0.001,0.41357 -0.001,0.41357 z"
           id="path6062-8-6-8-4-1-4"
           inkscape:connector-curvature="0" />
        <path
           style="opacity:1;fill:#ff6600;fill-opacity:1;stroke:none;stroke-width:0.70115483;stroke-linejoin:bevel;stroke-miterlimit:4;stroke-dasharray:none;stroke-opacity:1"
           d="m 114.24316,163.72717 c -40.617621,-0.0366 -78.999755,-0.0987 -85.293677,-0.13817 l -11.443486,-0.0717 6.15e-4,-0.36757 6.13e-4,-0.36757 57.502194,0.0759 c 31.626221,0.0417 70.008341,0.0832 85.293711,0.0922 l 27.79157,0.0163 -10e-4,0.41357 -0.001,0.41357 z"
           id="path6062-8-6-8-1-9-8-9"
           inkscape:connector-curvature="0" />
        <path
           style="opacity:1;fill:#ff6600;fill-opacity:1;stroke:none;stroke-width:0.70115483;stroke-linejoin:bevel;stroke-miterlimit:4;stroke-dasharray:none;stroke-opacity:1"
           d="m 114.37537,165.295 c -40.617612,-0.0366 -78.999746,-0.0987 -85.293668,-0.13817 l -11.443487,-0.0717 6.15e-4,-0.36757 6.13e-4,-0.36757 57.502197,0.0759 c 31.62621,0.0417 70.00833,0.0832 85.29369,0.0922 l 27.79158,0.0163 -0.001,0.41357 -0.001,0.41357 z"
           id="path6062-8-6-5"
           inkscape:connector-curvature="0" />
        <path
           style="opacity:1;fill:#ff6600;fill-opacity:1;stroke:none;stroke-width:0.70115483;stroke-linejoin:bevel;stroke-miterlimit:4;stroke-dasharray:none;stroke-opacity:1"
           d="m 114.33142,167.00673 c -40.61761,-0.0366 -78.999743,-0.0987 -85.293665,-0.13817 l -11.443486,-0.0717 6.15e-4,-0.36757 6.13e-4,-0.36757 57.502193,0.0759 c 31.62622,0.0417 70.00834,0.0832 85.2937,0.0922 l 27.79157,0.0163 -0.001,0.41357 -0.001,0.41357 z"
           id="path6062-8-6-8-2"
           inkscape:connector-curvature="0" />
        <path
           style="opacity:1;fill:#ff6600;fill-opacity:1;stroke:none;stroke-width:0.70115483;stroke-linejoin:bevel;stroke-miterlimit:4;stroke-dasharray:none;stroke-opacity:1"
           d="m 114.3603,168.62709 c -40.617616,-0.0366 -78.999751,-0.0987 -85.293673,-0.13817 l -11.443486,-0.0717 6.15e-4,-0.36757 6.13e-4,-0.36757 57.502195,0.0759 c 31.626226,0.0417 70.008336,0.0832 85.293706,0.0922 l 27.79157,0.0163 -0.001,0.41357 -10e-4,0.41357 z"
           id="path6062-8-6-8-1-5"
           inkscape:connector-curvature="0" />
        <path
           style="opacity:1;fill:#ff6600;fill-opacity:1;stroke:none;stroke-width:0.70115483;stroke-linejoin:bevel;stroke-miterlimit:4;stroke-dasharray:none;stroke-opacity:1"
           d="m 114.28778,170.31559 c -40.617615,-0.0366 -78.999752,-0.0987 -85.293674,-0.13817 l -11.443487,-0.0717 6.15e-4,-0.36757 6.13e-4,-0.36757 57.502194,0.0759 c 31.626209,0.0417 70.008339,0.0832 85.293699,0.0922 l 27.79157,0.0163 -0.001,0.41357 -10e-4,0.41357 z"
           id="path6062-8-6-2-2"
           inkscape:connector-curvature="0" />
        <path
           style="opacity:1;fill:#ff6600;fill-opacity:1;stroke:none;stroke-width:0.70115483;stroke-linejoin:bevel;stroke-miterlimit:4;stroke-dasharray:none;stroke-opacity:1"
           d="m 114.24383,172.02732 c -40.617613,-0.0366 -78.999749,-0.0987 -85.293671,-0.13817 l -11.443486,-0.0717 6.15e-4,-0.36757 6.13e-4,-0.36757 57.502193,0.0759 c 31.626226,0.0417 70.008336,0.0832 85.293696,0.0922 l 27.79157,0.0163 -0.001,0.41357 -0.001,0.41357 z"
           id="path6062-8-6-8-4-9"
           inkscape:connector-curvature="0" />
        <path
           style="opacity:1;fill:#ff6600;fill-opacity:1;stroke:none;stroke-width:0.70115483;stroke-linejoin:bevel;stroke-miterlimit:4;stroke-dasharray:none;stroke-opacity:1"
           d="m 114.27271,173.64768 c -40.617621,-0.0366 -78.999757,-0.0987 -85.293679,-0.13817 l -11.443486,-0.0717 6.15e-4,-0.36757 6.13e-4,-0.36757 57.502192,0.0759 c 31.626225,0.0417 70.008345,0.0832 85.293715,0.0922 l 27.79156,0.0163 -10e-4,0.41357 -0.001,0.41357 z"
           id="path6062-8-6-8-1-9-2"
           inkscape:connector-curvature="0" />
        <path
           style="opacity:1;fill:#ff6600;fill-opacity:1;stroke:none;stroke-width:0.70115483;stroke-linejoin:bevel;stroke-miterlimit:4;stroke-dasharray:none;stroke-opacity:1"
           d="m 114.30488,175.25145 c -40.61761,-0.0366 -78.999745,-0.0987 -85.293667,-0.13817 l -11.443487,-0.0717 6.15e-4,-0.36757 6.13e-4,-0.36757 57.502195,0.0759 c 31.626211,0.0417 70.008331,0.0832 85.293691,0.0922 l 27.79158,0.0163 -0.001,0.41357 -0.001,0.41357 z"
           id="path6062-8-6-9-7"
           inkscape:connector-curvature="0" />
        <path
           style="opacity:1;fill:#ff6600;fill-opacity:1;stroke:none;stroke-width:0.70115483;stroke-linejoin:bevel;stroke-miterlimit:4;stroke-dasharray:none;stroke-opacity:1"
           d="m 114.26093,176.96318 c -40.617607,-0.0366 -78.999742,-0.0987 -85.293664,-0.13817 l -11.443486,-0.0717 6.15e-4,-0.36757 6.13e-4,-0.36757 57.502194,0.0759 c 31.626218,0.0417 70.008338,0.0832 85.293698,0.0922 l 27.79157,0.0163 -0.001,0.41357 -0.001,0.41357 z"
           id="path6062-8-6-8-7-87"
           inkscape:connector-curvature="0" />
        <path
           style="opacity:1;fill:#ff6600;fill-opacity:1;stroke:none;stroke-width:0.70115483;stroke-linejoin:bevel;stroke-miterlimit:4;stroke-dasharray:none;stroke-opacity:1"
           d="m 114.28981,178.58354 c -40.617613,-0.0366 -78.99975,-0.0987 -85.293672,-0.13817 l -11.443486,-0.0717 6.15e-4,-0.36757 6.13e-4,-0.36757 57.502193,0.0759 c 31.626227,0.0417 70.008337,0.0832 85.293707,0.0922 l 27.79157,0.0163 -10e-4,0.41357 -0.001,0.41357 z"
           id="path6062-8-6-8-1-1-7"
           inkscape:connector-curvature="0" />
        <path
           style="opacity:1;fill:#ff6600;fill-opacity:1;stroke:none;stroke-width:0.70115483;stroke-linejoin:bevel;stroke-miterlimit:4;stroke-dasharray:none;stroke-opacity:1"
           d="m 114.21729,180.27204 c -40.617616,-0.0366 -78.999751,-0.0987 -85.293673,-0.13817 l -11.443487,-0.0717 6.15e-4,-0.36757 6.13e-4,-0.36757 57.502196,0.0759 c 31.626206,0.0417 70.008336,0.0832 85.293696,0.0922 l 27.79157,0.0163 -10e-4,0.41357 -0.001,0.41357 z"
           id="path6062-8-6-2-3-0"
           inkscape:connector-curvature="0" />
        <path
           style="opacity:1;fill:#ff6600;fill-opacity:1;stroke:none;stroke-width:0.70115483;stroke-linejoin:bevel;stroke-miterlimit:4;stroke-dasharray:none;stroke-opacity:1"
           d="m 114.17334,181.98377 c -40.617613,-0.0366 -78.999748,-0.0987 -85.29367,-0.13817 l -11.443486,-0.0717 6.15e-4,-0.36757 6.13e-4,-0.36757 57.502194,0.0759 c 31.626224,0.0417 70.008334,0.0832 85.293694,0.0922 l 27.79157,0.0163 -0.001,0.41357 -10e-4,0.41357 z"
           id="path6062-8-6-8-4-1-6"
           inkscape:connector-curvature="0" />
        <path
           style="opacity:1;fill:#ff6600;fill-opacity:1;stroke:none;stroke-width:0.70115483;stroke-linejoin:bevel;stroke-miterlimit:4;stroke-dasharray:none;stroke-opacity:1"
           d="m 114.20222,183.60413 c -40.617622,-0.0366 -78.999756,-0.0987 -85.293678,-0.13817 l -11.443486,-0.0717 6.15e-4,-0.36757 6.13e-4,-0.36757 57.502194,0.0759 c 31.626222,0.0417 70.008342,0.0832 85.293712,0.0922 l 27.79156,0.0163 -0.001,0.41357 -0.001,0.41357 z"
           id="path6062-8-6-8-1-9-8-4"
           inkscape:connector-curvature="0" />
      </g>
    </g>
  </g>
</svg>
