<?xml version="1.0" encoding="UTF-8" standalone="no"?>
<!-- Created with Inkscape (http://www.inkscape.org/) -->

<svg
   xmlns:dc="http://purl.org/dc/elements/1.1/"
   xmlns:cc="http://creativecommons.org/ns#"
   xmlns:rdf="http://www.w3.org/1999/02/22-rdf-syntax-ns#"
   xmlns:svg="http://www.w3.org/2000/svg"
   xmlns="http://www.w3.org/2000/svg"
   xmlns:sodipodi="http://sodipodi.sourceforge.net/DTD/sodipodi-0.dtd"
   xmlns:inkscape="http://www.inkscape.org/namespaces/inkscape"
   width="210mm"
   height="297mm"
   viewBox="0 0 210 297"
   version="1.1"
   id="svg8"
   inkscape:version="0.92.4 (5da689c313, 2019-01-14)"
   sodipodi:docname="Panneau_tsv2.svg">
  <defs
     id="defs2" />
  <sodipodi:namedview
     id="base"
     pagecolor="#ffffff"
     bordercolor="#666666"
     borderopacity="1.0"
     inkscape:pageopacity="0.0"
     inkscape:pageshadow="2"
     inkscape:zoom="0.98994949"
     inkscape:cx="391.08784"
     inkscape:cy="470.79901"
     inkscape:document-units="mm"
     inkscape:current-layer="layer1"
     showgrid="false"
     inkscape:window-width="1920"
     inkscape:window-height="1017"
     inkscape:window-x="-8"
     inkscape:window-y="-8"
     inkscape:window-maximized="1" />
  <metadata
     id="metadata5">
    <rdf:RDF>
      <cc:Work
         rdf:about="">
        <dc:format>image/svg+xml</dc:format>
        <dc:type
           rdf:resource="http://purl.org/dc/dcmitype/StillImage" />
        <dc:title></dc:title>
      </cc:Work>
    </rdf:RDF>
  </metadata>
  <g
     inkscape:label="Calque 1"
     inkscape:groupmode="layer"
     id="layer1">
    <g
       id="g823"
       transform="matrix(0.45860728,0,0,0.26458333,6.1914748,121.07868)">
      <path
         inkscape:connector-curvature="0"
         id="path6286"
         d="M 3.7632695,303.5709 C 3.1930678,303.42093 2.2404906,302.22036 1.6464313,300.90297 L 0.56632335,298.50772 5.4031615,285.45488 10.24,272.40204 V 139.59604 6.7900405 L 11.959738,4.9950203 13.679476,3.2000001 H 191.15973 368.63999 V 136.62765 270.05531 l 6.39389,13.89836 c 4.74744,10.31949 6.18946,14.03668 5.6,14.43555 -0.71756,0.48555 -4.78011,0.23791 -5.34375,-0.32574 -0.1272,-0.12719 -2.35065,-4.81951 -4.94102,-10.42737 l -4.70976,-10.1961 H 190.68387 15.728377 l -4.824188,13.07011 c -2.6533041,7.18856 -5.1121892,13.12936 -5.4641891,13.20177 -0.352,0.0724 -1.1065287,0.009 -1.6767304,-0.14099 z m 6.1295539,-13.91931 c 2.5656766,-6.89563 4.3398636,-12.52972 3.9449186,-12.52745 -0.797132,0.004 -10.0136952,24.3289 -9.5326228,25.15845 0.1666798,0.28742 0.4430017,0.38263 0.6140487,0.21158 0.1710471,-0.17104 2.4091922,-5.95021 4.9736555,-12.84258 z M 374.32754,285.51246 c -2.90156,-6.36778 -5.41337,-11.43996 -5.58181,-11.27152 -0.16844,0.16843 2.08798,5.49602 5.01426,11.83907 2.92628,6.34305 5.43809,11.41524 5.5818,11.27153 0.14372,-0.14372 -2.1127,-5.4713 -5.01425,-11.83908 z m -12.72755,-10.31245 c 0,-0.4251 -58.56,-0.64 -174.39999,-0.64 -115.840002,0 -174.4,0.2149 -174.4,0.64 0,0.4251 58.559998,0.64 174.4,0.64 115.83999,0 174.39999,-0.2149 174.39999,-0.64 z M 12.8,139.80223 C 12.8,51.720745 12.58461,7.0400002 12.16,7.0400002 c -0.424616,0 -0.64,44.8125918 -0.64,133.1577798 0,88.60887 0.214116,133.02544 0.64,132.76223 0.423339,-0.26164 0.64,-45.33998 0.64,-133.15778 z m 349.75999,132.83778 c 0.26332,-0.42607 -57.7941,-0.64 -173.68446,-0.64 -115.362962,0 -174.213404,0.21587 -174.47553,0.64 -0.263325,0.42607 57.794097,0.64 173.68446,0.64 115.36296,0 174.21341,-0.21587 174.47553,-0.64 z m 0.32,-1.46251 c 0,-0.10038 -2.71766,-6.07638 -6.03925,-13.28 -5.70138,-12.36475 -5.96812,-13.13062 -4.76773,-13.68969 2.70183,-1.25836 4.56125,0.25585 7.40743,6.0322 l 2.68045,5.44 0.19955,-123.36002 0.19955,-123.360014 H 189.44 16.32 l 0.206825,122.720014 c 0.171071,101.50564 0.350451,122.33279 1.037671,120.48002 0.456965,-1.232 1.29035,-3.33233 1.851967,-4.66741 1.018722,-2.42169 1.025519,-2.42512 2.892942,-1.45944 3.632936,1.87866 3.624814,3.79324 -0.05901,13.91032 -2.2734,6.24356 -3.636346,9.12959 -4.406634,9.33102 -0.61337,0.16041 -1.270101,0.69526 -1.459403,1.18857 -0.294667,0.76789 24.607097,0.89694 173.075722,0.89694 95.38095,0 173.41991,-0.0821 173.41991,-0.18251 z m 1.92,-131.93972 c 0,-86.964466 -0.21669,-131.6161618 -0.64,-131.8777798 -0.42587,-0.2632057 -0.64,43.7266888 -0.64,131.4822298 0,87.49185 0.21541,131.87778 0.64,131.87778 0.42459,0 0.64,-44.25408 0.64,-131.48223 z m -5.43722,113.28303 c -1.60697,-3.46233 -3.09772,-6.11919 -3.31278,-5.90414 -0.21506,0.21506 1.01772,3.4568 2.7395,7.20386 1.72177,3.74707 3.21253,6.40393 3.31278,5.90414 0.10025,-0.49978 -1.13252,-3.74152 -2.7395,-7.20386 z m -336.629,2.15774 c 1.142296,-3.43913 0.831829,-5.26142 -0.362432,-2.1273 -0.919836,2.41394 -1.504758,5.36876 -1.062773,5.36876 0.191711,0 0.833053,-1.45866 1.425205,-3.24146 z m 331.90435,-6.15054 c -0.75446,-1.29742 -0.93665,-0.88215 -0.31906,0.72726 0.21948,0.57196 0.53388,0.90512 0.69866,0.74034 0.16478,-0.16478 -0.006,-0.8252 -0.3796,-1.4676 z M 22.767142,247.82477 c -1.105761,-1.05614 -1.122928,-1.03898 -0.390051,0.39005 0.421638,0.82215 0.942138,1.31929 1.156666,1.10477 0.214528,-0.21453 -0.130448,-0.8872 -0.766615,-1.49482 z m 332.432848,-2.31629 c 0,-0.13834 -0.44696,-0.42304 -0.99324,-0.63267 -0.56955,-0.21855 -0.82645,-0.11126 -0.60223,0.25153 0.37585,0.60813 1.59547,0.89948 1.59547,0.38114 z m 8,-240.3884798 C 363.46331,4.6939347 305.60664,4.4800001 190.11777,4.4800001 74.892587,4.4800001 16.64,4.6949075 16.64,5.1200002 c 0,0.8874572 346.01151,0.8874572 346.55999,0 z"
         style="fill:#5779b6;fill-opacity:1;stroke-width:0.63999999" />
      <rect
         y="8.9599762"
         x="16.32"
         height="262.21753"
         width="346.56"
         id="rect6288"
         style="opacity:1;fill:#cd7330;fill-opacity:0.58039216;stroke:none;stroke-width:7.55905533;stroke-linejoin:bevel;stroke-miterlimit:4;stroke-dasharray:none;stroke-opacity:1" />
    </g>
  </g>
</svg>
