<svg width="104.386" height="139.5" viewBox="0 0 104.386 139.5" xmlns="http://www.w3.org/2000/svg" xmlns:xlink="http://www.w3.org/1999/xlink" overflow="hidden"><g><g id="wood_frame"><g><g><linearGradient x1="17.77" y1="69.749" x2="86.6196" y2="69.749" gradientUnits="userSpaceOnUse" id="SVGID_1_" gradientTransform="matrix(2.98542e-08 -1.1547 -0.866 -0.5 112.597 164.893)"><stop offset="0" stop-color="#C19068"/><stop offset="0.2022" stop-color="#E8CDAF"/><stop offset="0.4438" stop-color="#D3B08D"/><stop offset="0.691" stop-color="#B8895E"/><stop offset="0.8539" stop-color="#E8D1B6"/><stop offset="1" stop-color="#B08258"/></linearGradient><path d="M104.155 139.5 0.233 79.5 0.232 0 104.155 60 104.155 139.5ZM1.963 2.987 1.962 78.512 102.422 136.512 102.422 60.987 1.963 2.987Z" stroke="#548235"/></g></g></g><g id="Layer_4"><line x1="104.154" y1="136.021" x2="0.231" y2="76.021" stroke="#548235" stroke-width="0.9277" stroke-miterlimit="10" fill="none"/><line x1="104.154" y1="132.047" x2="0.231" y2="72.047" stroke="#548235" stroke-width="0.9277" stroke-miterlimit="10" fill="none"/><line x1="104.154" y1="124.097" x2="0.231" y2="64.097" stroke="#548235" stroke-width="0.9277" stroke-miterlimit="10" fill="none"/><line x1="104.154" y1="128.071" x2="0.231" y2="68.071" stroke="#548235" stroke-width="0.9277" stroke-miterlimit="10" fill="none"/><line x1="104.154" y1="120.121" x2="0.231" y2="60.121" stroke="#548235" stroke-width="0.9277" stroke-miterlimit="10" fill="none"/><line x1="104.154" y1="116.146" x2="0.231" y2="56.146" stroke="#548235" stroke-width="0.9277" stroke-miterlimit="10" fill="none"/><line x1="104.154" y1="108.195" x2="0.231" y2="48.195" stroke="#548235" stroke-width="0.9277" stroke-miterlimit="10" fill="none"/><line x1="104.154" y1="112.172" x2="0.231" y2="52.172" stroke="#548235" stroke-width="0.9277" stroke-miterlimit="10" fill="none"/><line x1="104.154" y1="120.121" x2="0.231" y2="60.121" stroke="#548235" stroke-width="0.9277" stroke-miterlimit="10" fill="none"/><line x1="104.154" y1="116.146" x2="0.231" y2="56.146" stroke="#548235" stroke-width="0.9277" stroke-miterlimit="10" fill="none"/><line x1="104.154" y1="108.195" x2="0.231" y2="48.195" stroke="#548235" stroke-width="0.9277" stroke-miterlimit="10" fill="none"/><line x1="104.154" y1="112.172" x2="0.231" y2="52.172" stroke="#548235" stroke-width="0.9277" stroke-miterlimit="10" fill="none"/><line x1="104.154" y1="120.121" x2="0.231" y2="60.121" stroke="#548235" stroke-width="0.9277" stroke-miterlimit="10" fill="none"/><line x1="104.154" y1="116.146" x2="0.231" y2="56.146" stroke="#548235" stroke-width="0.9277" stroke-miterlimit="10" fill="none"/><line x1="104.154" y1="108.195" x2="0.231" y2="48.195" stroke="#548235" stroke-width="0.9277" stroke-miterlimit="10" fill="none"/><line x1="104.154" y1="112.172" x2="0.231" y2="52.172" stroke="#548235" stroke-width="0.9277" stroke-miterlimit="10" fill="none"/><line x1="104.154" y1="104.222" x2="0.231" y2="44.222" stroke="#548235" stroke-width="0.9277" stroke-miterlimit="10" fill="none"/><line x1="104.154" y1="100.246" x2="0.231" y2="40.246" stroke="#548235" stroke-width="0.9277" stroke-miterlimit="10" fill="none"/><line x1="104.154" y1="92.296" x2="0.231" y2="32.296" stroke="#548235" stroke-width="0.9277" stroke-miterlimit="10" fill="none"/><line x1="104.154" y1="96.271" x2="0.231" y2="36.271" stroke="#548235" stroke-width="0.9277" stroke-miterlimit="10" fill="none"/><line x1="104.154" y1="88.321" x2="0.231" y2="28.32" stroke="#548235" stroke-width="0.9277" stroke-miterlimit="10" fill="none"/><line x1="104.154" y1="84.346" x2="0.231" y2="24.346" stroke="#548235" stroke-width="0.9277" stroke-miterlimit="10" fill="none"/><line x1="104.154" y1="76.396" x2="0.231" y2="16.396" stroke="#548235" stroke-width="0.9277" stroke-miterlimit="10" fill="none"/><line x1="104.154" y1="80.371" x2="0.231" y2="20.371" stroke="#548235" stroke-width="0.9277" stroke-miterlimit="10" fill="none"/><line x1="104.154" y1="72.422" x2="0.231" y2="12.422" stroke="#548235" stroke-width="0.9277" stroke-miterlimit="10" fill="none"/><line x1="104.154" y1="68.446" x2="0.231" y2="8.446" stroke="#548235" stroke-width="0.9277" stroke-miterlimit="10" fill="none"/><line x1="104.154" y1="60.496" x2="0.231" y2="0.496" stroke="#548235" stroke-width="0.9277" stroke-miterlimit="10" fill="none"/><line x1="104.154" y1="64.471" x2="0.231" y2="4.471" stroke="#548235" stroke-width="0.9277" stroke-miterlimit="10" fill="none"/><line x1="37.903" y1="101.25" x2="37.903" y2="21.749" stroke="#548235" stroke-width="0.9277" stroke-miterlimit="10" fill="none"/><line x1="41.367" y1="103.25" x2="41.368" y2="23.749" stroke="#548235" stroke-width="0.9277" stroke-miterlimit="10" fill="none"/><line x1="48.295" y1="107.25" x2="48.295" y2="27.749" stroke="#548235" stroke-width="0.9277" stroke-miterlimit="10" fill="none"/><line x1="44.831" y1="105.25" x2="44.831" y2="25.749" stroke="#548235" stroke-width="0.9277" stroke-miterlimit="10" fill="none"/><line x1="51.759" y1="109.25" x2="51.759" y2="29.749" stroke="#548235" stroke-width="0.9277" stroke-miterlimit="10" fill="none"/><line x1="55.223" y1="111.25" x2="55.223" y2="31.749" stroke="#548235" stroke-width="0.9277" stroke-miterlimit="10" fill="none"/><line x1="62.152" y1="115.25" x2="62.152" y2="35.749" stroke="#548235" stroke-width="0.9277" stroke-miterlimit="10" fill="none"/><line x1="58.688" y1="113.25" x2="58.688" y2="33.749" stroke="#548235" stroke-width="0.9277" stroke-miterlimit="10" fill="none"/><line x1="51.759" y1="109.25" x2="51.759" y2="29.749" stroke="#548235" stroke-width="0.9277" stroke-miterlimit="10" fill="none"/><line x1="55.223" y1="111.25" x2="55.223" y2="31.749" stroke="#548235" stroke-width="0.9277" stroke-miterlimit="10" fill="none"/><line x1="62.152" y1="115.25" x2="62.152" y2="35.749" stroke="#548235" stroke-width="0.9277" stroke-miterlimit="10" fill="none"/><line x1="58.688" y1="113.25" x2="58.688" y2="33.749" stroke="#548235" stroke-width="0.9277" stroke-miterlimit="10" fill="none"/><line x1="51.759" y1="109.25" x2="51.759" y2="29.749" stroke="#548235" stroke-width="0.9277" stroke-miterlimit="10" fill="none"/><line x1="55.223" y1="111.25" x2="55.223" y2="31.749" stroke="#548235" stroke-width="0.9277" stroke-miterlimit="10" fill="none"/><line x1="62.152" y1="115.25" x2="62.152" y2="35.749" stroke="#548235" stroke-width="0.9277" stroke-miterlimit="10" fill="none"/><line x1="58.688" y1="113.25" x2="58.688" y2="33.749" stroke="#548235" stroke-width="0.9277" stroke-miterlimit="10" fill="none"/><line x1="65.616" y1="117.25" x2="65.616" y2="37.749" stroke="#548235" stroke-width="0.9277" stroke-miterlimit="10" fill="none"/><line x1="69.081" y1="119.25" x2="69.081" y2="39.749" stroke="#548235" stroke-width="0.9277" stroke-miterlimit="10" fill="none"/><line x1="76.008" y1="123.25" x2="76.008" y2="43.749" stroke="#548235" stroke-width="0.9277" stroke-miterlimit="10" fill="none"/><line x1="72.543" y1="121.25" x2="72.543" y2="41.749" stroke="#548235" stroke-width="0.9277" stroke-miterlimit="10" fill="none"/><line x1="79.472" y1="125.25" x2="79.472" y2="45.749" stroke="#548235" stroke-width="0.9277" stroke-miterlimit="10" fill="none"/><line x1="82.936" y1="127.25" x2="82.936" y2="47.749" stroke="#548235" stroke-width="0.9277" stroke-miterlimit="10" fill="none"/><line x1="89.865" y1="131.25" x2="89.864" y2="51.749" stroke="#548235" stroke-width="0.9277" stroke-miterlimit="10" fill="none"/><line x1="86.401" y1="129.25" x2="86.401" y2="49.749" stroke="#548235" stroke-width="0.9277" stroke-miterlimit="10" fill="none"/><line x1="93.329" y1="133.25" x2="93.329" y2="53.749" stroke="#548235" stroke-width="0.9277" stroke-miterlimit="10" fill="none"/><line x1="96.793" y1="135.25" x2="96.792" y2="55.749" stroke="#548235" stroke-width="0.9277" stroke-miterlimit="10" fill="none"/><line x1="103.721" y1="139.25" x2="103.721" y2="59.749" stroke="#548235" stroke-width="0.9277" stroke-miterlimit="10" fill="none"/><line x1="100.256" y1="137.25" x2="100.256" y2="57.749" stroke="#548235" stroke-width="0.9277" stroke-miterlimit="10" fill="none"/><line x1="10.19" y1="85.25" x2="10.19" y2="5.749" stroke="#548235" stroke-width="0.9277" stroke-miterlimit="10" fill="none"/><line x1="6.725" y1="83.25" x2="6.726" y2="3.749" stroke="#548235" stroke-width="0.9277" stroke-miterlimit="10" fill="none"/><line x1="3.262" y1="81.25" x2="3.262" y2="1.749" stroke="#548235" stroke-width="0.9277" stroke-miterlimit="10" fill="none"/><line x1="13.654" y1="87.25" x2="13.655" y2="7.749" stroke="#548235" stroke-width="0.9277" stroke-miterlimit="10" fill="none"/><line x1="20.583" y1="91.25" x2="20.583" y2="11.749" stroke="#548235" stroke-width="0.9277" stroke-miterlimit="10" fill="none"/><line x1="17.118" y1="89.25" x2="17.118" y2="9.749" stroke="#548235" stroke-width="0.9277" stroke-miterlimit="10" fill="none"/><line x1="27.51" y1="95.25" x2="27.51" y2="15.749" stroke="#548235" stroke-width="0.9277" stroke-miterlimit="10" fill="none"/><line x1="34.438" y1="99.25" x2="34.439" y2="19.749" stroke="#548235" stroke-width="0.9277" stroke-miterlimit="10" fill="none"/><line x1="30.975" y1="97.25" x2="30.975" y2="17.749" stroke="#548235" stroke-width="0.9277" stroke-miterlimit="10" fill="none"/><line x1="24.046" y1="93.25" x2="24.046" y2="13.749" stroke="#548235" stroke-width="0.9277" stroke-miterlimit="10" fill="none"/><line x1="27.51" y1="95.25" x2="27.51" y2="15.749" stroke="#548235" stroke-width="0.9277" stroke-miterlimit="10" fill="none"/><line x1="34.438" y1="99.25" x2="34.439" y2="19.749" stroke="#548235" stroke-width="0.9277" stroke-miterlimit="10" fill="none"/><line x1="30.975" y1="97.25" x2="30.975" y2="17.749" stroke="#548235" stroke-width="0.9277" stroke-miterlimit="10" fill="none"/><line x1="24.046" y1="93.25" x2="24.046" y2="13.749" stroke="#548235" stroke-width="0.9277" stroke-miterlimit="10" fill="none"/><line x1="34.438" y1="99.25" x2="34.439" y2="19.749" stroke="#548235" stroke-width="0.9277" stroke-miterlimit="10" fill="none"/><line x1="30.975" y1="97.25" x2="30.975" y2="17.749" stroke="#548235" stroke-width="0.9277" stroke-miterlimit="10" fill="none"/></g></g></svg>