<?xml version="1.0" encoding="UTF-8" standalone="no"?>
<!-- Created with Inkscape (http://www.inkscape.org/) -->

<svg
   xmlns:dc="http://purl.org/dc/elements/1.1/"
   xmlns:cc="http://creativecommons.org/ns#"
   xmlns:rdf="http://www.w3.org/1999/02/22-rdf-syntax-ns#"
   xmlns:svg="http://www.w3.org/2000/svg"
   xmlns="http://www.w3.org/2000/svg"
   xmlns:sodipodi="http://sodipodi.sourceforge.net/DTD/sodipodi-0.dtd"
   xmlns:inkscape="http://www.inkscape.org/namespaces/inkscape"
   width="210mm"
   height="297mm"
   viewBox="0 0 210 297"
   version="1.1"
   id="svg8"
   sodipodi:docname="Panneau_tsv2.svg"
   inkscape:version="0.92.4 (5da689c313, 2019-01-14)">
  <defs
     id="defs2" />
  <sodipodi:namedview
     id="base"
     pagecolor="#ffffff"
     bordercolor="#666666"
     borderopacity="1.0"
     inkscape:pageopacity="0.0"
     inkscape:pageshadow="2"
     inkscape:zoom="0.7"
     inkscape:cx="541.8715"
     inkscape:cy="457.55325"
     inkscape:document-units="mm"
     inkscape:current-layer="layer1"
     showgrid="false"
     inkscape:window-width="1920"
     inkscape:window-height="1017"
     inkscape:window-x="-8"
     inkscape:window-y="-8"
     inkscape:window-maximized="1" />
  <metadata
     id="metadata5">
    <rdf:RDF>
      <cc:Work
         rdf:about="">
        <dc:format>image/svg+xml</dc:format>
        <dc:type
           rdf:resource="http://purl.org/dc/dcmitype/StillImage" />
        <dc:title></dc:title>
      </cc:Work>
    </rdf:RDF>
  </metadata>
  <g
     inkscape:label="Calque 1"
     inkscape:groupmode="layer"
     id="layer1">
    <g
       id="g970"
       transform="matrix(-1,0,0,1,206.43036,0)">
      <g
         transform="matrix(0.13695943,-0.45927999,8.0821091e-4,1.0579284,89.254341,58.581985)"
         id="g890">
        <path
           style="fill:#5779b6;fill-opacity:1;stroke-width:0.16933332"
           d="m 57.009185,186.03049 c -0.150865,-0.0397 -0.402902,-0.35733 -0.56008,-0.70589 l -0.285778,-0.63374 1.279746,-3.45357 1.279747,-3.45356 v -35.13825 -35.13826 l 0.455014,-0.47493 0.455014,-0.47493 h 46.958312 46.95832 v 35.30273 35.30273 l 1.69172,3.67728 c 1.25609,2.73036 1.63763,3.71387 1.48167,3.8194 -0.18986,0.12847 -1.26474,0.063 -1.41387,-0.0862 -0.0337,-0.0336 -0.62194,-1.27516 -1.30731,-2.75891 l -1.24613,-2.69772 h -46.2903 -46.290307 l -1.276399,3.45813 c -0.70202,1.90198 -1.3526,3.47381 -1.445734,3.49297 -0.09313,0.0192 -0.292769,0.002 -0.443635,-0.0373 z m 1.621778,-3.68282 c 0.678835,-1.82447 1.148256,-3.31515 1.04376,-3.31455 -0.210908,0.001 -2.649457,6.43702 -2.522173,6.6565 0.0441,0.0761 0.117211,0.10124 0.162467,0.056 0.04526,-0.0453 0.637432,-1.57432 1.315946,-3.39793 z m 96.423347,-1.09514 c -0.7677,-1.68481 -1.43228,-3.02683 -1.47685,-2.98226 -0.0446,0.0446 0.55244,1.45416 1.32669,3.13242 0.77424,1.67827 1.43883,3.02028 1.47685,2.98226 0.038,-0.038 -0.55898,-1.44761 -1.32669,-3.13242 z m -3.36749,-2.7285 c 0,-0.11248 -15.494,-0.16934 -46.14333,-0.16934 -30.649337,0 -46.143336,0.0569 -46.143336,0.16934 0,0.11247 15.493999,0.16933 46.143336,0.16933 30.64933,0 46.14333,-0.0569 46.14333,-0.16933 z m -92.286666,-35.824 c 0,-23.30489 -0.05699,-35.12667 -0.169334,-35.12667 -0.112346,0 -0.169333,11.85666 -0.169333,35.23133 0,23.44443 0.05665,35.19631 0.169333,35.12667 0.112009,-0.0692 0.169334,-11.9962 0.169334,-35.23133 z m 92.540666,35.14666 c 0.0697,-0.11273 -15.29136,-0.16933 -45.95402,-0.16933 -30.523113,0 -46.093959,0.0571 -46.163313,0.16933 -0.06967,0.11273 15.291355,0.16934 45.954013,0.16934 30.52312,0 46.09396,-0.0571 46.16332,-0.16934 z m 0.0847,-0.38695 c 0,-0.0266 -0.71904,-1.60771 -1.59788,-3.51367 -1.50849,-3.27151 -1.57907,-3.47414 -1.26146,-3.62206 0.71486,-0.33295 1.20683,0.0677 1.95988,1.59602 l 0.7092,1.43933 0.0528,-32.63901 0.0528,-32.639 H 106.13615 60.331487 l 0.05472,32.46967 c 0.04526,26.8567 0.09272,32.36722 0.274551,31.87701 0.120905,-0.32597 0.341405,-0.88168 0.489999,-1.23492 0.269537,-0.64074 0.271336,-0.64165 0.765425,-0.38615 0.961214,0.49706 0.959065,1.00363 -0.01561,3.68044 -0.601504,1.65194 -0.962117,2.41554 -1.165922,2.46883 -0.162288,0.0425 -0.336048,0.18396 -0.386134,0.31448 -0.07796,0.20317 6.510628,0.23732 45.792954,0.23732 25.23621,0 45.88401,-0.0217 45.88401,-0.0483 z m 0.508,-34.90905 c 0,-23.00935 -0.0573,-34.82345 -0.16933,-34.89267 -0.11268,-0.0696 -0.16933,11.56936 -0.16933,34.78801 0,23.14888 0.057,34.89266 0.16933,34.89266 0.11234,0 0.16933,-11.70889 0.16933,-34.788 z m -1.43859,29.9728 c -0.42518,-0.91608 -0.81961,-1.61904 -0.87651,-1.56214 -0.0569,0.0569 0.26927,0.91461 0.72483,1.90602 0.45555,0.99141 0.84998,1.69437 0.8765,1.56214 0.0265,-0.13224 -0.29964,-0.98995 -0.72482,-1.90602 z m -89.066426,0.5709 c 0.302232,-0.90994 0.220088,-1.39209 -0.09589,-0.56285 -0.243373,0.63869 -0.398134,1.42049 -0.281192,1.42049 0.05072,0 0.220412,-0.38594 0.377086,-0.85764 z m 87.816356,-1.62733 c -0.19962,-0.34328 -0.24782,-0.2334 -0.0844,0.19242 0.0581,0.15133 0.14126,0.23948 0.18486,0.19588 0.0436,-0.0436 -0.002,-0.21833 -0.10044,-0.3883 z m -87.807527,-0.18607 c -0.292566,-0.27943 -0.297108,-0.27489 -0.103201,0.1032 0.111559,0.21753 0.249274,0.34907 0.306035,0.29231 0.05676,-0.0568 -0.03451,-0.23474 -0.202834,-0.39551 z m 87.956187,-0.61285 c 0,-0.0366 -0.11825,-0.11193 -0.26279,-0.16739 -0.1507,-0.0578 -0.21867,-0.0294 -0.15934,0.0665 0.0994,0.1609 0.42213,0.23799 0.42213,0.10084 z m 2.11667,-63.60278 c 0.0697,-0.11273 -15.23824,-0.16934 -45.79467,-0.16934 -30.486663,0 -45.899326,0.0569 -45.899326,0.16934 0,0.2348 91.548876,0.2348 91.693996,0 z"
           id="path6286"
           inkscape:connector-curvature="0" />
        <path
           inkscape:connector-curvature="0"
           style="opacity:1;fill:#cd7330;fill-opacity:0.58039216;stroke:none;stroke-width:7.55905533;stroke-linejoin:bevel;stroke-miterlimit:4;stroke-dasharray:none;stroke-opacity:1"
           d="M 228.02539,408.49609 V 670.71484 H 574.58398 V 408.49609 Z m 110.375,85.20313 h 129.30078 v 45.96289 H 338.40039 Z"
           transform="scale(0.26458333)"
           id="rect6288" />
        <rect
           style="opacity:1;fill:none;fill-opacity:1;stroke:#5779b6;stroke-width:1.26492155;stroke-linejoin:bevel;stroke-miterlimit:4;stroke-dasharray:none;stroke-opacity:1;paint-order:markers fill stroke"
           id="rect867"
           width="34.210827"
           height="12.161014"
           x="89.535103"
           y="130.62459" />
      </g>
      <rect
         y="176.19362"
         x="101.4829"
         height="1.059412"
         width="15.615142"
         id="rect835-7"
         style="opacity:1;fill:#5779b6;fill-opacity:0.67346939;stroke:none;stroke-width:0.05968969;stroke-linejoin:bevel;stroke-miterlimit:4;stroke-dasharray:none;stroke-opacity:1;paint-order:markers fill stroke" />
      <rect
         y="218.41821"
         x="89.332314"
         height="1.059412"
         width="15.615142"
         id="rect835-9"
         style="opacity:1;fill:#5779b6;fill-opacity:0.67346939;stroke:none;stroke-width:0.05968969;stroke-linejoin:bevel;stroke-miterlimit:4;stroke-dasharray:none;stroke-opacity:1;paint-order:markers fill stroke" />
    </g>
  </g>
</svg>
