<svg width="689" height="1173" viewBox="0 0 689 1173" fill="none" xmlns="http://www.w3.org/2000/svg">
<path d="M65.9892 1142L58.1853 783.848H105.182L110.493 1142H65.9892Z" fill="#CBB037" stroke="black"/>
<path d="M59.1932 783.375L85.6583 47.8476L131.658 47.8476L106.096 786.385L59.1932 783.375ZM556.165 800.848L542.683 53.3482L582.687 53.3482L602.661 800.848L556.165 800.848Z" fill="#CBB037" stroke="black"/>
<path d="M549.01 1150.85L556.164 800.848H603.166L597.508 1150.85H549.01Z" fill="#CBB037" stroke="black"/>
<path d="M594.273 761.848L67.5524 761.848L65.2514 745.848L596.113 745.848L594.273 761.848Z" fill="#CBB037" stroke="black"/>
<path d="M594.273 593.848L67.5524 593.848L65.2514 577.848L596.113 577.848L594.273 593.848Z" fill="#CBB037" stroke="black"/>
<path d="M589.308 419.848L72.5076 419.848L70.2498 403.848L591.115 403.848L589.308 419.848Z" fill="#CBB037" stroke="black"/>
<path d="M589.341 245.848L81.4673 245.848L79.2484 229.848L591.116 229.848L589.341 245.848Z" fill="#CBB037" stroke="black"/>
<path d="M583.391 71.8481L89.4046 71.8481L87.2463 55.8481L585.117 55.8481L583.391 71.8481Z" fill="#CBB037" stroke="black"/>
<rect x="65.1743" y="744.848" width="20" height="531" transform="rotate(-90 65.1743 744.848)" fill="#CBB037" stroke="black"/>
<rect x="65.1743" y="576.848" width="20" height="531" transform="rotate(-90 65.1743 576.848)" fill="#CBB037" stroke="black"/>
<rect x="70.1743" y="402.848" width="20" height="521" transform="rotate(-90 70.1743 402.848)" fill="#CBB037" stroke="black"/>
<rect x="79.1743" y="228.848" width="20" height="512" transform="rotate(-90 79.1743 228.848)" fill="#CBB037" stroke="black"/>
<rect x="87.1743" y="54.8481" width="20" height="498" transform="rotate(-90 87.1743 54.8481)" fill="#CBB037" stroke="black"/>
</svg>
