<svg width="1211" height="929" viewBox="0 0 1211 929" fill="none" xmlns="http://www.w3.org/2000/svg">
<path d="M92.8847 120.417L94.8077 95.4172H1106.39L1109.77 120.417H92.8847Z" fill="#CBB037" stroke="black"/>
<path d="M90.4034 142.917L92.7922 121.417H1109.82V142.917H90.4034Z" fill="#CBB037" stroke="black"/>
<rect x="71.8447" y="820.417" width="1058" height="15" fill="#CBB037" stroke="black"/>
<path d="M92.949 819.417L96.7583 799.418L1107.41 801.416L1109.77 819.417H92.949Z" fill="#CBB037" stroke="black"/>
<path d="M1096.84 528.416V546.417H101.845V525.419L1096.84 528.416Z" fill="#CBB037" stroke="black"/>
<path d="M1082.87 525.417H119.845V504.419L1083.82 507.915L1082.87 525.417Z" fill="#CBB037" stroke="black"/>
<path d="M91.8162 819.418L72.3166 819.418L49.8734 423.417L70.3706 423.417L91.8162 819.418Z" fill="#CBB037" stroke="black"/>
<path d="M1129.38 819.917L1110.39 819.917L1143.03 425.01L1158.81 425.01L1129.38 819.917Z" fill="#CBB037" stroke="black"/>
<path d="M1096.45 528.74L1083.45 528.787L1098.25 143.529L1105.52 143.503L1112.75 143.477L1096.45 528.74Z" fill="#CBB037" stroke="black"/>
<path d="M118.828 524.707L100.332 524.708L89.8703 143.736L99.8565 143.736L107.871 143.736L118.828 524.707Z" fill="#CBB037" stroke="black"/>
<path d="M62.4615 406.226L48.8975 406.226L80.3817 94.4655L94.1492 95.8712L62.4615 406.226Z" fill="#CBB037" stroke="black"/>
<path d="M1148.23 406.05L1107.91 95.3851L1121.85 94.5714L1161.28 406.05L1148.23 406.05Z" fill="#CBB037" stroke="black"/>
<path d="M62.9057 405.417L65.7904 380.417H1143.4L1146.77 405.417H62.9057Z" fill="#CBB037" stroke="black"/>
<rect x="48.8447" y="406.417" width="1112" height="17" fill="#CBB037" stroke="black"/>
<path d="M1148.27 405.417L1147.43 399.917H1160.42L1161.26 405.417H1148.27Z" fill="#CBB037" stroke="black"/>
<path d="M48.8881 405.417L49.3048 400.417H62.3013L61.8847 405.417H48.8881Z" fill="#CBB037" stroke="black"/>
<path d="M328.315 398.797L337.33 95.4171L350.829 95.4172L341.36 398.797L328.315 398.797Z" fill="#CBB037" stroke="black"/>
<path d="M587.339 398.917L583.85 95.4172L597.349 95.4172L600.34 398.917L587.339 398.917Z" fill="#CBB037" stroke="black"/>
<path d="M862.313 398.917L842.378 95.4175L856.874 95.4238L875.313 398.917L862.313 398.917Z" fill="#CBB037" stroke="black"/>
<path d="M327.888 404.417L328.305 399.417H341.301L340.885 404.417H327.888Z" fill="#CBB037" stroke="black"/>
<path d="M586.888 404.417L587.305 399.417H600.301L599.884 404.417H586.888Z" fill="#CBB037" stroke="black"/>
<path d="M861.888 404.417L862.305 399.417H875.301L874.884 404.417H861.888Z" fill="#CBB037" stroke="black"/>
</svg>
