<svg width="430" height="360" viewBox="0 0 430 360" fill="none" xmlns="http://www.w3.org/2000/svg">
<g clip-path="url(#clip0)">
<path d="M221.761 87.8959H207.761V321.896H221.761V87.8959Z" fill="url(#paint0_linear)" stroke="black" stroke-width="2"/>
<path d="M206.761 294.896H197.761V339.896H206.761V294.896Z" fill="url(#paint1_linear)" stroke="black" stroke-width="2"/>
<path d="M231.761 294.896H222.761V339.896H231.761V294.896Z" fill="url(#paint2_linear)" stroke="black" stroke-width="2"/>
<path d="M279.761 282.896H150.761V292.896H279.761V282.896Z" fill="url(#paint3_linear)" stroke="black" stroke-width="2"/>
<path d="M284.761 339.896H146.761V352.896H284.761V339.896Z" fill="url(#paint4_linear)" stroke="black" stroke-width="2"/>
<path d="M212.302 98.4593C211.774 101.451 213.772 104.303 216.763 104.831C219.755 105.358 222.607 103.361 223.135 100.369C223.662 97.3781 221.665 94.5254 218.673 93.998C215.682 93.4705 212.829 95.4679 212.302 98.4593Z" fill="#FE0202" stroke="black"/>
<path d="M373.594 72.1014L374.916 64.6027L228.271 38.7451L226.948 46.2438L373.594 72.1014Z" fill="url(#paint5_linear)" stroke="black" stroke-width="2"/>
<path d="M354.593 185.521L355.915 178.022L209.269 152.165L207.947 159.663L354.593 185.521Z" fill="url(#paint6_linear)" stroke="black" stroke-width="2"/>
<path d="M254.78 53.0447L256.802 41.5796L227.497 36.4123L225.475 47.8775L254.78 53.0447Z" fill="#FE0202" stroke="black" stroke-width="2"/>
<path d="M234.565 166.251L236.587 154.786L207.282 149.619L205.26 161.084L234.565 166.251Z" fill="#FE0202" stroke="black" stroke-width="2"/>
<path d="M214.128 162.661L236.121 37.933L226.455 36.2286L204.462 160.956L214.128 162.661Z" fill="#FE0202" stroke="black" stroke-width="2"/>
<path d="M212.316 105.973L214.747 92.1857L44.6602 62.1948L42.2292 75.9821L212.316 105.973Z" fill="url(#paint7_linear)" stroke="black" stroke-width="2"/>
<path d="M41.3414 88.5437L48.1136 50.1362L13.2366 43.9865L6.4643 82.394L41.3414 88.5437Z" fill="url(#paint8_linear)" stroke="black" stroke-width="2"/>
<path d="M211.417 113.535C203.407 112.122 198.051 104.374 199.492 96.2007C200.933 88.0278 208.617 82.5781 216.626 83.9904C224.636 85.4029 229.992 93.1516 228.551 101.325C227.11 109.497 219.427 114.947 211.417 113.535Z" fill="#FE0202" stroke="black" stroke-width="2"/>
<path d="M212.855 98.5569C212.663 99.6446 213.376 100.68 214.447 100.868C215.518 101.057 216.542 100.329 216.733 99.2408C216.925 98.153 216.212 97.1181 215.141 96.9292C214.07 96.7403 213.047 97.4691 212.855 98.5569Z" fill="black"/>
<path d="M414.522 155.194L356.559 186.345L304.708 177.202L261.876 128.281L269.086 87.3914L326.067 56.0705L377.918 65.2132L421.731 114.31L414.522 155.194Z" fill="#E9AE6C" stroke="black"/>
<path d="M412.743 153.765L359.472 164.519L321.342 157.795L295.762 126.145L300.544 99.0244L335.229 79.0099L373.364 85.7342L419.744 114.059L412.743 153.765Z" fill="#E9AE6C" stroke="black"/>
<path d="M409.096 139.896L363.773 145.984L340.369 141.857L323.4 124.893L325.738 111.629L347.306 102.463L370.724 106.593L411.399 126.837L409.096 139.896Z" fill="#E9AE6C" stroke="black"/>
<path d="M355.006 173.117L361.307 174.228L360.993 176.006C360.897 176.554 360.69 177.018 360.373 177.396C360.057 177.775 359.655 178.039 359.167 178.188C358.679 178.34 358.145 178.366 357.565 178.266L357.162 178.196C356.568 178.091 356.068 177.884 355.661 177.574C355.254 177.267 354.968 176.88 354.804 176.41C354.64 175.943 354.604 175.427 354.698 174.861L355.006 173.117ZM360.477 174.938L355.539 174.067L355.384 174.941C355.271 175.582 355.383 176.115 355.719 176.54C356.053 176.968 356.589 177.247 357.325 177.376L357.693 177.441C358.408 177.567 358.993 177.497 359.448 177.229C359.905 176.964 360.191 176.524 360.306 175.908L360.477 174.938Z" fill="black"/>
<path d="M372.37 74.636L378.672 75.7471L378.358 77.5257C378.261 78.0732 378.055 78.5374 377.738 78.9151C377.422 79.2939 377.019 79.5581 376.532 79.7067C376.044 79.8593 375.51 79.885 374.93 79.7857L374.527 79.7147C373.933 79.6099 373.432 79.4028 373.026 79.0935C372.619 78.7862 372.333 78.3987 372.169 77.9291C372.004 77.4624 371.969 76.9464 372.063 76.3801L372.37 74.636ZM377.841 76.4567L372.903 75.586L372.749 76.4605C372.636 77.1016 372.748 77.6341 373.083 78.0588C373.418 78.4875 373.954 78.7657 374.689 78.8954L375.057 78.9603C375.773 79.0865 376.358 79.016 376.813 78.7479C377.27 78.4833 377.556 78.0432 377.67 77.4268L377.841 76.4567Z" fill="black"/>
<path d="M369.906 100.304C369.253 100.109 368.782 99.7717 368.491 99.292C368.204 98.8158 368.12 98.2345 368.241 97.5471C368.373 96.8036 368.745 96.2529 369.358 95.8969C369.971 95.5439 370.724 95.4463 371.618 95.604L372.224 95.7108C372.81 95.8141 373.307 96.0083 373.714 96.2945C374.122 96.5836 374.41 96.941 374.578 97.3668C374.75 97.7921 374.792 98.2574 374.703 98.7626C374.585 99.4322 374.302 99.9359 373.856 100.274C373.413 100.612 372.855 100.756 372.183 100.705L372.33 99.8703C372.845 99.887 373.236 99.7935 373.504 99.5909C373.771 99.3913 373.943 99.0753 374.019 98.642C374.113 98.1112 373.99 97.66 373.651 97.2875C373.311 96.918 372.78 96.6698 372.055 96.5421L371.445 96.4345C370.761 96.314 370.192 96.3609 369.738 96.5752C369.284 96.7896 369.011 97.1538 368.921 97.6669C368.839 98.1288 368.881 98.5007 369.045 98.7825C369.212 99.0678 369.548 99.2966 370.053 99.469L369.906 100.304Z" fill="black"/>
<path d="M359.835 157.423C359.182 157.228 358.71 156.891 358.42 156.411C358.132 155.935 358.049 155.353 358.17 154.666C358.301 153.922 358.673 153.372 359.286 153.016C359.899 152.663 360.652 152.565 361.547 152.723L362.153 152.83C362.738 152.933 363.235 153.127 363.643 153.413C364.05 153.702 364.338 154.06 364.507 154.486C364.679 154.911 364.72 155.376 364.631 155.881C364.513 156.551 364.231 157.055 363.785 157.392C363.341 157.731 362.783 157.875 362.111 157.824L362.258 156.989C362.773 157.006 363.164 156.912 363.432 156.71C363.699 156.51 363.871 156.194 363.947 155.761C364.041 155.23 363.918 154.779 363.579 154.406C363.24 154.037 362.708 153.789 361.984 153.661L361.374 153.553C360.69 153.433 360.121 153.48 359.667 153.694C359.212 153.908 358.94 154.273 358.849 154.786C358.768 155.248 358.809 155.62 358.974 155.901C359.141 156.187 359.477 156.415 359.982 156.588L359.835 157.423Z" fill="black"/>
<path d="M364.893 126.661L365.358 124.021L363.818 123.138L363.969 122.281L369.846 125.798L369.718 126.526L362.992 127.825L363.142 126.973L364.893 126.661ZM365.998 124.392L365.62 126.534L368.756 125.982L365.998 124.392Z" fill="black"/>
</g>
<defs>
<linearGradient id="paint0_linear" x1="206.792" y1="203.051" x2="222.792" y2="203.051" gradientUnits="userSpaceOnUse">
<stop stop-color="#363636"/>
<stop offset="0.490794" stop-color="#868686"/>
<stop offset="1" stop-color="#363636"/>
</linearGradient>
<linearGradient id="paint1_linear" x1="196.782" y1="317.029" x2="207.782" y2="317.029" gradientUnits="userSpaceOnUse">
<stop stop-color="#363636"/>
<stop offset="0.490794" stop-color="#868686"/>
<stop offset="1" stop-color="#363636"/>
</linearGradient>
<linearGradient id="paint2_linear" x1="221.782" y1="317.029" x2="232.782" y2="317.029" gradientUnits="userSpaceOnUse">
<stop stop-color="#363636"/>
<stop offset="0.490794" stop-color="#868686"/>
<stop offset="1" stop-color="#363636"/>
</linearGradient>
<linearGradient id="paint3_linear" x1="215.261" y1="292.296" x2="215.261" y2="283.496" gradientUnits="userSpaceOnUse">
<stop stop-color="#363636"/>
<stop offset="0.490794" stop-color="#868686"/>
<stop offset="1" stop-color="#363636"/>
</linearGradient>
<linearGradient id="paint4_linear" x1="215.761" y1="351.896" x2="215.761" y2="340.896" gradientUnits="userSpaceOnUse">
<stop stop-color="#363636"/>
<stop offset="0.490794" stop-color="#868686"/>
<stop offset="1" stop-color="#363636"/>
</linearGradient>
<linearGradient id="paint5_linear" x1="302.926" y1="50.9117" x2="301.257" y2="60.3797" gradientUnits="userSpaceOnUse">
<stop stop-color="#363636"/>
<stop offset="0.490794" stop-color="#868686"/>
<stop offset="1" stop-color="#363636"/>
</linearGradient>
<linearGradient id="paint6_linear" x1="283.924" y1="164.331" x2="282.255" y2="173.8" gradientUnits="userSpaceOnUse">
<stop stop-color="#363636"/>
<stop offset="0.490794" stop-color="#868686"/>
<stop offset="1" stop-color="#363636"/>
</linearGradient>
<linearGradient id="paint7_linear" x1="131.218" y1="76.4723" x2="128.44" y2="92.2292" gradientUnits="userSpaceOnUse">
<stop stop-color="#363636"/>
<stop offset="0.490794" stop-color="#868686"/>
<stop offset="1" stop-color="#363636"/>
</linearGradient>
<linearGradient id="paint8_linear" x1="31.1233" y1="46.2042" x2="24.0038" y2="86.5813" gradientUnits="userSpaceOnUse">
<stop stop-color="#363636"/>
<stop offset="0.490794" stop-color="#868686"/>
<stop offset="1" stop-color="#363636"/>
</linearGradient>
<clipPath id="clip0">
<rect width="430" height="360" fill="white"/>
</clipPath>
</defs>
</svg>
