<svg width="430" height="360" viewBox="0 0 430 360" fill="none" xmlns="http://www.w3.org/2000/svg">
<g clip-path="url(#clip0)">
<path d="M221.761 87.8959H207.761V321.896H221.761V87.8959Z" fill="url(#paint0_linear)" stroke="black" stroke-width="2"/>
<path d="M206.761 294.896H197.761V339.896H206.761V294.896Z" fill="url(#paint1_linear)" stroke="black" stroke-width="2"/>
<path d="M231.761 294.896H222.761V339.896H231.761V294.896Z" fill="url(#paint2_linear)" stroke="black" stroke-width="2"/>
<path d="M279.761 282.896H150.761V292.896H279.761V282.896Z" fill="url(#paint3_linear)" stroke="black" stroke-width="2"/>
<path d="M284.761 339.896H146.761V352.896H284.761V339.896Z" fill="url(#paint4_linear)" stroke="black" stroke-width="2"/>
<path d="M216.241 97.638C215.714 94.6466 212.861 92.6491 209.87 93.1766C206.878 93.7041 204.881 96.5567 205.408 99.5481C205.936 102.54 208.789 104.537 211.78 104.009C214.771 103.482 216.769 100.629 216.241 97.638Z" fill="#FE0202" stroke="black"/>
<path d="M73.691 177.572L75.0132 185.07L221.659 159.213L220.337 151.714L73.691 177.572Z" fill="url(#paint5_linear)" stroke="black" stroke-width="2"/>
<path d="M52.7547 64.4932L54.0769 71.9919L200.723 46.1343L199.4 38.6356L52.7547 64.4932Z" fill="url(#paint6_linear)" stroke="black" stroke-width="2"/>
<path d="M191.857 154.842L193.879 166.307L223.184 161.14L221.162 149.675L191.857 154.842Z" fill="#FE0202" stroke="black" stroke-width="2"/>
<path d="M172.134 41.5489L174.156 53.0141L203.461 47.8468L201.439 36.3817L172.134 41.5489Z" fill="#FE0202" stroke="black" stroke-width="2"/>
<path d="M192.567 37.9329L214.56 162.661L224.226 160.956L202.233 36.2285L192.567 37.9329Z" fill="#FE0202" stroke="black" stroke-width="2"/>
<path d="M213.658 90.5824L216.089 104.37L386.176 74.3788L383.745 60.5914L213.658 90.5824Z" fill="url(#paint7_linear)" stroke="black" stroke-width="2"/>
<path d="M380.283 48.4837L387.055 86.8912L421.932 80.7414L415.16 42.3339L380.283 48.4837Z" fill="url(#paint8_linear)" stroke="black" stroke-width="2"/>
<path d="M211.917 83.1691C219.927 81.7568 227.61 87.2064 229.051 95.3793C230.492 103.552 225.136 111.301 217.127 112.713C209.116 114.126 201.433 108.676 199.992 100.503C198.551 92.3303 203.907 84.5815 211.917 83.1691Z" fill="#FE0202" stroke="black" stroke-width="2"/>
<path d="M215.688 97.7355C215.496 96.6477 214.473 95.919 213.402 96.1078C212.331 96.2967 211.618 97.3316 211.81 98.4194C212.001 99.5072 213.025 100.236 214.096 100.047C215.167 99.8582 215.88 98.8233 215.688 97.7355Z" fill="black"/>
<path d="M71.9841 185.523L14.0209 154.373L6.8119 113.488L50.6254 64.3917L102.476 55.2491L159.457 86.5699L166.667 127.46L123.835 176.38L71.9841 185.523Z" fill="#E9AE6C" stroke="black"/>
<path d="M69.2448 164.682L15.9735 153.928L8.97238 114.223L55.3529 85.8975L93.483 79.1742L128.345 100.167L133.127 127.288L107.38 157.958L69.2448 164.682Z" fill="#E9AE6C" stroke="black"/>
<path d="M64.5914 144.179L19.4456 139.067L17.1429 126.008L57.6508 104.785L81.0545 100.659L102.803 110.797L105.142 124.06L88.0096 140.049L64.5914 144.179Z" fill="#E9AE6C" stroke="black"/>
<path d="M56.6092 76.2905L50.308 77.4016L49.9944 75.623C49.8978 75.0754 49.9334 74.5686 50.1016 74.1053C50.2696 73.6411 50.5571 73.2553 50.9642 72.949C51.3706 72.6387 51.8637 72.4319 52.443 72.3267L52.8455 72.2558C53.4399 72.1509 53.981 72.1743 54.4688 72.3259C54.9563 72.4755 55.3573 72.742 55.6721 73.1272C55.9864 73.5094 56.1962 73.9821 56.3016 74.5464L56.6092 76.2905ZM50.8454 76.4508L55.7834 75.5801L55.6292 74.7056C55.5161 74.0645 55.2293 73.6023 54.7686 73.3179C54.3073 73.0297 53.7089 72.9514 52.9732 73.0811L52.6053 73.146C51.8898 73.2721 51.3641 73.5385 51.0284 73.946C50.6893 74.351 50.5712 74.8623 50.6743 75.4808L50.8454 76.4508Z" fill="black"/>
<path d="M73.974 174.771L67.6729 175.882L67.3592 174.104C67.2627 173.556 67.2982 173.049 67.4664 172.586C67.6345 172.122 67.9219 171.736 68.329 171.43C68.7354 171.119 69.2285 170.913 69.8079 170.808L70.2103 170.737C70.8048 170.632 71.3459 170.655 71.8337 170.807C72.3212 170.956 72.7221 171.223 73.037 171.608C73.3513 171.99 73.561 172.463 73.6665 173.027L73.974 174.771ZM68.2102 174.932L73.1482 174.061L72.994 173.186C72.881 172.545 72.5942 172.083 72.1335 171.799C71.6721 171.51 71.0738 171.432 70.3381 171.562L69.9702 171.627C69.2547 171.753 68.729 172.019 68.3932 172.427C68.0541 172.832 67.9361 173.343 68.0392 173.962L68.2102 174.932Z" fill="black"/>
<path d="M67.5107 149.808C68.1909 149.769 68.7493 149.924 69.1862 150.276C69.6196 150.625 69.8968 151.142 70.018 151.83C70.1491 152.573 69.9876 153.218 69.5332 153.762C69.0783 154.303 68.4036 154.653 67.5092 154.811L66.9034 154.917C66.3176 155.021 65.7844 155.008 65.3034 154.879C64.822 154.746 64.4291 154.509 64.1247 154.167C63.8178 153.826 63.6197 153.403 63.5306 152.897C63.4126 152.228 63.5054 151.658 63.8093 151.188C64.1103 150.719 64.5852 150.392 65.2343 150.21L65.3816 151.045C64.8922 151.205 64.5565 151.427 64.3742 151.709C64.1913 151.988 64.138 152.344 64.2144 152.777C64.308 153.308 64.5776 153.69 65.0235 153.924C65.4689 154.155 66.0535 154.206 66.7777 154.079L67.388 153.971C68.0717 153.85 68.5904 153.612 68.9439 153.255C69.2976 152.898 69.4289 152.463 69.3385 151.95C69.257 151.488 69.0909 151.152 68.8399 150.944C68.5855 150.733 68.1916 150.633 67.658 150.643L67.5107 149.808Z" fill="black"/>
<path d="M57.4392 92.6895C58.1194 92.6498 58.6778 92.8052 59.1146 93.1567C59.548 93.5057 59.8252 94.0234 59.9465 94.7108C60.0776 95.4544 59.9161 96.0992 59.4617 96.6434C59.0067 97.1846 58.3321 97.5341 57.4377 97.6918L56.8318 97.7986C56.2461 97.9019 55.7129 97.8893 55.2319 97.7598C54.7505 97.6274 54.3576 97.39 54.0532 97.0477C53.7463 96.7068 53.5482 96.2838 53.4591 95.7786C53.341 95.1089 53.4339 94.5391 53.7378 94.0692C54.0388 93.5998 54.5137 93.2734 55.1628 93.0909L55.31 93.926C54.8207 94.0864 54.4849 94.3081 54.3026 94.59C54.1198 94.869 54.0665 95.2247 54.1429 95.658C54.2365 96.1888 54.5061 96.5708 54.952 96.8049C55.3973 97.0361 55.982 97.0874 56.7061 96.9597L57.3164 96.8521C58.0002 96.7315 58.5189 96.4928 58.8724 96.136C59.226 95.7792 59.3574 95.3437 59.2669 94.8307C59.1855 94.3688 59.0194 94.0335 58.7683 93.8249C58.514 93.6139 58.12 93.5138 57.5864 93.5246L57.4392 92.6895Z" fill="black"/>
<path d="M63.2072 123.326L63.6728 125.967L65.4218 126.27L65.5729 127.126L58.8475 125.831L58.7192 125.104L64.5955 121.583L64.7457 122.435L63.2072 123.326ZM62.9446 125.836L62.567 123.694L59.8089 125.286L62.9446 125.836Z" fill="black"/>
</g>
<defs>
<linearGradient id="paint0_linear" x1="206.792" y1="203.051" x2="222.792" y2="203.051" gradientUnits="userSpaceOnUse">
<stop stop-color="#363636"/>
<stop offset="0.490794" stop-color="#868686"/>
<stop offset="1" stop-color="#363636"/>
</linearGradient>
<linearGradient id="paint1_linear" x1="196.782" y1="317.029" x2="207.782" y2="317.029" gradientUnits="userSpaceOnUse">
<stop stop-color="#363636"/>
<stop offset="0.490794" stop-color="#868686"/>
<stop offset="1" stop-color="#363636"/>
</linearGradient>
<linearGradient id="paint2_linear" x1="221.782" y1="317.029" x2="232.782" y2="317.029" gradientUnits="userSpaceOnUse">
<stop stop-color="#363636"/>
<stop offset="0.490794" stop-color="#868686"/>
<stop offset="1" stop-color="#363636"/>
</linearGradient>
<linearGradient id="paint3_linear" x1="215.261" y1="292.296" x2="215.261" y2="283.496" gradientUnits="userSpaceOnUse">
<stop stop-color="#363636"/>
<stop offset="0.490794" stop-color="#868686"/>
<stop offset="1" stop-color="#363636"/>
</linearGradient>
<linearGradient id="paint4_linear" x1="215.761" y1="351.896" x2="215.761" y2="340.896" gradientUnits="userSpaceOnUse">
<stop stop-color="#363636"/>
<stop offset="0.490794" stop-color="#868686"/>
<stop offset="1" stop-color="#363636"/>
</linearGradient>
<linearGradient id="paint5_linear" x1="147.345" y1="173.313" x2="145.675" y2="163.846" gradientUnits="userSpaceOnUse">
<stop stop-color="#363636"/>
<stop offset="0.490794" stop-color="#868686"/>
<stop offset="1" stop-color="#363636"/>
</linearGradient>
<linearGradient id="paint6_linear" x1="126.409" y1="60.2351" x2="124.739" y2="50.7661" gradientUnits="userSpaceOnUse">
<stop stop-color="#363636"/>
<stop offset="0.490794" stop-color="#868686"/>
<stop offset="1" stop-color="#363636"/>
</linearGradient>
<linearGradient id="paint7_linear" x1="299.955" y1="90.5668" x2="297.177" y2="74.8099" gradientUnits="userSpaceOnUse">
<stop stop-color="#363636"/>
<stop offset="0.490794" stop-color="#868686"/>
<stop offset="1" stop-color="#363636"/>
</linearGradient>
<linearGradient id="paint8_linear" x1="404.366" y1="84.7751" x2="397.246" y2="44.398" gradientUnits="userSpaceOnUse">
<stop stop-color="#363636"/>
<stop offset="0.490794" stop-color="#868686"/>
<stop offset="1" stop-color="#363636"/>
</linearGradient>
<clipPath id="clip0">
<rect width="430" height="360" fill="white"/>
</clipPath>
</defs>
</svg>
