<svg width="180" height="480" viewBox="0 0 180 480" fill="none" xmlns="http://www.w3.org/2000/svg">
<path d="M134.403 380.965L150.06 469.593L159.908 467.86L144.251 379.232L134.403 380.965Z" fill="#2E80D0" stroke="black"/>
<path d="M35.6572 380.181L20 468.809L29.8481 470.542L45.5052 381.914L35.6572 380.181Z" fill="#2E80D0" stroke="black"/>
<path d="M150.636 418.368H29.6358V427.351H150.636V418.368Z" fill="#2E80D0" stroke="black"/>
<path d="M36.1252 64H28.1252L28.1252 409H36.1252V64Z" fill="#8E6041" stroke="black"/>
<path d="M151.125 63H143.125V409H151.125V63Z" fill="#8E6041" stroke="black"/>
<path d="M110.394 9.5L151.136 61.075V113.624L110.397 164.204H68.8751L28.1358 113.624V61.075L68.878 9.5H110.394Z" fill="#E9AE6C" stroke="black"/>
<path d="M109.295 11.4962L129.136 61.9941V100.638L102.409 131.267H74.8687L49.1358 100.643V61.9941L68.9766 11.4962H109.295Z" fill="#E9AE6C" stroke="black"/>
<path d="M96.2704 17.4849L110.136 60.9791V84.6979L96.3758 104.318H82.9069L70.1358 84.7073V60.9738L83.0092 17.4849H96.2704Z" fill="#E9AE6C" stroke="black"/>
<path d="M138.379 64.8937V58.5074H140.185C140.741 58.5074 141.234 58.6302 141.661 58.8758C142.089 59.1215 142.419 59.4709 142.65 59.9242C142.885 60.3774 143.003 60.8979 143.006 61.4856V61.8935C143.006 62.496 142.889 63.0238 142.655 63.477C142.423 63.9302 142.091 64.2782 141.657 64.5209C141.226 64.7635 140.724 64.8878 140.15 64.8937H138.379ZM139.222 59.2004V64.2051H140.11C140.761 64.2051 141.266 64.0033 141.626 63.5998C141.99 63.1962 142.171 62.6216 142.171 61.876V61.5031C142.171 60.778 142 60.2151 141.657 59.8145C141.317 59.4109 140.834 59.2063 140.207 59.2004H139.222Z" fill="black"/>
<path d="M38.3787 64.8937V58.5074H40.1847C40.7407 58.5074 41.2337 58.6302 41.6607 58.8758C42.0887 59.1215 42.4187 59.4709 42.6497 59.9242C42.8847 60.3774 43.0027 60.8979 43.0057 61.4856V61.8935C43.0057 62.496 42.8887 63.0238 42.6547 63.477C42.4227 63.9302 42.0907 64.2782 41.6567 64.5209C41.2257 64.7635 40.7237 64.8878 40.1497 64.8937H38.3787ZM39.2217 59.2004V64.2051H40.1097C40.7607 64.2051 41.2657 64.0033 41.6257 63.5998C41.9897 63.1962 42.1707 62.6216 42.1707 61.876V61.5031C42.1707 60.778 41.9997 60.2151 41.6567 59.8145C41.3167 59.4109 40.8337 59.2063 40.2067 59.2004H39.2217Z" fill="black"/>
<path d="M64.0848 62.8672C64.0058 63.5427 63.7558 64.0646 63.3338 64.4331C62.9148 64.7986 62.3568 64.9814 61.6588 64.9814C60.9038 64.9814 60.2968 64.7109 59.8398 64.1699C59.3858 63.629 59.1588 62.9052 59.1588 61.9988V61.3847C59.1588 60.7911 59.2638 60.2692 59.4748 59.8188C59.6888 59.3686 59.9908 59.0235 60.3808 58.7837C60.7698 58.541 61.2208 58.4197 61.7338 58.4197C62.4138 58.4197 62.9588 58.6097 63.3688 58.9899C63.7788 59.3671 64.0178 59.8905 64.0848 60.5601H63.2368C63.1638 60.0513 63.0038 59.6829 62.7578 59.4548C62.5148 59.2267 62.1738 59.1127 61.7338 59.1127C61.1948 59.1127 60.7718 59.3115 60.4638 59.7092C60.1588 60.1069 60.0068 60.6727 60.0068 61.4066V62.0251C60.0068 62.7181 60.1518 63.2694 60.4418 63.6787C60.7318 64.0881 61.1378 64.2927 61.6588 64.2927C62.1278 64.2927 62.4868 64.1875 62.7358 63.9769C62.9878 63.7635 63.1548 63.3936 63.2368 62.8672H64.0848Z" fill="black"/>
<path d="M122.085 62.8672C122.006 63.5427 121.756 64.0646 121.334 64.4331C120.915 64.7986 120.357 64.9814 119.659 64.9814C118.904 64.9814 118.297 64.7109 117.84 64.1699C117.386 63.629 117.159 62.9052 117.159 61.9988V61.3847C117.159 60.7911 117.264 60.2692 117.475 59.8188C117.689 59.3686 117.991 59.0235 118.381 58.7837C118.77 58.541 119.221 58.4197 119.734 58.4197C120.414 58.4197 120.959 58.6097 121.369 58.9899C121.779 59.3671 122.018 59.8905 122.085 60.5601H121.237C121.164 60.0513 121.004 59.6829 120.758 59.4548C120.515 59.2267 120.174 59.1127 119.734 59.1127C119.195 59.1127 118.772 59.3115 118.464 59.7092C118.159 60.1069 118.007 60.6727 118.007 61.4066V62.0251C118.007 62.7181 118.152 63.2694 118.442 63.6787C118.732 64.0881 119.138 64.2927 119.659 64.2927C120.128 64.2927 120.487 64.1875 120.736 63.9769C120.988 63.7635 121.155 63.3936 121.237 62.8672H122.085Z" fill="black"/>
<path d="M90.9117 63.227H88.2307L87.6287 64.8937H86.7587L89.2017 58.5074H89.9407L92.3877 64.8937H91.5227L90.9117 63.227ZM88.4857 62.5339H90.6607L89.5717 59.547L88.4857 62.5339Z" fill="black"/>
<path d="M27.6358 390.422L27.6358 427.85H37.6358L37.6358 390.422H27.6358Z" fill="#2E80D0" stroke="black"/>
<path d="M142.636 390.422V427.85H152.636V390.422H142.636Z" fill="#2E80D0" stroke="black"/>
<path d="M28 61.5L70 9L69.5 164.5L28 113.5V61.5Z" fill="black"/>
<path d="M152 111.5L109.5 164.5L110 8.99998L152 59.5L152 111.5Z" fill="black"/>
</svg>
