<!-- debut svg bobber-->
<svg class="bobber-svg" id="bobber-svg" width="430" height="477" viewBox="0 0 430 477" fill="none" xmlns="http://www.w3.org/2000/svg">

	<!-- bottom target -->
	<g id="target-buttom">
		<path d="M222 211H208V445H222V211Z" fill="url(#paint0_linear)" stroke="black" stroke-width="2"/>
		<path d="M207 418H198V463H207V418Z" fill="url(#paint1_linear)" stroke="black" stroke-width="2"/>
		<path d="M232 418H223V463H232V418Z" fill="url(#paint2_linear)" stroke="black" stroke-width="2"/>
		<path d="M280 406H151V416H280V406Z" fill="url(#paint3_linear)" stroke="black" stroke-width="2"/>
		<path d="M285 463H147V476H285V463Z" fill="url(#paint4_linear)" stroke="black" stroke-width="2"/>	
		<path d="M216.48 220.742C215.953 217.751 213.1 215.753 210.109 216.281C207.117 216.808 205.12 219.661 205.647 222.652C206.175 225.644 209.027 227.641 212.019 227.114C215.01 226.586 217.008 223.734 216.48 220.742Z" fill="#FE0202" stroke="black"/>
	</g>

	<!-- Top target -->
	<g id="target-top">
		<path d="M73.9297 300.676L75.252 308.174L221.898 282.317L220.575 274.818L73.9297 300.676Z" fill="url(#paint5_linear)" stroke="black" stroke-width="2"/>
		<path d="M52.9934 187.597L54.3157 195.096L200.961 169.238L199.639 161.74L52.9934 187.597Z" fill="url(#paint6_linear)" stroke="black" stroke-width="2"/>
		<!-- Axe_center -->
		<path d="M192.096 277.946L194.118 289.412L223.423 284.244L221.401 272.779L192.096 277.946Z" fill="#FE0202" stroke="black" stroke-width="2"/>
		<!-- Axe_center -->
		<path d="M172.373 164.653L174.395 176.118L203.7 170.951L201.678 159.486L172.373 164.653Z" fill="#FE0202" stroke="black" stroke-width="2"/>
		<path d="M192.806 161.037L214.799 285.765L224.465 284.061L202.472 159.333L192.806 161.037Z" fill="#FE0202" stroke="black" stroke-width="2"/>
		<path d="M213.897 213.687L216.328 227.474L386.415 197.483L383.984 183.696L213.897 213.687Z" fill="url(#paint7_linear)" stroke="black" stroke-width="2"/>
		<path d="M380.522 171.588L387.294 209.995L422.171 203.846L415.399 165.438L380.522 171.588Z" fill="url(#paint8_linear)" stroke="black" stroke-width="2"/>
		<path d="M212.156 206.273C220.165 204.861 227.848 210.311 229.289 218.483C230.731 226.656 225.375 234.405 217.365 235.817C209.355 237.23 201.672 231.78 200.231 223.607C198.79 215.434 204.145 207.686 212.156 206.273Z" fill="#FE0202" stroke="black" stroke-width="2"/>
		<path d="M215.927 220.84C215.735 219.752 214.712 219.023 213.64 219.212C212.569 219.401 211.857 220.436 212.048 221.524C212.24 222.611 213.264 223.34 214.335 223.151C215.406 222.962 216.119 221.927 215.927 220.84Z" fill="black"/>
		<!-- zone Delta -->
		<path  id="zone-Delta" class="zone-point zone-Delta" d="M7.05067 236.592L50.8642 187.496L102.715 178.353L159.695 209.674L166.905 250.564L124.074 299.485L72.2229 308.627L14.2597 277.477L7.05067 236.592Z" fill="#E9AE6C" stroke="black"/>
		<!-- zone Charlie -->
		<path id="zone-Charly" class="zone-point zone-Charly" d="M9.21115 237.327L55.5917 209.002L93.7217 202.278L128.584 223.271L133.366 250.392L107.619 281.062L69.4835 287.786L16.2123 277.032L9.21115 237.327Z" fill="#E9AE6C" stroke="black"/>
		<!-- zone Alpha -->
		<path id="zone-Alpha" class="zone-point zone-Alpha" d="M64.8302 267.283L19.6844 262.171L17.3817 249.112L57.8895 227.89L81.2932 223.763L103.042 233.901L105.38 247.164L88.2484 263.154L64.8302 267.283Z" fill="#E9AE6C" stroke="black"/>
		<!-- letter D -->
		<path d="M56.8479 199.395L50.5468 200.506L50.2331 198.727C50.1366 198.18 50.1721 197.673 50.3403 197.209C50.5084 196.745 50.7959 196.359 51.2029 196.053C51.6093 195.743 52.1024 195.536 52.6818 195.431L53.0842 195.36C53.6787 195.255 54.2198 195.278 54.7076 195.43C55.1951 195.58 55.596 195.846 55.9109 196.231C56.2252 196.614 56.4349 197.086 56.5404 197.651L56.8479 199.395ZM51.0841 199.555L56.0221 198.684L55.8679 197.81C55.7549 197.169 55.4681 196.706 55.0074 196.422C54.546 196.134 53.9477 196.056 53.212 196.185L52.8441 196.25C52.1286 196.376 51.6029 196.643 51.2671 197.05C50.928 197.455 50.81 197.966 50.9131 198.585L51.0841 199.555Z" fill="black"/>
		<!-- letter D -->
		<path d="M74.2128 297.875L67.9116 298.986L67.598 297.208C67.5015 296.66 67.537 296.154 67.7052 295.69C67.8732 295.226 68.1607 294.84 68.5678 294.534C68.9742 294.224 69.4673 294.017 70.0466 293.912L70.4491 293.841C71.0435 293.736 71.5846 293.759 72.0725 293.911C72.5599 294.06 72.9609 294.327 73.2758 294.712C73.59 295.094 73.7998 295.567 73.9053 296.131L74.2128 297.875ZM68.449 298.036L73.387 297.165L73.2328 296.291C73.1198 295.649 72.8329 295.187 72.3723 294.903C71.9109 294.615 71.3125 294.536 70.5769 294.666L70.2089 294.731C69.4935 294.857 68.9678 295.123 68.632 295.531C68.2929 295.936 68.1749 296.447 68.2779 297.066L68.449 298.036Z" fill="black"/>
		<!-- letter C -->
		<path d="M67.7495 272.912C68.4297 272.873 68.9881 273.028 69.4249 273.38C69.8583 273.729 70.1355 274.246 70.2568 274.934C70.3879 275.677 70.2264 276.322 69.772 276.866C69.317 277.408 68.6424 277.757 67.748 277.915L67.1421 278.022C66.5564 278.125 66.0232 278.112 65.5422 277.983C65.0608 277.85 64.6679 277.613 64.3635 277.271C64.0566 276.93 63.8585 276.507 63.7694 276.002C63.6513 275.332 63.7442 274.762 64.0481 274.292C64.3491 273.823 64.824 273.496 65.4731 273.314L65.6203 274.149C65.131 274.309 64.7952 274.531 64.6129 274.813C64.4301 275.092 64.3768 275.448 64.4532 275.881C64.5468 276.412 64.8164 276.794 65.2623 277.028C65.7076 277.259 66.2923 277.31 67.0164 277.183L67.6267 277.075C68.3105 276.954 68.8292 276.716 69.1827 276.359C69.5363 276.002 69.6677 275.567 69.5772 275.054C69.4958 274.592 69.3297 274.257 69.0786 274.048C68.8243 273.837 68.4303 273.737 67.8967 273.748L67.7495 272.912Z" fill="black"/>
		<!-- letter C -->
		<path d="M57.6779 215.794C58.3582 215.754 58.9165 215.909 59.3534 216.261C59.7868 216.61 60.064 217.128 60.1852 217.815C60.3163 218.558 60.1549 219.203 59.7004 219.748C59.2455 220.289 58.5708 220.638 57.6764 220.796L57.0706 220.903C56.4848 221.006 55.9516 220.993 55.4706 220.864C54.9892 220.732 54.5964 220.494 54.292 220.152C53.985 219.811 53.787 219.388 53.6979 218.883C53.5798 218.213 53.6727 217.643 53.9766 217.173C54.2775 216.704 54.7525 216.377 55.4016 216.195L55.5488 217.03C55.0594 217.191 54.7237 217.412 54.5414 217.694C54.3586 217.973 54.3052 218.329 54.3816 218.762C54.4752 219.293 54.7449 219.675 55.1908 219.909C55.6361 220.14 56.2208 220.191 56.9449 220.064L57.5552 219.956C58.2389 219.836 58.7577 219.597 59.1112 219.24C59.4648 218.883 59.5962 218.448 59.5057 217.935C59.4243 217.473 59.2581 217.138 59.0071 216.929C58.7528 216.718 58.3588 216.618 57.8252 216.629L57.6779 215.794Z" fill="black"/>
		<!-- letter A -->
		<path d="M63.446 246.43L63.9116 249.071L65.6606 249.374L65.8117 250.23L59.0863 248.936L58.958 248.208L64.8342 244.687L64.9844 245.539L63.446 246.43ZM63.1834 248.94L62.8057 246.798L60.0477 248.39L63.1834 248.94Z" fill="black"/>

	</g>

	<!-- lienear_color_metal -->
	<defs>
		<linearGradient id="paint0_linear" x1="207.031" y1="326.155" x2="223.031" y2="326.155" gradientUnits="userSpaceOnUse">
			<stop stop-color="#363636"/>
			<stop offset="0.490794" stop-color="#868686"/>
			<stop offset="1" stop-color="#363636"/>
		</linearGradient>
		<linearGradient id="paint1_linear" x1="197.021" y1="440.133" x2="208.021" y2="440.133" gradientUnits="userSpaceOnUse">
			<stop stop-color="#363636"/>
			<stop offset="0.490794" stop-color="#868686"/>
			<stop offset="1" stop-color="#363636"/>
		</linearGradient>
		<linearGradient id="paint2_linear" x1="222.021" y1="440.133" x2="233.021" y2="440.133" gradientUnits="userSpaceOnUse">
			<stop stop-color="#363636"/>
			<stop offset="0.490794" stop-color="#868686"/>
			<stop offset="1" stop-color="#363636"/>
		</linearGradient>
		<linearGradient id="paint3_linear" x1="215.5" y1="415.4" x2="215.5" y2="406.6" gradientUnits="userSpaceOnUse">
			<stop stop-color="#363636"/>
			<stop offset="0.490794" stop-color="#868686"/>
			<stop offset="1" stop-color="#363636"/>
		</linearGradient>
		<linearGradient id="paint4_linear" x1="216" y1="475" x2="216" y2="464" gradientUnits="userSpaceOnUse">
			<stop stop-color="#363636"/>
			<stop offset="0.490794" stop-color="#868686"/>
			<stop offset="1" stop-color="#363636"/>
		</linearGradient>
		<linearGradient id="paint5_linear" x1="147.583" y1="296.418" x2="145.914" y2="286.95" gradientUnits="userSpaceOnUse">
			<stop stop-color="#363636"/>
			<stop offset="0.490794" stop-color="#868686"/>
			<stop offset="1" stop-color="#363636"/>
		</linearGradient>
		<linearGradient id="paint6_linear" x1="126.647" y1="183.339" x2="124.978" y2="173.87" gradientUnits="userSpaceOnUse">
			<stop stop-color="#363636"/>
			<stop offset="0.490794" stop-color="#868686"/>
			<stop offset="1" stop-color="#363636"/>
		</linearGradient>
		<linearGradient id="paint7_linear" x1="300.194" y1="213.671" x2="297.416" y2="197.914" gradientUnits="userSpaceOnUse">
			<stop stop-color="#363636"/>
			<stop offset="0.490794" stop-color="#868686"/>
			<stop offset="1" stop-color="#363636"/>
		</linearGradient>
		<linearGradient id="paint8_linear" x1="404.604" y1="207.879" x2="397.485" y2="167.502" gradientUnits="userSpaceOnUse">
			<stop stop-color="#363636"/>
			<stop offset="0.490794" stop-color="#868686"/>
			<stop offset="1" stop-color="#363636"/>
		</linearGradient>
</defs>

</svg>
