<svg width="193" height="482" viewBox="0 0 193 482" fill="none" xmlns="http://www.w3.org/2000/svg">
<path d="M103 207H89V441H103V207Z" fill="url(#paint0_linear)" stroke="black" stroke-width="2"/>
<path d="M88 414H79V459H88V414Z" fill="url(#paint1_linear)" stroke="black" stroke-width="2"/>
<path d="M113 414H104V459H113V414Z" fill="url(#paint2_linear)" stroke="black" stroke-width="2"/>
<path d="M161 402H32V412H161V402Z" fill="url(#paint3_linear)" stroke="black" stroke-width="2"/>
<path d="M166 459H28V472H166V459Z" fill="url(#paint4_linear)" stroke="black" stroke-width="2"/>
<path d="M95.9995 219.5C99.037 219.5 101.499 217.038 101.499 214C101.499 210.962 99.037 208.5 95.9995 208.5C92.9619 208.5 90.4995 210.962 90.4995 214C90.4995 217.038 92.9619 219.5 95.9995 219.5Z" fill="#FE0202" stroke="black"/>
<path d="M42.0339 65.235H34.4195V214.143H42.0339V65.235Z" fill="url(#paint5_linear)" stroke="black" stroke-width="2"/>
<path d="M157.03 64.2526H149.415V213.161H157.03V64.2526Z" fill="url(#paint6_linear)" stroke="black" stroke-width="2"/>
<path d="M43.8985 185.553H32.2565V215.31H43.8985V185.553Z" fill="#FE0202" stroke="black" stroke-width="2"/>
<path d="M158.895 185.803H147.253V215.56H158.895V185.803Z" fill="#FE0202" stroke="black" stroke-width="2"/>
<path d="M158.908 206.553H32.2565V216.368H158.908V206.553Z" fill="#FE0202" stroke="black" stroke-width="2"/>
<path d="M103.396 218.181H89.3965V390.892H103.396V218.181Z" fill="url(#paint7_linear)" stroke="black" stroke-width="2"/>
<path d="M115.921 389.585H76.9214V425H115.921V389.585Z" fill="url(#paint8_linear)" stroke="black" stroke-width="2"/>
<path d="M110.999 217.754C110.999 225.887 104.298 232.507 95.9994 232.507C87.7005 232.507 80.9995 225.887 80.9995 217.754C80.9995 209.62 87.7005 203 95.9994 203C104.298 203 110.999 209.62 110.999 217.754Z" fill="#FE0202" stroke="black" stroke-width="2"/>
<path d="M95.9995 218.938C97.104 218.938 97.9995 218.057 97.9995 216.969C97.9995 215.882 97.104 215 95.9995 215C94.8949 215 93.9995 215.882 93.9995 216.969C93.9995 218.057 94.8949 218.938 95.9995 218.938Z" fill="black"/>
<path d="M116.757 10.5L157.5 62.1734V114.824L116.76 165.5H75.2391L34.4995 114.824V62.1734L75.242 10.5H116.757Z" fill="#E9AE6C" stroke="black"/>
<path d="M115.659 12.5L135.5 63.0945V101.813L108.772 132.5H81.2327L55.4995 101.818V63.0945L75.3405 12.5H115.659Z" fill="#E9AE6C" stroke="black"/>
<path d="M102.634 18.5L116.5 62.0776V85.8424L102.739 105.5H89.2709L76.4995 85.8518V62.0723L89.3732 18.5H102.634Z" fill="#E9AE6C" stroke="black"/>
<path d="M144.742 66V59.6016H146.548C147.104 59.6016 147.597 59.7246 148.024 59.9707C148.452 60.2168 148.782 60.5669 149.013 61.021C149.248 61.4751 149.366 61.9966 149.369 62.5854V62.9941C149.369 63.5977 149.252 64.1265 149.018 64.5806C148.786 65.0347 148.454 65.3833 148.02 65.6265C147.589 65.8696 147.087 65.9941 146.513 66H144.742ZM145.585 60.2959V65.3101H146.473C147.124 65.3101 147.629 65.1079 147.989 64.7036C148.353 64.2993 148.534 63.7236 148.534 62.9766V62.603C148.534 61.8765 148.363 61.3125 148.02 60.9111C147.68 60.5068 147.197 60.3018 146.57 60.2959H145.585Z" fill="black"/>
<path d="M44.7424 66V59.6016H46.5484C47.1044 59.6016 47.5974 59.7246 48.0244 59.9707C48.4524 60.2168 48.7824 60.5669 49.0134 61.021C49.2484 61.4751 49.3664 61.9966 49.3694 62.5854V62.9941C49.3694 63.5977 49.2524 64.1265 49.0184 64.5806C48.7864 65.0347 48.4544 65.3833 48.0204 65.6265C47.5894 65.8696 47.0874 65.9941 46.5134 66H44.7424ZM45.5854 60.2959V65.3101H46.4734C47.1244 65.3101 47.6294 65.1079 47.9894 64.7036C48.3534 64.2993 48.5344 63.7236 48.5344 62.9766V62.603C48.5344 61.8765 48.3634 61.3125 48.0204 60.9111C47.6804 60.5068 47.1974 60.3018 46.5704 60.2959H45.5854Z" fill="black"/>
<path d="M70.4485 63.9697C70.3695 64.6465 70.1195 65.1694 69.6975 65.5386C69.2785 65.9048 68.7205 66.0879 68.0225 66.0879C67.2675 66.0879 66.6605 65.8169 66.2035 65.2749C65.7495 64.7329 65.5225 64.0078 65.5225 63.0996V62.4844C65.5225 61.8896 65.6275 61.3667 65.8385 60.9155C66.0525 60.4644 66.3545 60.1187 66.7445 59.8784C67.1335 59.6353 67.5845 59.5137 68.0975 59.5137C68.7775 59.5137 69.3225 59.7041 69.7325 60.085C70.1425 60.4629 70.3815 60.9873 70.4485 61.6582H69.6005C69.5275 61.1484 69.3675 60.7793 69.1215 60.5508C68.8785 60.3223 68.5375 60.208 68.0975 60.208C67.5585 60.208 67.1355 60.4072 66.8275 60.8057C66.5225 61.2041 66.3705 61.771 66.3705 62.5063V63.126C66.3705 63.8203 66.5155 64.3726 66.8055 64.7827C67.0955 65.1929 67.5015 65.3979 68.0225 65.3979C68.4915 65.3979 68.8505 65.2925 69.0995 65.0815C69.3515 64.8677 69.5185 64.4971 69.6005 63.9697H70.4485Z" fill="black"/>
<path d="M128.448 63.9697C128.369 64.6465 128.119 65.1694 127.697 65.5386C127.278 65.9048 126.72 66.0879 126.022 66.0879C125.267 66.0879 124.66 65.8169 124.203 65.2749C123.749 64.7329 123.522 64.0078 123.522 63.0996V62.4844C123.522 61.8896 123.627 61.3667 123.838 60.9155C124.052 60.4644 124.354 60.1187 124.744 59.8784C125.133 59.6353 125.584 59.5137 126.097 59.5137C126.777 59.5137 127.322 59.7041 127.732 60.085C128.142 60.4629 128.381 60.9873 128.448 61.6582H127.6C127.527 61.1484 127.367 60.7793 127.121 60.5508C126.878 60.3223 126.537 60.208 126.097 60.208C125.558 60.208 125.135 60.4072 124.827 60.8057C124.522 61.2041 124.37 61.771 124.37 62.5063V63.126C124.37 63.8203 124.515 64.3726 124.805 64.7827C125.095 65.1929 125.501 65.3979 126.022 65.3979C126.491 65.3979 126.85 65.2925 127.099 65.0815C127.351 64.8677 127.518 64.4971 127.6 63.9697H128.448Z" fill="black"/>
<path d="M97.2754 64.3301H94.5944L93.9924 66H93.1224L95.5654 59.6016H96.3044L98.7514 66H97.8864L97.2754 64.3301ZM94.8494 63.6357H97.0244L95.9354 60.6431L94.8494 63.6357Z" fill="black"/>
<defs>
<linearGradient id="paint0_linear" x1="88.031" y1="322.155" x2="104.031" y2="322.155" gradientUnits="userSpaceOnUse">
<stop stop-color="#363636"/>
<stop offset="0.490794" stop-color="#868686"/>
<stop offset="1" stop-color="#363636"/>
</linearGradient>
<linearGradient id="paint1_linear" x1="78.021" y1="436.133" x2="89.021" y2="436.133" gradientUnits="userSpaceOnUse">
<stop stop-color="#363636"/>
<stop offset="0.490794" stop-color="#868686"/>
<stop offset="1" stop-color="#363636"/>
</linearGradient>
<linearGradient id="paint2_linear" x1="103.021" y1="436.133" x2="114.021" y2="436.133" gradientUnits="userSpaceOnUse">
<stop stop-color="#363636"/>
<stop offset="0.490794" stop-color="#868686"/>
<stop offset="1" stop-color="#363636"/>
</linearGradient>
<linearGradient id="paint3_linear" x1="96.5" y1="411.4" x2="96.5" y2="402.6" gradientUnits="userSpaceOnUse">
<stop stop-color="#363636"/>
<stop offset="0.490794" stop-color="#868686"/>
<stop offset="1" stop-color="#363636"/>
</linearGradient>
<linearGradient id="paint4_linear" x1="97" y1="471" x2="97" y2="460" gradientUnits="userSpaceOnUse">
<stop stop-color="#363636"/>
<stop offset="0.490794" stop-color="#868686"/>
<stop offset="1" stop-color="#363636"/>
</linearGradient>
<linearGradient id="paint5_linear" x1="33.4375" y1="138.509" x2="43.0515" y2="138.509" gradientUnits="userSpaceOnUse">
<stop stop-color="#363636"/>
<stop offset="0.490794" stop-color="#868686"/>
<stop offset="1" stop-color="#363636"/>
</linearGradient>
<linearGradient id="paint6_linear" x1="148.433" y1="137.527" x2="158.048" y2="137.527" gradientUnits="userSpaceOnUse">
<stop stop-color="#363636"/>
<stop offset="0.490794" stop-color="#868686"/>
<stop offset="1" stop-color="#363636"/>
</linearGradient>
<linearGradient id="paint7_linear" x1="88.4265" y1="303.17" x2="104.426" y2="303.17" gradientUnits="userSpaceOnUse">
<stop stop-color="#363636"/>
<stop offset="0.490794" stop-color="#868686"/>
<stop offset="1" stop-color="#363636"/>
</linearGradient>
<linearGradient id="paint8_linear" x1="75.9994" y1="407" x2="116.999" y2="407" gradientUnits="userSpaceOnUse">
<stop stop-color="#363636"/>
<stop offset="0.490794" stop-color="#868686"/>
<stop offset="1" stop-color="#363636"/>
</linearGradient>
</defs>
</svg>
