<svg width="170" height="350" viewBox="0 0 170 350" fill="none" xmlns="http://www.w3.org/2000/svg">
<path d="M115.214 271.301L125.918 331.893L132.651 330.708L121.947 270.116L115.214 271.301Z" fill="#2E80D0" stroke="black"/>
<path d="M47.7043 270.765L37 331.357L43.7328 332.542L54.4371 271.95L47.7043 270.765Z" fill="#2E80D0" stroke="black"/>
<path d="M126.312 296.872H43.5878V303.014H126.312V296.872Z" fill="#2E80D0" stroke="black"/>
<path d="M48.0243 54.6018H42.555V290.468H48.0243V54.6018Z" fill="#8E6041" stroke="black"/>
<path d="M126.646 53.9181H121.177V290.468H126.646V53.9181Z" fill="#8E6041" stroke="black"/>
<path d="M42.7205 52.657L70.4931 17.5H98.7228L126.495 52.657V88.4727L98.7257 122.95H70.4902L42.7205 88.4727V52.657Z" fill="#E9AE6C" stroke="black"/>
<path d="M57.0775 53.2604L70.5917 18.8647H97.9406L111.455 53.2604V79.5907L93.2684 100.432H74.5858L57.0775 79.596V53.2604Z" fill="#E9AE6C" stroke="black"/>
<path d="M71.4346 52.5558L80.1957 22.959H89.0282L98.465 52.5611V68.7024L89.1336 82.0077H80.0933L71.4346 68.7118V52.5558Z" fill="#E9AE6C" stroke="black"/>
<path d="M117.932 55.2128V50.8467H119.167C119.547 50.8467 119.884 50.9306 120.176 51.0985C120.469 51.2665 120.694 51.5054 120.852 51.8152C121.013 52.1251 121.093 52.481 121.095 52.8827V53.1616C121.095 53.5735 121.015 53.9343 120.855 54.2442C120.697 54.5541 120.47 54.7919 120.173 54.9579C119.879 55.1238 119.535 55.2087 119.143 55.2128H117.932ZM118.508 51.3204V54.742H119.116C119.561 54.742 119.906 54.604 120.152 54.3281C120.401 54.0523 120.525 53.6594 120.525 53.1497V52.8947C120.525 52.399 120.408 52.0141 120.173 51.7402C119.941 51.4644 119.611 51.3245 119.182 51.3204H118.508Z" fill="black"/>
<path d="M49.565 55.2128V50.8467H50.7997C51.1798 50.8467 51.5169 50.9306 51.8088 51.0985C52.1014 51.2665 52.327 51.5054 52.485 51.8152C52.6456 52.1251 52.7263 52.481 52.7283 52.8827V53.1616C52.7283 53.5735 52.6484 53.9343 52.4884 54.2442C52.3298 54.5541 52.1028 54.7919 51.8061 54.9579C51.5114 55.1238 51.1682 55.2087 50.7758 55.2128H49.565ZM50.1413 51.3204V54.742H50.7484C51.1935 54.742 51.5388 54.604 51.7849 54.3281C52.0337 54.0523 52.1575 53.6594 52.1575 53.1497V52.8947C52.1575 52.399 52.0406 52.0141 51.8061 51.7402C51.5736 51.4644 51.2434 51.3245 50.8148 51.3204H50.1413Z" fill="black"/>
<path d="M67.1395 53.8274C67.0855 54.2892 66.9146 54.646 66.626 54.898C66.3396 55.1478 65.9581 55.2728 65.4809 55.2728C64.9647 55.2728 64.5497 55.0879 64.2373 54.718C63.9269 54.3482 63.7717 53.8534 63.7717 53.2337V52.8139C63.7717 52.408 63.8435 52.0512 63.9878 51.7433C64.1341 51.4355 64.3405 51.1996 64.6072 51.0356C64.8731 50.8697 65.1815 50.7867 65.5322 50.7867C65.9971 50.7867 66.3697 50.9167 66.65 51.1766C66.9303 51.4345 67.0937 51.7923 67.1395 52.2501H66.5597C66.5098 51.9022 66.4004 51.6504 66.2323 51.4944C66.0661 51.3385 65.833 51.2605 65.5322 51.2605C65.1637 51.2605 64.8745 51.3964 64.6639 51.6684C64.4554 51.9402 64.3515 52.3271 64.3515 52.8288V53.2517C64.3515 53.7254 64.4506 54.1023 64.6489 54.3822C64.8471 54.6621 65.1247 54.802 65.4809 54.802C65.8015 54.802 66.047 54.73 66.2172 54.586C66.3895 54.4402 66.5037 54.1873 66.5597 53.8274H67.1395Z" fill="black"/>
<path d="M106.792 53.8274C106.738 54.2892 106.567 54.646 106.279 54.898C105.992 55.1478 105.611 55.2728 105.134 55.2728C104.618 55.2728 104.203 55.0879 103.89 54.718C103.58 54.3482 103.425 53.8534 103.425 53.2337V52.8139C103.425 52.408 103.496 52.0512 103.641 51.7433C103.787 51.4355 103.993 51.1996 104.26 51.0356C104.526 50.8697 104.834 50.7867 105.185 50.7867C105.65 50.7867 106.023 50.9167 106.303 51.1766C106.583 51.4345 106.747 51.7923 106.792 52.2501H106.213C106.163 51.9022 106.053 51.6504 105.885 51.4944C105.719 51.3385 105.486 51.2605 105.185 51.2605C104.817 51.2605 104.527 51.3964 104.317 51.6684C104.108 51.9402 104.004 52.3271 104.004 52.8288V53.2517C104.004 53.7254 104.103 54.1023 104.302 54.3822C104.5 54.6621 104.778 54.802 105.134 54.802C105.454 54.802 105.7 54.73 105.87 54.586C106.042 54.4402 106.157 54.1873 106.213 53.8274H106.792Z" fill="black"/>
<path d="M85.4802 54.0733H83.6473L83.2357 55.2128H82.6409L84.3111 50.8467H84.8164L86.4893 55.2128H85.8979L85.4802 54.0733ZM83.8216 53.5994H85.3086L84.5641 51.5574L83.8216 53.5994Z" fill="black"/>
<path d="M42.2205 277.766L42.2205 303.355H49.0572V277.766H42.2205Z" fill="#2E80D0" stroke="black"/>
<path d="M120.842 277.766V303.355H127.679V277.766H120.842Z" fill="#2E80D0" stroke="black"/>
</svg>
