<svg width="144" height="91" viewBox="0 0 144 91" fill="none" xmlns="http://www.w3.org/2000/svg">
<path d="M92.7578 12.5L133.5 64.075V77.5H114H55H10.5V64.075L51.2422 12.5H92.7578Z" fill="#E9AE6C" stroke="black"/>
<path d="M91.6592 14.4962L111.5 64.9941V77.5H92H57H31.5V64.9941L51.3408 14.4962H91.6592Z" fill="#E9AE6C" stroke="black"/>
<path d="M78.6346 20.4848L92.5 63.979V77.5H81H66.5H52.5V63.9737L65.3734 20.4848H78.6346Z" fill="#E9AE6C" stroke="black"/>
<path d="M120.743 67.8937V61.5074H122.549C123.105 61.5074 123.598 61.6302 124.025 61.8758C124.453 62.1215 124.783 62.4709 125.014 62.9242C125.249 63.3774 125.367 63.8979 125.37 64.4856V64.8935C125.37 65.496 125.253 66.0238 125.019 66.477C124.787 66.9302 124.455 67.2782 124.021 67.5209C123.59 67.7635 123.088 67.8878 122.514 67.8937H120.743ZM121.586 62.2004V67.2051H122.474C123.125 67.2051 123.63 67.0033 123.99 66.5998C124.354 66.1962 124.535 65.6216 124.535 64.876V64.5031C124.535 63.778 124.364 63.2151 124.021 62.8145C123.681 62.4109 123.198 62.2063 122.571 62.2004H121.586Z" fill="black"/>
<path d="M20.7429 67.8937V61.5074H22.5489C23.1049 61.5074 23.5979 61.6302 24.0249 61.8758C24.4529 62.1215 24.7829 62.4709 25.0139 62.9242C25.2489 63.3774 25.3669 63.8979 25.3699 64.4856V64.8935C25.3699 65.496 25.2529 66.0238 25.0189 66.477C24.7869 66.9302 24.4549 67.2782 24.0209 67.5209C23.5899 67.7635 23.0879 67.8878 22.5139 67.8937H20.7429ZM21.5859 62.2004V67.2051H22.4739C23.1249 67.2051 23.6299 67.0033 23.9899 66.5998C24.3539 66.1962 24.5349 65.6216 24.5349 64.876V64.5031C24.5349 63.778 24.3639 63.2151 24.0209 62.8145C23.6809 62.4109 23.1979 62.2063 22.5709 62.2004H21.5859Z" fill="black"/>
<path d="M46.449 65.8672C46.37 66.5427 46.12 67.0646 45.698 67.4331C45.279 67.7986 44.7209 67.9814 44.0229 67.9814C43.2679 67.9814 42.6609 67.7109 42.2039 67.1699C41.7499 66.629 41.5229 65.9052 41.5229 64.9988V64.3847C41.5229 63.7911 41.628 63.2692 41.839 62.8188C42.053 62.3686 42.3549 62.0235 42.7449 61.7837C43.1339 61.541 43.585 61.4197 44.098 61.4197C44.778 61.4197 45.323 61.6097 45.733 61.9899C46.143 62.3671 46.382 62.8905 46.449 63.5601H45.601C45.528 63.0513 45.3679 62.6829 45.1219 62.4548C44.8789 62.2267 44.538 62.1127 44.098 62.1127C43.559 62.1127 43.136 62.3115 42.828 62.7092C42.523 63.1069 42.371 63.6727 42.371 64.4066V65.0251C42.371 65.7181 42.516 66.2694 42.806 66.6787C43.096 67.0881 43.5019 67.2927 44.0229 67.2927C44.4919 67.2927 44.851 67.1875 45.1 66.9769C45.352 66.7635 45.519 66.3936 45.601 65.8672H46.449Z" fill="black"/>
<path d="M104.449 65.8672C104.37 66.5427 104.12 67.0646 103.698 67.4331C103.279 67.7986 102.721 67.9814 102.023 67.9814C101.268 67.9814 100.661 67.7109 100.204 67.1699C99.7499 66.629 99.5229 65.9052 99.5229 64.9988V64.3847C99.5229 63.7911 99.628 63.2692 99.839 62.8188C100.053 62.3686 100.355 62.0235 100.745 61.7837C101.134 61.541 101.585 61.4197 102.098 61.4197C102.778 61.4197 103.323 61.6097 103.733 61.9899C104.143 62.3671 104.382 62.8905 104.449 63.5601H103.601C103.528 63.0513 103.368 62.6829 103.122 62.4548C102.879 62.2267 102.538 62.1127 102.098 62.1127C101.559 62.1127 101.136 62.3115 100.828 62.7092C100.523 63.1069 100.371 63.6727 100.371 64.4066V65.0251C100.371 65.7181 100.516 66.2694 100.806 66.6787C101.096 67.0881 101.502 67.2927 102.023 67.2927C102.492 67.2927 102.851 67.1875 103.1 66.9769C103.352 66.7635 103.519 66.3936 103.601 65.8672H104.449Z" fill="black"/>
<path d="M73.2759 66.227H70.5949L69.9929 67.8937H69.1229L71.5659 61.5074H72.3049L74.7519 67.8937H73.8869L73.2759 66.227ZM70.8499 65.5339H73.0249L71.9359 62.547L70.8499 65.5339Z" fill="black"/>
</svg>
