<svg width="100" height="128" viewBox="0 0 100 128" fill="none" xmlns="http://www.w3.org/2000/svg">
<path d="M8.5 46.84L36.3474 11.5H64.6526L92.5 46.84V82.8432L64.6555 117.5H36.3445L8.5 82.8432V46.84Z" fill="#E9AE6C" stroke="black"/>
<path d="M22.5 47.0787L36.1672 12.5H63.8328L77.5 47.0787V73.5472L59.1069 94.5H40.2074L22.5 73.5525V47.0787Z" fill="#E9AE6C" stroke="black"/>
<path d="M37.5 46.5713L46.2533 16.5H55.0718L64.5 46.5765V62.9807L55.1765 76.5H46.1516L37.5 62.99V46.5713Z" fill="#E9AE6C" stroke="black"/>
<path d="M84 49V45H85.171C85.5315 45 85.8511 45.0769 86.1279 45.2307C86.4054 45.3846 86.6194 45.6035 86.7692 45.8873C86.9216 46.1712 86.9981 46.4973 87 46.8653V47.1208C87 47.4982 86.9242 47.8288 86.7724 48.1127C86.622 48.3965 86.4067 48.6145 86.1253 48.7665C85.8459 48.9185 85.5204 48.9963 85.1483 49H84ZM84.5466 45.434V48.5687H85.1223C85.5444 48.5687 85.8718 48.4423 86.1052 48.1895C86.3413 47.9368 86.4586 47.5769 86.4586 47.1099V46.8763C86.4586 46.4222 86.3477 46.0696 86.1253 45.8186C85.9049 45.5659 85.5918 45.4377 85.1852 45.434H84.5466Z" fill="black"/>
<path d="M15 49V45H16.5613C17.0419 45 17.4681 45.0769 17.8373 45.2307C18.2073 45.3846 18.4926 45.6035 18.6923 45.8873C18.8954 46.1712 18.9974 46.4973 19 46.8653V47.1208C19 47.4982 18.8989 47.8288 18.6966 48.1127C18.496 48.3965 18.209 48.6145 17.8338 48.7665C17.4612 48.9185 17.0272 48.9963 16.531 49H15ZM15.7288 45.434V48.5687H16.4964C17.0592 48.5687 17.4958 48.4423 17.807 48.1895C18.1217 47.9368 18.2782 47.5769 18.2782 47.1099V46.8763C18.2782 46.4222 18.1303 46.0696 17.8338 45.8186C17.5399 45.5659 17.1223 45.4377 16.5803 45.434H15.7288Z" fill="black"/>
<path d="M33 47.7112C32.9519 48.123 32.7996 48.4411 32.5426 48.6658C32.2875 48.8886 31.9476 49 31.5225 49C31.0627 49 30.6931 48.8351 30.4147 48.5053C30.1382 48.1756 30 47.7344 30 47.1818V46.8075C30 46.4456 30.064 46.1274 30.1925 45.8529C30.3228 45.5784 30.5067 45.3681 30.7442 45.2219C30.9811 45.074 31.2558 45 31.5682 45C31.9823 45 32.3143 45.1158 32.5639 45.3476C32.8136 45.5775 32.9592 45.8966 33 46.3048H32.4836C32.4391 45.9946 32.3417 45.77 32.1918 45.631C32.0438 45.492 31.8362 45.4224 31.5682 45.4224C31.24 45.4224 30.9823 45.5436 30.7948 45.7861C30.609 46.0285 30.5164 46.3734 30.5164 46.8208V47.1979C30.5164 47.6203 30.6048 47.9563 30.7814 48.2059C30.958 48.4554 31.2052 48.5802 31.5225 48.5802C31.8082 48.5802 32.0268 48.516 32.1784 48.3877C32.3319 48.2576 32.4336 48.0321 32.4836 47.7112H33Z" fill="black"/>
<path d="M73 47.7112C72.9359 48.123 72.7328 48.4411 72.3902 48.6658C72.0499 48.8886 71.5968 49 71.03 49C70.417 49 69.9241 48.8351 69.553 48.5053C69.1843 48.1756 69 47.7344 69 47.1818V46.8075C69 46.4456 69.0853 46.1274 69.2566 45.8529C69.4304 45.5784 69.6756 45.3681 69.9923 45.2219C70.3082 45.074 70.6744 45 71.091 45C71.6431 45 72.0857 45.1158 72.4186 45.3476C72.7515 45.5775 72.9456 45.8966 73 46.3048H72.3114C72.2521 45.9946 72.1222 45.77 71.9224 45.631C71.7251 45.492 71.4482 45.4224 71.091 45.4224C70.6533 45.4224 70.3098 45.5436 70.0597 45.7861C69.812 46.0285 69.6886 46.3734 69.6886 46.8208V47.1979C69.6886 47.6203 69.8063 47.9563 70.0418 48.2059C70.2773 48.4554 70.607 48.5802 71.03 48.5802C71.4109 48.5802 71.7024 48.516 71.9046 48.3877C72.1092 48.2576 72.2448 48.0321 72.3114 47.7112H73Z" fill="black"/>
<path d="M51.2134 47.9561H49.7845L49.4637 49H49L50.302 45H50.6959L52 49H51.539L51.2134 47.9561ZM49.9204 47.5219H51.0796L50.4992 45.6511L49.9204 47.5219Z" fill="black"/>
</svg>
