<svg width="144" height="172" viewBox="0 0 144 172" fill="none" xmlns="http://www.w3.org/2000/svg">
<path d="M10.5 60.075L51.2422 8.5H92.7578L133.5 60.075V112.624L92.7607 163.204H51.2393L10.5 112.624V60.075Z" fill="#E9AE6C" stroke="black"/>
<path d="M31.5 60.9941L51.3408 10.4962H91.6592L111.5 60.9941V99.6379L84.7727 130.267H57.2329L31.5 99.6432V60.9941Z" fill="#E9AE6C" stroke="black"/>
<path d="M52.5 59.9737L65.3734 16.4848H78.6346L92.5 59.979V83.6979L78.74 103.318H65.2711L52.5 83.7073V59.9737Z" fill="#E9AE6C" stroke="black"/>
<path d="M120.743 63.8937V57.5074H122.549C123.105 57.5074 123.598 57.6302 124.025 57.8758C124.453 58.1215 124.783 58.4709 125.014 58.9242C125.249 59.3774 125.367 59.8979 125.37 60.4856V60.8935C125.37 61.496 125.253 62.0238 125.019 62.477C124.787 62.9302 124.455 63.2782 124.021 63.5209C123.59 63.7635 123.088 63.8878 122.514 63.8937H120.743ZM121.586 58.2004V63.2051H122.474C123.125 63.2051 123.63 63.0033 123.99 62.5998C124.354 62.1962 124.535 61.6216 124.535 60.876V60.5031C124.535 59.778 124.364 59.2151 124.021 58.8145C123.681 58.4109 123.198 58.2063 122.571 58.2004H121.586Z" fill="black"/>
<path d="M20.7429 63.8937V57.5074H22.5489C23.1049 57.5074 23.5979 57.6302 24.0249 57.8758C24.4529 58.1215 24.7829 58.4709 25.0139 58.9242C25.2489 59.3774 25.3669 59.8979 25.3699 60.4856V60.8935C25.3699 61.496 25.2529 62.0238 25.0189 62.477C24.7869 62.9302 24.4549 63.2782 24.0209 63.5209C23.5899 63.7635 23.0879 63.8878 22.5139 63.8937H20.7429ZM21.5859 58.2004V63.2051H22.4739C23.1249 63.2051 23.6299 63.0033 23.9899 62.5998C24.3539 62.1962 24.5349 61.6216 24.5349 60.876V60.5031C24.5349 59.778 24.3639 59.2151 24.0209 58.8145C23.6809 58.4109 23.1979 58.2063 22.5709 58.2004H21.5859Z" fill="black"/>
<path d="M46.449 61.8672C46.37 62.5427 46.12 63.0646 45.698 63.4331C45.279 63.7986 44.7209 63.9814 44.0229 63.9814C43.2679 63.9814 42.6609 63.7109 42.2039 63.1699C41.7499 62.629 41.5229 61.9052 41.5229 60.9988V60.3847C41.5229 59.7911 41.628 59.2692 41.839 58.8188C42.053 58.3686 42.3549 58.0235 42.7449 57.7837C43.1339 57.541 43.585 57.4197 44.098 57.4197C44.778 57.4197 45.323 57.6097 45.733 57.9899C46.143 58.3671 46.382 58.8905 46.449 59.5601H45.601C45.528 59.0513 45.3679 58.6829 45.1219 58.4548C44.8789 58.2267 44.538 58.1127 44.098 58.1127C43.559 58.1127 43.136 58.3115 42.828 58.7092C42.523 59.1069 42.371 59.6727 42.371 60.4066V61.0251C42.371 61.7181 42.516 62.2694 42.806 62.6787C43.096 63.0881 43.5019 63.2927 44.0229 63.2927C44.4919 63.2927 44.851 63.1875 45.1 62.9769C45.352 62.7635 45.519 62.3936 45.601 61.8672H46.449Z" fill="black"/>
<path d="M104.449 61.8672C104.37 62.5427 104.12 63.0646 103.698 63.4331C103.279 63.7986 102.721 63.9814 102.023 63.9814C101.268 63.9814 100.661 63.7109 100.204 63.1699C99.7499 62.629 99.5229 61.9052 99.5229 60.9988V60.3847C99.5229 59.7911 99.628 59.2692 99.839 58.8188C100.053 58.3686 100.355 58.0235 100.745 57.7837C101.134 57.541 101.585 57.4197 102.098 57.4197C102.778 57.4197 103.323 57.6097 103.733 57.9899C104.143 58.3671 104.382 58.8905 104.449 59.5601H103.601C103.528 59.0513 103.368 58.6829 103.122 58.4548C102.879 58.2267 102.538 58.1127 102.098 58.1127C101.559 58.1127 101.136 58.3115 100.828 58.7092C100.523 59.1069 100.371 59.6727 100.371 60.4066V61.0251C100.371 61.7181 100.516 62.2694 100.806 62.6787C101.096 63.0881 101.502 63.2927 102.023 63.2927C102.492 63.2927 102.851 63.1875 103.1 62.9769C103.352 62.7635 103.519 62.3936 103.601 61.8672H104.449Z" fill="black"/>
<path d="M73.2759 62.227H70.5949L69.9929 63.8937H69.1229L71.5659 57.5074H72.3049L74.7519 63.8937H73.8869L73.2759 62.227ZM70.8499 61.5339H73.0249L71.9359 58.547L70.8499 61.5339Z" fill="black"/>
</svg>
