<svg width="317" height="240" viewBox="0 0 317 240" fill="none" xmlns="http://www.w3.org/2000/svg">
<rect width="317" height="240" fill="white"/>
<path d="M14.4969 171.5L13.5031 9.5H28.4969L27.5031 171.5H14.4969Z" fill="#2C3137" stroke="black"/>
<path d="M288.497 171.5L287.503 9.5H302.497L301.503 171.5H288.497Z" fill="#2C3137" stroke="black"/>
<path d="M9.49524 234.5L7.50481 26.5H308.49L304.509 234.5H9.49524Z" fill="#2C3137" stroke="black"/>
<path d="M7.91084 26.5L14.2745 16.5H301.726L308.089 26.5H7.91084Z" fill="#2C3137" stroke="black"/>
<path d="M137 51.5H136.758L136.608 51.6901L95.6077 103.591L95.5 103.728V103.901V156.801V156.977L95.6106 157.114L136.611 208.018L136.761 208.204H137H179H179.239L179.389 208.018L220.389 157.114L220.5 156.977V156.801V103.901V103.728L220.392 103.591L179.392 51.6901L179.242 51.5H179H137Z" fill="#E9AE6C" stroke="black"/>
<path d="M177.659 54.4962L197.5 104.994V143.638L170.773 174.267H143.233L117.5 143.643V104.994L137.341 54.4962H177.659Z" fill="#E9AE6C" stroke="black"/>
<path d="M164.635 60.4849L178.5 103.979V127.698L164.74 147.318H151.271L138.5 127.707V103.974L151.373 60.4849H164.635Z" fill="#E9AE6C" stroke="black"/>
<path d="M206.743 107.894V101.507H208.549C209.105 101.507 209.598 101.63 210.025 101.876C210.453 102.121 210.783 102.471 211.014 102.924C211.249 103.377 211.367 103.898 211.37 104.486V104.894C211.37 105.496 211.253 106.024 211.019 106.477C210.787 106.93 210.455 107.278 210.021 107.521C209.59 107.764 209.088 107.888 208.514 107.894H206.743ZM207.586 102.2V107.205H208.474C209.125 107.205 209.63 107.003 209.99 106.6C210.354 106.196 210.535 105.622 210.535 104.876V104.503C210.535 103.778 210.364 103.215 210.021 102.814C209.681 102.411 209.198 102.206 208.571 102.2H207.586Z" fill="black"/>
<path d="M106.743 107.894V101.507H108.549C109.105 101.507 109.598 101.63 110.025 101.876C110.453 102.121 110.783 102.471 111.014 102.924C111.249 103.377 111.367 103.898 111.37 104.486V104.894C111.37 105.496 111.253 106.024 111.019 106.477C110.787 106.93 110.455 107.278 110.021 107.521C109.59 107.764 109.088 107.888 108.514 107.894H106.743ZM107.586 102.2V107.205H108.474C109.125 107.205 109.63 107.003 109.99 106.6C110.354 106.196 110.535 105.622 110.535 104.876V104.503C110.535 103.778 110.364 103.215 110.021 102.814C109.681 102.411 109.198 102.206 108.571 102.2H107.586Z" fill="black"/>
<path d="M132.449 105.867C132.37 106.543 132.12 107.065 131.698 107.433C131.279 107.799 130.721 107.981 130.023 107.981C129.268 107.981 128.661 107.711 128.204 107.17C127.75 106.629 127.523 105.905 127.523 104.999V104.385C127.523 103.791 127.628 103.269 127.839 102.819C128.053 102.369 128.355 102.024 128.745 101.784C129.134 101.541 129.585 101.42 130.098 101.42C130.778 101.42 131.323 101.61 131.733 101.99C132.143 102.367 132.382 102.89 132.449 103.56H131.601C131.528 103.051 131.368 102.683 131.122 102.455C130.879 102.227 130.538 102.113 130.098 102.113C129.559 102.113 129.136 102.311 128.828 102.709C128.523 103.107 128.371 103.673 128.371 104.407V105.025C128.371 105.718 128.516 106.269 128.806 106.679C129.096 107.088 129.502 107.293 130.023 107.293C130.492 107.293 130.851 107.188 131.1 106.977C131.352 106.764 131.519 106.394 131.601 105.867H132.449Z" fill="black"/>
<path d="M190.449 105.867C190.37 106.543 190.12 107.065 189.698 107.433C189.279 107.799 188.721 107.981 188.023 107.981C187.268 107.981 186.661 107.711 186.204 107.17C185.75 106.629 185.523 105.905 185.523 104.999V104.385C185.523 103.791 185.628 103.269 185.839 102.819C186.053 102.369 186.355 102.024 186.745 101.784C187.134 101.541 187.585 101.42 188.098 101.42C188.778 101.42 189.323 101.61 189.733 101.99C190.143 102.367 190.382 102.89 190.449 103.56H189.601C189.528 103.051 189.368 102.683 189.122 102.455C188.879 102.227 188.538 102.113 188.098 102.113C187.559 102.113 187.136 102.311 186.828 102.709C186.523 103.107 186.371 103.673 186.371 104.407V105.025C186.371 105.718 186.516 106.269 186.806 106.679C187.096 107.088 187.502 107.293 188.023 107.293C188.492 107.293 188.851 107.188 189.1 106.977C189.352 106.764 189.519 106.394 189.601 105.867H190.449Z" fill="black"/>
<path d="M159.276 106.227H156.595L155.993 107.894H155.123L157.566 101.507H158.305L160.752 107.894H159.887L159.276 106.227ZM156.85 105.534H159.025L157.936 102.547L156.85 105.534Z" fill="black"/>
</svg>
