<svg width="144" height="172" viewBox="0 0 144 172" fill="none" xmlns="http://www.w3.org/2000/svg">

<path d="M92.7578 8.5L133.5 60.075V112.624L92.7607 163.204H51.2393L10.5 112.624V60.075L51.2422 8.5H92.7578Z" fill="url(#paint0_linear)" stroke="black"/>

<path d="M90.2562 11.5L129.005 61.0782L130.495 110.828L90.2631 160H53.2407L14 110.825V61.0681L51.7477 11.5H90.2562Z" stroke="black"/>

<path d="M88.7597 14.5L126.505 61.6822L127.994 109.329L88.7624 157.5H54.7415L16.5 109.326V61.6772L54.7383 14.5H88.7597Z" stroke="black"/>

<path d="M121 67.3863V61H122.806C123.362 61 123.855 61.1228 124.282 61.3684C124.71 61.614 125.04 61.9635 125.271 62.4167C125.506 62.8699 125.624 63.3905 125.627 63.9781V64.3861C125.627 64.9885 125.51 65.5163 125.276 65.9695C125.044 66.4228 124.712 66.7707 124.278 67.0135C123.847 67.2561 123.345 67.3804 122.771 67.3863H121ZM121.843 61.693V66.6977H122.731C123.382 66.6977 123.887 66.4958 124.247 66.0923C124.611 65.6888 124.792 65.1142 124.792 64.3686V63.9957C124.792 63.2706 124.621 62.7077 124.278 62.307C123.938 61.9035 123.455 61.6989 122.828 61.693H121.843Z" fill="black"/>

<path d="M18 67.3863V61H19.806C20.362 61 20.855 61.1228 21.282 61.3684C21.71 61.614 22.04 61.9635 22.271 62.4167C22.506 62.8699 22.624 63.3905 22.627 63.9781V64.3861C22.627 64.9885 22.51 65.5163 22.276 65.9695C22.044 66.4228 21.712 66.7707 21.278 67.0135C20.847 67.2561 20.345 67.3804 19.771 67.3863H18ZM18.843 61.693V66.6977H19.731C20.382 66.6977 20.887 66.4958 21.247 66.0923C21.611 65.6888 21.792 65.1142 21.792 64.3686V63.9957C21.792 63.2706 21.621 62.7077 21.278 62.307C20.938 61.9035 20.455 61.6989 19.828 61.693H18.843Z" fill="black"/>

<path d="M42.926 42.4475C42.847 43.1231 42.597 43.645 42.175 44.0135C41.756 44.379 41.198 44.5617 40.5 44.5617C39.745 44.5617 39.138 44.2912 38.681 43.7503C38.227 43.2093 38 42.4856 38 41.5791V40.9651C38 40.3714 38.105 39.8495 38.316 39.3991C38.53 38.9489 38.832 38.6039 39.222 38.364C39.611 38.1214 40.062 38 40.575 38C41.255 38 41.8 38.19 42.21 38.5702C42.62 38.9474 42.859 39.4708 42.926 40.1404H42.078C42.005 39.6316 41.845 39.2632 41.599 39.0351C41.356 38.8071 41.015 38.693 40.575 38.693C40.036 38.693 39.613 38.8918 39.305 39.2896C39 39.6872 38.848 40.253 38.848 40.9869V41.6054C38.848 42.2984 38.993 42.8497 39.283 43.259C39.573 43.6684 39.979 43.873 40.5 43.873C40.969 43.873 41.328 43.7678 41.577 43.5572C41.829 43.3438 41.996 42.9739 42.078 42.4475H42.926Z" fill="black"/>

<path d="M105.926 42.4475C105.847 43.1231 105.597 43.645 105.175 44.0135C104.756 44.379 104.198 44.5617 103.5 44.5617C102.745 44.5617 102.138 44.2912 101.681 43.7503C101.227 43.2093 101 42.4856 101 41.5791V40.9651C101 40.3714 101.105 39.8495 101.316 39.3991C101.53 38.9489 101.832 38.6039 102.222 38.364C102.611 38.1214 103.062 38 103.575 38C104.255 38 104.8 38.19 105.21 38.5702C105.62 38.9474 105.859 39.4708 105.926 40.1404H105.078C105.005 39.6316 104.845 39.2632 104.599 39.0351C104.356 38.8071 104.015 38.693 103.575 38.693C103.036 38.693 102.613 38.8918 102.305 39.2896C102 39.6872 101.848 40.253 101.848 40.9869V41.6054C101.848 42.2984 101.993 42.8497 102.283 43.259C102.573 43.6684 102.979 43.873 103.5 43.873C103.969 43.873 104.328 43.7678 104.577 43.5572C104.829 43.3438 104.996 42.9739 105.078 42.4475H105.926Z" fill="black"/>

<path d="M73.153 21.7195H70.472L69.87 23.3863H69L71.443 17H72.182L74.629 23.3863H73.764L73.153 21.7195ZM70.727 21.0264H72.902L71.813 18.0395L70.727 21.0264Z" fill="black"/>

<defs>

<linearGradient id="paint0_linear" x1="10" y1="86" x2="134" y2="86" gradientUnits="userSpaceOnUse">
<stop stop-color="#002395"/>
<stop offset="0.442708" stop-color="white"/>
<stop offset="0.572917" stop-color="white"/>
<stop offset="1" stop-color="#ED2939"/>
</linearGradient>
</defs>
</svg>
