<svg width="144" height="172" viewBox="0 0 144 172" fill="none" xmlns="http://www.w3.org/2000/svg">
<path d="M73 59.9013V114.5V139V163.204H50.7393L10 112.624V60.075L50.7422 8.5H73V59.9013Z" fill="#E9AE6C" stroke="black"/>
<path d="M73 63V98.5V130.267H57.2329L31.5 99.6432V60.9941L51.3408 10.4962H73V63Z" fill="#E9AE6C" stroke="black"/>
<path d="M73 59.9013V85V103.318H65.2711L52.5 83.7073V59.9737L65.3734 16.4848H73V59.9013Z" fill="#E9AE6C" stroke="black"/>
<path d="M20.7429 63.8937V57.5074H22.5489C23.1049 57.5074 23.5979 57.6302 24.0249 57.8758C24.4529 58.1215 24.7829 58.4709 25.0139 58.9242C25.2489 59.3774 25.3669 59.8979 25.3699 60.4856V60.8935C25.3699 61.496 25.2529 62.0238 25.0189 62.477C24.7869 62.9302 24.4549 63.2782 24.0209 63.5209C23.5899 63.7635 23.0879 63.8878 22.5139 63.8937H20.7429ZM21.5859 58.2004V63.2051H22.4739C23.1249 63.2051 23.6299 63.0033 23.9899 62.5998C24.3539 62.1962 24.5349 61.6216 24.5349 60.876V60.5031C24.5349 59.778 24.3639 59.2151 24.0209 58.8145C23.6809 58.4109 23.1979 58.2063 22.5709 58.2004H21.5859Z" fill="black"/>
<path d="M46.449 61.8672C46.37 62.5427 46.12 63.0646 45.698 63.4331C45.279 63.7986 44.7209 63.9814 44.0229 63.9814C43.2679 63.9814 42.6609 63.7109 42.2039 63.1699C41.7499 62.629 41.5229 61.9052 41.5229 60.9988V60.3847C41.5229 59.7911 41.628 59.2692 41.839 58.8188C42.053 58.3686 42.3549 58.0235 42.7449 57.7837C43.1339 57.541 43.585 57.4197 44.098 57.4197C44.778 57.4197 45.323 57.6097 45.733 57.9899C46.143 58.3671 46.382 58.8905 46.449 59.5601H45.601C45.528 59.0513 45.3679 58.6829 45.1219 58.4548C44.8789 58.2267 44.538 58.1127 44.098 58.1127C43.559 58.1127 43.136 58.3115 42.828 58.7092C42.523 59.1069 42.371 59.6727 42.371 60.4066V61.0251C42.371 61.7181 42.516 62.2694 42.806 62.6787C43.096 63.0881 43.5019 63.2927 44.0229 63.2927C44.4919 63.2927 44.851 63.1875 45.1 62.9769C45.352 62.7635 45.519 62.3936 45.601 61.8672H46.449Z" fill="black"/>
<path d="M72.153 62.7195H69.472L68.87 64.3863H68L70.443 58H71.182L73.629 64.3863H72.764L72.153 62.7195ZM69.727 62.0264H71.902L70.813 59.0395L69.727 62.0264Z" fill="black"/>
</svg>
